<?xml version="1.0" encoding="UTF-8" standalone="no"?>
<svg
   xmlns:dc="http://purl.org/dc/elements/1.1/"
   xmlns:cc="http://creativecommons.org/ns#"
   xmlns:rdf="http://www.w3.org/1999/02/22-rdf-syntax-ns#"
   xmlns:svg="http://www.w3.org/2000/svg"
   xmlns="http://www.w3.org/2000/svg"
   id="svg8"
   version="1.1"
   viewBox="0 0 25 25"
   height="25mm"
   width="25mm">
  <defs
     id="defs2" />
  <metadata
     id="metadata5">
    <rdf:RDF>
      <cc:Work
         rdf:about="">
        <dc:format>image/svg+xml</dc:format>
        <dc:type
           rdf:resource="http://purl.org/dc/dcmitype/StillImage" />
        <dc:title></dc:title>
      </cc:Work>
    </rdf:RDF>
  </metadata>
  <g
     transform="translate(0,-272)"
     id="layer1">
    <g
       style="stroke:none"
       transform="matrix(0.21358912,0,0,0.18198541,-12.851849,266.74094)"
       id="g37">
      <path
         style="fill:#ffffff;stroke:none;stroke-width:0.99999994px;stroke-linecap:butt;stroke-linejoin:miter;stroke-opacity:1"
         d="m 437.57422,273.03906 c -3.59491,0.002 -7.60945,0.35838 -11.85938,0.91016 l -60,22.85547 c -100.65059,44.51262 -129.6005,105.73746 -131.42968,210 36.11659,58.95908 67.92037,75.28315 130,94.28711 61.43166,-0.7152 99.11654,-25.20244 148.57226,-57.14258 65.33069,-89.88937 39.86895,-104.38523 -4.28515,-134.28711 -35.76193,-14.56388 -61.30811,-12.1135 -97.14454,-4.28516 C 389.46728,386.00759 402.81107,368.0801 410,342.51953 l 35.71484,-37.14258 c 15.13864,-25.75182 7.43733,-32.34834 -8.14062,-32.33789 z m -133,112.32617 c 18.72483,-0.65064 32.87709,29.63171 -13.14649,45.72657 -10.91065,1.248 -15.73601,-6.78327 -10,-21.42969 5.17776,-17.31559 14.6352,-24.00113 23.14649,-24.29688 z m 170.93164,55.62891 c 3.12534,-0.004 6.51202,0.0445 10.20898,0.0977 l 10,11.42773 -11.42968,17.14258 c -19.45002,11.26053 -27.18976,19.31939 -48.57032,8.57227 l -4.28711,-14.28516 c 13.12342,-20.41425 22.20074,-22.93014 44.07813,-22.95508 z m -164.19727,30.96094 c 14.45301,-0.23799 -15.96297,41.39605 -24.16601,36.2793 -17.28503,-10.1288 -3.75379,-16.63154 0,-24.28516 12.55496,-8.57765 20.11917,-11.92751 24.16601,-11.99414 z m 57.23829,65.13476 c 24.69697,0.50134 34.12976,42.02207 -11.4043,29.71485 -10.45282,-15.83721 -6.72986,-17.78243 0,-27.14258 4.03536,-1.87922 7.87615,-2.64389 11.4043,-2.57227 z"
         transform="scale(0.26458333)"
         id="path12" />
      <path
         style="fill:#ffffff;stroke:none;stroke-width:0.26458332px;stroke-linecap:butt;stroke-linejoin:miter;stroke-opacity:1"
         d="m 131.31823,77.418759 12.85119,25.167851 c 6.93219,17.43067 16.95161,31.50003 28.94367,45.49077 l 1.88988,-2.64583 c -8.94426,-24.47754 -22.99928,-43.72624 -36.55691,-65.695142 l -5.3087,-7.918506 -3.28911,2.111295 z"
         id="path18" />
      <path
         style="fill:#ffffff;stroke:none;stroke-width:0.26458332px;stroke-linecap:butt;stroke-linejoin:miter;stroke-opacity:1"
         d="M 128.5119,72.860119 C 117.92239,68.661882 112.00766,64.8554 111.50297,52.449404 c 2.58832,-11.786379 1.32048,-12.194501 -8.69345,-17.386906 l 14.3631,1.889882 c 12.51134,5.394013 14.36111,9.669048 17.76488,21.922618 0.29555,5.267843 -0.33625,6.716434 -2.26786,11.339287 z"
         id="path20" />
    </g>
  </g>
</svg>
