<?xml version="1.0" encoding="UTF-8" standalone="no"?>
<svg
   xmlns:dc="http://purl.org/dc/elements/1.1/"
   xmlns:cc="http://creativecommons.org/ns#"
   xmlns:rdf="http://www.w3.org/1999/02/22-rdf-syntax-ns#"
   xmlns:svg="http://www.w3.org/2000/svg"
   xmlns="http://www.w3.org/2000/svg"
   xmlns:sodipodi="http://sodipodi.sourceforge.net/DTD/sodipodi-0.dtd"
   xmlns:inkscape="http://www.inkscape.org/namespaces/inkscape"
   id="svg151"
   version="1.1"
   viewBox="0 0 50 50"
   height="50mm"
   width="50mm"
   sodipodi:docname="logo_svg_8.svg"
   inkscape:version="0.92.4 (5da689c313, 2019-01-14)">
  <sodipodi:namedview
     pagecolor="#ffffff"
     bordercolor="#666666"
     borderopacity="1"
     objecttolerance="10"
     gridtolerance="10"
     guidetolerance="10"
     inkscape:pageopacity="0"
     inkscape:pageshadow="2"
     inkscape:window-width="1600"
     inkscape:window-height="838"
     id="namedview36"
     showgrid="false"
     inkscape:zoom="1.6906875"
     inkscape:cx="2.9175606"
     inkscape:cy="122.79903"
     inkscape:window-x="-8"
     inkscape:window-y="-8"
     inkscape:window-maximized="1"
     inkscape:current-layer="svg151" />
  <defs
     id="defs145" />
  <metadata
     id="metadata148">
    <rdf:RDF>
      <cc:Work
         rdf:about="">
        <dc:format>image/svg+xml</dc:format>
        <dc:type
           rdf:resource="http://purl.org/dc/dcmitype/StillImage" />
        <dc:title />
      </cc:Work>
    </rdf:RDF>
  </metadata>
  <path
     inkscape:connector-curvature="0"
     style="fill:#ffffff;stroke:none;stroke-width:0.30272356px;stroke-linecap:butt;stroke-linejoin:miter;stroke-opacity:1"
     d="m 21.057441,21.49701 -3.982018,-1.69237 c -2.710287,-0.59269 -3.826286,0.0272 -4.479768,3.48428 -0.829587,0.93037 -1.659173,0.26999 -2.48876,0.0995 l -1.3937028,-2.68786 0.6968573,3.38472 c 2.7173665,1.90973 2.3162645,2.16586 5.2761665,1.3937 3.08451,-4.30911 2.88374,2.14719 6.371225,-3.982 z"
     id="path324" />
  <path
     inkscape:connector-curvature="0"
     style="fill:#ffffff;stroke:none;stroke-width:0.30272356px;stroke-linecap:butt;stroke-linejoin:miter;stroke-opacity:1"
     d="m 18.369574,18.75936 -0.398199,-3.03628 c -2.657543,-7.98959 -6.372914,2.46641 -7.86448,-3.18562 l -0.6470749,2.48876 c 0.037494,2.29365 0.049633,2.32326 1.7421319,3.63359 1.579222,0.3207 2.892806,-0.52001 4.330445,-1.09507 l 0.846169,-0.0995 0.647087,0.89595 z"
     id="path326" />
  <path
     style="fill:#ffffff;stroke:none;stroke-width:1.14415205px;stroke-linecap:butt;stroke-linejoin:miter;stroke-opacity:1"
     d="M 97.835938 79.554688 C 93.248273 81.738504 89.332114 82.683827 90.074219 90.128906 C 88.892671 84.181702 84.203889 86.067763 82.033203 84.447266 C 76.934734 87.770869 77.003953 90.412519 76.388672 96.111328 C 80.003136 106.28533 84.522243 108.22613 94.261719 109.0918 L 97.458984 108.90234 C 101.64021 105.40809 104.78657 101.3139 107.80664 96.863281 C 109.78716 87.583861 107.54013 86.412427 106.11328 83.693359 L 99.904297 79.554688 L 97.835938 79.554688 z M 99.904297 88.960938 C 103.55777 91.330777 101.50383 95.928278 98.587891 97.802734 C 93.267075 96.02046 98.285869 89.933675 99.904297 88.960938 z M 81.421875 95.546875 C 83.428997 96.069206 85.347841 95.784118 86.923828 97.755859 L 88.146484 101.51953 C 86.541689 102.7232 85.935484 102.96882 83.867188 102.36523 C 82.17343 101.05185 81.521768 98.278944 81.421875 95.546875 z "
     transform="scale(0.26458333)"
     id="path328" />
  <path
     inkscape:connector-curvature="0"
     style="fill:#ffffff;stroke:none;stroke-width:0.30272356px;stroke-linecap:butt;stroke-linejoin:miter;stroke-opacity:1"
     d="m 23.083503,20.83294 c 0.230043,-1.48332 -0.696328,-2.19456 -0.633539,-4.08279 l 0.344888,-1.25852 0.376126,-2.38628 C 20.601136,9.06115 20.810239,9.75821 21.493622,5.15511 L 21.182895,2.46043 c -2.658031,2.70468 -2.658159,3.78375 -3.322002,7.3627 l 0.963847,5.44879 0.351964,1.9358 0.879911,2.22487 z"
     id="path346" />
  <path
     inkscape:connector-curvature="0"
     style="fill:#ffffff;stroke:none;stroke-width:0.30272356px;stroke-linecap:butt;stroke-linejoin:miter;stroke-opacity:1"
     d="m 24.068996,12.20982 c -0.0079,-1.96166 1.251154,-3.34787 2.254636,-4.94811 L 27.831039,5.8649 C 29.420627,4.51689 29.572473,3.66909 29.665239,1.72131 27.26204,4.1428 24.50762,5.22829 23.294703,9.35892 l 0.281564,2.21736 0.63354,0.66874"
     id="path348" />
  <path
     inkscape:connector-curvature="0"
     style="fill:#ffffff;stroke:none;stroke-width:0.30272356px;stroke-linecap:butt;stroke-linejoin:miter;stroke-opacity:1"
     d="m 24.456154,19.53067 0.774328,-3.09729 1.654227,-1.8654 C 30.726146,11.54451 33.886098,5.60348 35.9306,1.30206 l -5.27988,4.36123 c -1.702895,1.51713 -3.157021,3.08404 -4.293957,5.03309 -1.324985,1.8208 -1.678104,3.51914 -1.935803,5.66661 l -0.31677,2.78052 z"
     id="path352" />
  <path
     inkscape:connector-curvature="0"
     style="fill:#ffffff;stroke:none;stroke-width:0.30272356px;stroke-linecap:butt;stroke-linejoin:miter;stroke-opacity:1"
     d="m 31.988176,11.32991 c 0.503466,-0.87619 1.856479,-1.08777 2.745325,-1.37266 l 1.12628,0.63354 1.970997,-1.33747 c 1.55817,-1.21568 1.967206,-2.82562 2.63973,-4.61071 L 40.576114,2.88279 39.449833,5.27614 C 36.585952,7.68805 37.26559,7.8309 33.905883,6.97368 33.577385,7.36084 32.950237,9.04215 32.621739,9.4293 l -1.231874,1.37267 z"
     id="path354" />
  <path
     inkscape:connector-curvature="0"
     style="fill:#ffffff;stroke:none;stroke-width:0.30272356px;stroke-linecap:butt;stroke-linejoin:miter;stroke-opacity:1"
     d="m 27.166273,15.58868 c 0,-0.14079 1.970997,-1.79502 1.970997,-1.79502 l 2.287766,-1.09109 3.871605,-0.28157 3.201397,0.30926 c 3.553439,1.65077 4.238707,2.07808 5.76203,5.36675 -2.677135,-0.96412 -6.119948,-3.22442 -8.73767,-2.50584 l -2.654311,0.70143 c 0,0 -1.513439,0.38716 -2.287767,0.14078 -0.774316,-0.24637 -0.985492,-0.24637 -1.407845,-0.42235 -0.422364,-0.17598 -0.457558,-0.21118 -0.457558,-0.21118 l -0.985504,-0.0352 z"
     id="path356" />
  <path
     inkscape:connector-curvature="0"
     style="fill:#ffffff;stroke:none;stroke-width:0.30272356px;stroke-linecap:butt;stroke-linejoin:miter;stroke-opacity:1"
     d="m 24.456154,21.29049 1.916222,-1.77689 1.990577,1.49534 1.055892,0.66872 0.211177,0.77432 0.63354,-1.75981 -0.598346,-1.0911 c 1.424771,0.72417 4.288848,1.10817 5.843031,1.27561 l -2.780948,0.62499 1.769431,0.91618 c 3.510508,1.52001 5.52535,0.50652 8.78948,1.3364 l 1.619032,0.84472 c -1.531366,-2.71909 -2.315128,-2.56582 -5.173867,-3.59003 -1.276833,-1.41597 -2.902646,-1.97816 -4.610716,-2.71013 l -2.07659,-0.56314 -3.519641,-0.28158 -3.343647,-0.66873 -0.211177,0.35196 -0.63354,2.35817 -0.703928,1.23186 z"
     id="path358" />
  <path
     style="fill:#ffffff;stroke:none;stroke-width:1.14415205px;stroke-linecap:butt;stroke-linejoin:miter;stroke-opacity:1"
     d="M 117.47461 90.126953 L 111.45508 91.443359 L 111.64258 99.158203 L 104.87109 108.1875 L 101.48438 112.13867 L 103.36523 120.03906 L 110.32617 131.89062 L 121.80078 137.91211 C 130.45545 140.54909 137.20573 145.08384 144.18945 150.51562 C 149.30801 162.44608 150.62646 167.63256 146.82227 179.29883 L 149.64453 185.32031 C 161.71369 176.3326 161.93115 169.65941 161.11914 156.53516 C 161.11914 156.53516 159.42704 143.93215 159.05078 143.17969 C 155.53287 136.59908 151.29109 132.69511 145.12891 129.07031 L 134.59375 123.04883 L 130.08008 114.96094 C 130.08008 114.96094 138.16812 122.48443 139.29688 123.04883 C 145.27907 124.24512 150.77696 126.72368 156.41602 129.07031 L 163.37695 137.1582 L 164.31836 137.91211 L 164.88281 133.58398 C 164.88281 133.58398 164.50682 128.31592 161.87305 124.92969 C 159.0599 121.56198 156.52988 114.85207 151.52539 114.58398 C 149.83225 114.58398 147.01024 113.64258 145.69336 113.64258 C 139.98022 112.84835 135.88188 109.39033 131.39648 106.11719 L 122.74219 98.029297 L 117.47461 90.126953 z M 109.94922 106.30664 L 111.07812 110.63281 L 111.45508 107.81055 L 116.3457 109.88086 L 117.47461 113.64258 L 117.66211 116.27734 L 117.85156 111.19727 L 123.68359 116.65234 L 123.68359 120.98047 L 125 119.28711 L 135.1582 129.44531 L 123.68359 128.12891 L 122.36523 123.99023 L 121.80078 127 L 116.5332 126.24805 L 117.66211 120.41602 L 114.65234 124.17773 L 110.13867 118.53516 L 112.20703 114.58398 L 110.13867 116.08789 L 109.19727 109.31641 L 109.94922 106.30664 z "
     transform="scale(0.26458333)"
     id="path364" />
  <path
     style="fill:#ffffff;stroke:none;stroke-width:1.14415205px;stroke-linecap:butt;stroke-linejoin:miter;stroke-opacity:1"
     d="M 72.701172 97.087891 L 71.382812 97.839844 L 71.382812 101.22656 L 71.382812 106.30664 L 70.630859 110.25586 L 65.175781 115.71289 C 60.575858 119.92944 57.339653 121.04321 50.689453 120.98047 C 42.633129 119.62154 34.633548 117.85921 26.421875 117.9707 C 20.005255 118.64221 18.123167 123.39545 16.638672 128.50586 C 26.190311 125.17591 34.685096 129.92184 49.185547 128.31641 C 49.866142 127.9959 55.393433 128.31747 56.898438 127.94141 C 58.403457 127.56512 59.15625 125.87109 59.15625 125.87109 L 58.966797 127.94141 C 58.966797 127.94141 55.016183 130.011 54.263672 130.19922 C 53.511164 130.38733 39.214844 133.01953 39.214844 133.01953 C 29.342642 136.0944 26.596618 136.25366 21.154297 145.625 C 20.71992 150.94612 19.801395 155.54441 22.283203 160.48633 L 24.164062 161.05078 L 24.541016 152.58594 C 27.055805 147.13718 29.78125 145.59525 35.828125 143.55469 L 46.738281 140.73242 L 52.195312 138.09961 L 52.005859 139.98047 L 48.244141 141.86133 L 42.224609 144.11914 C 37.319586 148.82798 35.419778 153.03583 34.322266 160.11133 L 35.638672 168.76367 C 37.663002 174.99237 39.009979 178.28315 45.046875 181.74414 C 43.950975 174.92515 42.762263 168.18415 42.976562 161.23828 C 46.695444 153.20584 49.755711 151.8484 55.957031 150.32812 L 70.255859 143.93164 L 81.166016 135.6543 L 86.998047 125.30664 L 88.878906 113.83203 L 83.800781 112.13867 L 78.720703 107.62305 L 74.958984 103.10742 L 72.701172 97.087891 z M 79.849609 112.70312 L 82.671875 117.2168 L 78.34375 116.65234 L 81.917969 118.91016 L 79.849609 125.30664 L 75.710938 123.80273 L 79.662109 127.56445 L 73.830078 131.51562 L 67.808594 128.69336 L 70.255859 131.51562 L 60.847656 133.77344 L 62.917969 128.12891 L 66.115234 123.42578 L 71.195312 124.74219 L 68.75 122.29688 L 71.947266 116.46484 L 75.898438 119.66406 L 73.453125 115.52344 L 79.849609 112.70312 z "
     transform="scale(0.26458333)"
     id="path366" />
  <path
     inkscape:connector-curvature="0"
     style="fill:#ffffff;stroke:none;stroke-width:0.30272356px;stroke-linecap:butt;stroke-linejoin:miter;stroke-opacity:1"
     d="m 23.582854,33.31594 -0.844714,1.98859 2.146979,0.51036 c 1.381924,0.087 2.445469,-0.46721 3.678022,-1.0031 l -0.651134,-1.30224 -0.334364,-0.65116 c -1.283115,0.75535 -2.731574,0.56254 -3.994789,0.45755 z"
     id="path370" />
  <path
     inkscape:connector-curvature="0"
     style="fill:#ffffff;stroke:none;stroke-width:0.30272356px;stroke-linecap:butt;stroke-linejoin:miter;stroke-opacity:1"
     d="m 24.374773,30.35945 -0.088,0.84473 -0.05279,0.70392 0.246374,0.6863 c 0.727896,0.48091 1.099766,0.27026 1.883004,0.0176 l 0.263972,-0.61595 -0.05279,-0.8271 -0.246375,-1.03828 -0.633534,0.19356 z"
     id="path372" />
  <path
     inkscape:connector-curvature="0"
     style="fill:#ffffff;stroke:none;stroke-width:0.30272356px;stroke-linecap:butt;stroke-linejoin:miter;stroke-opacity:1"
     d="m 22.526963,36.55399 2.639728,0.59837 2.604531,-0.70394 1.055891,-0.59833 0.211177,1.86541 -1.037776,4.2673 0.07816,3.35866 0.4924,0.22096 0.391642,0.61229 -0.439438,0.81731 -1.011119,0.0576 -0.890949,-0.97443 -0.04373,-1.73923 -0.144752,-1.49136 c 0,0 -0.06936,-1.01111 10e-4,-1.32788 0.07039,-0.31677 0.422357,-1.40784 0.422357,-1.40784 l 0.105594,-0.52795 -0.844714,0.42236 -1.020696,0.0351 -1.095355,-0.20263 -0.06612,0.6602 -0.03519,1.37266 v 0.8799 l 0.211181,1.23188 0.105582,0.98548 -0.03519,1.0207 -0.140788,0.66874 -0.633533,0.84472 H 22.386163 L 22.2268,46.60857 22.808517,45.74022 c 0,0 -0.140786,-1.79503 -0.140786,-1.93579 0,-0.1408 -0.128712,-2.2981 -0.128712,-2.2981 l -0.223253,-1.57353 -0.545026,-1.46791 0.298651,-1.2422 z"
     id="path374" />
  <path
     inkscape:connector-curvature="0"
     style="fill:#ffffff;stroke:none;stroke-width:0.30272356px;stroke-linecap:butt;stroke-linejoin:miter;stroke-opacity:1"
     d="m 30.036566,37.385 0.248875,1.49328 1.791906,2.23989 c 4.493194,4.81454 1.263543,5.90557 -3.036286,6.1721 4.100836,2.66374 7.809456,0.74392 7.366726,-3.68336 C 34.478153,40.16787 32.468302,40.51 30.285441,37.2357 l -1.458328,-1.38562 z"
     id="path376" />
  <path
     inkscape:connector-curvature="0"
     style="fill:#ffffff;stroke:none;stroke-width:0.30272356px;stroke-linecap:butt;stroke-linejoin:miter;stroke-opacity:1"
     d="m 18.886924,25.88698 -2.040781,-0.79643 -1.493257,1.29415 1.244379,0.89596 -1.343929,-0.3982 -0.895954,1.29414 0.94573,0.64708 -1.04528,0.0498 -0.696852,0.9955 -1.04528,1.69238 2.488761,-0.69687 -0.348426,-0.99551 0.796402,0.89598 1.343929,-0.64708 -0.3982,-1.19461 0.547528,0.69685 1.94123,-1.49322 -1.244379,-0.74667 1.244379,0.74667 0.94573,-0.84617 -0.94573,-1.39372"
     id="path378" />
  <path
     inkscape:connector-curvature="0"
     style="fill:#ffffff;stroke:none;stroke-width:0.30272356px;stroke-linecap:butt;stroke-linejoin:miter;stroke-opacity:1"
     d="m 31.081841,23.84618 1.393705,2.09055 0.647081,-1.69235 -0.647081,1.69235 3.285163,0.84618 V 25.3892 l 0.995506,1.44348 2.78741,-0.74663 1.791905,-0.44798 -1.991007,-0.59728 -1.941232,-0.49776 0.149326,0.64707 -0.796402,-1.14482 -2.090557,-0.54753 -0.09955,0.94573 -0.06937,-2.02563 -2.518936,-0.0151 -0.895956,1.44349 -0.149322,-1.94125 z"
     id="path380" />
  <path
     inkscape:connector-curvature="0"
     style="fill:#ffffff;stroke:none;stroke-width:0.30272356px;stroke-linecap:butt;stroke-linejoin:miter;stroke-opacity:1"
     d="m 20.77838,38.0321 -1.84168,1.5928 c -0.628912,1.09588 -1.814134,1.92597 -2.190108,3.33493 -0.04977,0.34843 -0.995504,1.39372 -0.995504,1.39372 l -0.149323,2.93673 0.09955,1.74213 c 1.159646,-2.3263 2.47898,-4.55426 3.832689,-6.76944 l 0.398203,-1.79188 2.137213,-3.24841 z"
     id="path382" />
</svg>
