<?xml version="1.0" encoding="UTF-8" standalone="no"?>
<svg
   xmlns:dc="http://purl.org/dc/elements/1.1/"
   xmlns:cc="http://creativecommons.org/ns#"
   xmlns:rdf="http://www.w3.org/1999/02/22-rdf-syntax-ns#"
   xmlns:svg="http://www.w3.org/2000/svg"
   xmlns="http://www.w3.org/2000/svg"
   id="svg151"
   version="1.1"
   viewBox="0 0 50 50"
   height="50mm"
   width="50mm">
  <defs
     id="defs145" />
  <metadata
     id="metadata148">
    <rdf:RDF>
      <cc:Work
         rdf:about="">
        <dc:format>image/svg+xml</dc:format>
        <dc:type
           rdf:resource="http://purl.org/dc/dcmitype/StillImage" />
        <dc:title></dc:title>
      </cc:Work>
    </rdf:RDF>
  </metadata>
  <g
     transform="translate(0,-247)"
     id="layer1">
    <path
       id="path131"
       d="m 23.293544,278.47338 -0.745359,1.41164 -0.09793,1.37105 0.636568,1.42003 c 0.478714,0.50504 0.817255,0.67657 1.46899,0.7345 l 0.04896,0.48966 -0.440697,0.51415 -0.489665,0.31828 h 0.930362 l 0.293801,-0.0122 0.159143,-0.25707 0.101563,0.22853 0.571719,0.0163 0.452944,-0.0245 -0.449584,-0.37935 -0.33526,-0.39572 0.08707,-0.59599 c 0.586216,-0.0842 0.755045,-0.52382 1.07726,-0.97933 l 0.195865,-0.48967 0.04896,-0.7345 0.146898,-0.93036 -0.930363,-2.15453 -0.68553,-0.53863 c -0.239391,-1.06989 -0.05403,-2.06996 0.09793,-3.13385 0.320701,-1.35293 0.454204,-2.50234 -0.195871,-3.81939 -0.659372,-0.464 -0.942496,-0.54916 -1.664855,-0.34277 l -0.342768,0.48967 -0.195864,0.58759 c -0.142114,0.60117 -0.415238,0.95387 -0.832433,1.37108 l 0.489665,-0.098 c 0.749186,-0.0784 0.875126,-0.27057 1.224162,-0.88138 h 0.244834 l 0.440696,0.73449 0.04897,1.02829 c -0.06097,1.11144 -0.154889,2.22039 -0.244832,3.32973 l -0.440698,1.27312 z"
       style="fill:#ffffff;stroke:none;stroke-width:0.14890265px;stroke-linecap:butt;stroke-linejoin:miter;stroke-opacity:1" />
    <path
       id="path135"
       d="m 10.84519,282.72507 c -0.9993767,0.93249 -2.0030754,1.21733 -3.280754,1.51796 l -2.2524605,0.61208 c -1.4068477,0.26045 -2.8699387,0.35092 -4.2845695,0.56312 l 3.5500722,0.34276 c 2.3800878,0.0751 5.0111201,-0.14373 7.0022088,-0.71002 1.00129,-1.11612 2.01751,-1.36278 3.378688,-1.83623 l -0.714361,1.10275 -1.146364,0.70901 c -1.289299,0.89821 -1.830301,1.77088 -2.179006,2.64418 -0.10882,1.74445 0.559011,1.72616 1.860725,2.88903 l -0.52951,-2.39937 c 0.572754,-1.59218 2.735153,-1.81023 3.222663,-3.37868 l -0.538627,2.22797 c -0.0475,1.16811 0.299939,1.8375 0.905876,2.76661 1.159645,0.87208 2.524262,0.75921 3.917321,0.8814 l 1.248649,-0.17138 0.734492,-0.53863 c -2.115739,-0.41464 -3.774915,0.59542 -5.022838,-1.11508 l -0.569063,-1.63124 c -0.510707,-1.93297 1.860754,-2.94521 3.437376,-4.01106 l 2.606388,-1.64684 -0.775473,0.77408 -0.89389,1.06689 c -0.708677,1.40529 -0.632617,1.37501 0.01784,2.67041 1.8454,0.71912 2.207658,0.36719 3.2031,-0.7681 l -1.512527,-0.0885 -0.840829,-0.31808 c 0.07395,-1.16076 0.804817,-1.75033 1.5407,-2.58487 l 0.229051,-1.05646 -0.611867,-1.35375 v 0 l -1.354362,-0.60312 c -1.393065,-0.67053 -3.052174,-0.48074 -4.570587,-0.57209 l -2.448326,0.63657 c -2.36092,1.35358 -3.763795,2.35049 -6.2187434,2.39935 -1.5494177,0.003 -3.158,-0.24483 -4.749749,-0.24482 l -2.54626097,-0.1469 2.71763887,0.90588 c 2.4785757,0.40593 4.9411956,0.89656 7.4673935,0.46518 z"
       style="fill:#ffffff;stroke:none;stroke-width:0.14890265px;stroke-linecap:butt;stroke-linejoin:miter;stroke-opacity:1" />
    <path
       id="path137"
       d="m 26.808257,281.10917 0.870039,0.22578 1.331006,1.12378 2.504548,1.04683 c 0.948602,1.77874 3.210185,4.32738 0.704287,5.27578 -2.433518,1.01799 -3.321205,0.57405 -4.859653,0.86951 l 1.849142,0.59057 c 3.003218,0.28525 5.139053,-0.12215 5.463243,-1.86072 0.02448,-0.12242 -0.02622,-0.67119 -0.05071,-1.13637 0.431096,-2.03433 -1.446957,-2.65539 -2.399449,-4.19555 0,0 0.392339,0.25795 1.93355,0.86235 l 1.350778,0.67365 c 2.480883,1.19093 2.816367,2.61451 1.902314,4.01134 l -2.101016,1.69241 c 0.809719,-0.30674 1.619433,-0.30187 2.429152,-0.92022 0,0 1.399087,-1.06158 1.145069,-2.73505 -0.389253,-1.15707 -2.914821,-2.4699 -3.729009,-3.20853 l -1.243725,-1.07706 c 0.871913,-0.10423 1.696917,0.0654 2.550455,0.21339 0.539223,-0.0654 1.878042,1.69191 1.878042,1.69191 2.347249,0.48928 4.08638,0.31201 6.379349,-0.0436 2.107596,-0.27721 2.873576,-1.0469 4.519859,-2.29507 -2.188799,0.13075 -6.593934,0.85714 -8.471802,0.32104 l -1.420027,-0.4407 -1.123769,-0.41549 c 2.67555,0.25477 3.535255,0.33549 5.873517,-0.56384 l 4.277068,-2.11846 c -1.176788,-0.21203 -2.740258,0.73724 -4.060341,0.9887 -1.78632,0.34027 -3.530471,0.52357 -5.309243,0.4932 -0.195865,0 -3.329721,-0.19587 -3.329721,-0.19587 l 2.25246,-0.48967 c 1.633148,-0.29131 3.206951,0.20503 4.351412,-3.1e-4 1.040077,-0.23035 1.747004,-0.92515 1.931862,-1.1694 1.022669,-1.35125 -1.893148,-2.53192 -2.948296,-4.41199 l 1.174761,2.70596 c 0.08951,1.0644 -0.345542,1.62767 -1.651398,1.32989 l -1.413828,-0.2659 c 0,0 -1.003811,0.12242 -2.74212,0.63657 -0.195865,0.098 -1.885212,0.1469 -1.885212,0.1469 -2.310658,-0.679 -5.811486,-0.55634 -7.589809,0.53863 l -0.636563,0.098 z"
       style="fill:#ffffff;stroke:none;stroke-width:0.14890265px;stroke-linecap:butt;stroke-linejoin:miter;stroke-opacity:1" />
    <path
       id="path139"
       d="m 26.499611,281.51474 0.06382,0.8186 0.758984,0.53863 0.293801,0.39173 0.553484,0.6378 -0.77383,0.83119 -0.976365,0.185 -0.772609,0.0634 c 1.033678,1.17635 2.271359,1.14797 3.413834,0.0945 0,0 0.02448,0.0979 0.269314,-0.71002 0.244832,-0.80794 -0.440698,-1.27312 -0.440698,-1.27312 -0.611974,-0.72517 -0.935534,-1.2745 -2.081088,-1.98322 z"
       style="fill:#ffffff;stroke:none;stroke-width:0.14890265px;stroke-linecap:butt;stroke-linejoin:miter;stroke-opacity:1" />
    <path
       id="path141"
       d="m 25.505423,278.95914 3.003353,-4.22647 c 2.154199,-3.5027 4.90866,-6.23526 7.064497,-7.28515 l 2.399358,-2.98696 c 1.516708,-2.27558 1.990176,-3.48729 2.497288,-6.02288 l 0.2938,1.66487 v 1.51795 c -0.05566,1.4499 -0.786662,2.60163 -1.420027,3.86836 l -1.322093,1.66486 c 2.268123,-1.28148 3.83166,-3.17827 5.533214,-5.09252 -1.168875,4.13124 -3.613211,5.94232 -6.953247,7.93258 l -0.930363,0.53863 -1.126228,1.27313 2.889023,-1.9097 c 0.948288,-0.43963 3.654587,-1.93417 4.945614,-2.81557 -0.884181,1.36761 -2.185254,2.0627 -3.525586,2.91351 1.658591,-0.26509 3.009268,-1.11544 4.455954,-1.9097 l 2.105558,-1.56692 c -1.316437,3.83399 -5.026153,3.28304 -7.540842,5.33735 -0.146897,0.19586 -2.203493,2.05659 -2.203493,2.05659 l -2.007622,1.12623 -2.105565,0.97933 -2.399357,0.85691 1.517963,-0.36725 c 3.107922,0.0815 5.405732,-0.91812 8.281328,-1.93698 l -1.916283,1.38155 c -2.122088,1.4342 -2.239067,1.44866 -4.620495,1.55852 -1.147253,-0.0388 -2.275901,-0.21989 -3.433897,0.19659 -1.071626,0.21966 -1.713343,0.67827 -2.472796,1.39553 z"
       style="fill:#ffffff;stroke:none;stroke-width:0.14890265px;stroke-linecap:butt;stroke-linejoin:miter;stroke-opacity:1" />
    <path
       id="path144"
       d="m 25.339262,277.48565 0.832439,-2.0566 0.685535,-1.90969 c 0.883286,-4.55696 -0.0073,-9.24689 -0.979331,-13.36785 -0.659979,-1.80646 -0.881563,-3.32329 -0.832432,-5.19044 l 1.077266,-2.25246 c -0.330686,3.41751 -0.351643,4.82969 0.685529,7.8836 l 0.95485,1.49348 -0.367249,-3.10938 -0.04897,-3.13386 c 2.01508,1.84234 1.489273,2.98956 1.909694,5.23942 v 1.12624 l 1.028291,-1.83625 2.2035,-2.69316 c -0.785221,2.40199 -1.701554,5.88791 -3.207311,7.81016 l -0.465178,1.3221 1.66486,-2.0566 0.807947,-1.64038 c 0.15925,1.56238 -0.901346,3.02995 -1.444514,4.0887 l -0.979331,2.6442 -0.09793,1.1752 1.420028,-2.54627 0.636562,-1.17519 0.636569,-1.07727 c -0.07128,2.4576 -0.17274,2.31901 -1.566931,4.21113 l -0.538633,0.83242 2.105564,-1.42002 c -2.437093,2.35258 -3.616357,3.70847 -4.37932,6.67973 l -1.055982,1.49767 -0.675225,0.51067 z"
       style="fill:#ffffff;stroke:none;stroke-width:0.14890265px;stroke-linecap:butt;stroke-linejoin:miter;stroke-opacity:1" />
    <path
       id="path146"
       d="m 23.674412,278.61189 -1.504129,-1.98981 -2.315257,-3.34754 c -1.510455,-2.64749 -4.344753,-4.06442 -6.708408,-4.99459 l -2.007629,-1.1752 c -1.3533037,-1.92707 -1.7107262,-3.65323 -1.8117567,-5.87598 -0.7088352,0.6075 -0.926345,2.85648 -0.3917355,3.91732 l -0.9997196,-0.73652 c -0.9345055,-1.51512 -1.8956579,-3.73669 -2.6727691,-5.33532 l -0.043333,2.23473 0.7778377,2.27018 c 1.4980851,2.55408 2.834563,4.55753 5.8270132,6.65945 l 1.37106,0.68553 -2.251436,-0.67364 c -2.3093357,-0.037 -2.9755447,-0.85013 -4.7018051,-2.16641 l -2.0071999,-2.59234 1.8113352,3.57167 c 2.5462723,3.56774 4.2187628,2.2085 7.5408408,3.67248 l 0.881396,0.5876 -3.6612,-0.098 2.877734,0.8814 3.182824,0.68552 0.77186,0.36045 1.003176,0.91268 c -0.859149,-0.50492 -1.742896,-0.63835 -2.705398,-0.78346 -0.670342,-0.0865 -1.229504,-0.41268 -1.824005,-0.71002 0.374926,0.62687 0.976467,0.97478 1.628139,1.21194 1.465231,0.33931 2.676765,0.62755 4.015252,1.16294 l -2.644191,0.049 c -1.372608,0.0762 -2.170211,-0.56363 -3.280753,-1.27313 l -1.028298,-0.53864 1.175195,1.76279 c 1.827684,1.65676 2.270779,1.20022 4.749749,1.27313 1.923278,-0.0379 2.305846,0.54772 3.819391,1.66487 v 0 z"
       style="fill:#ffffff;stroke:none;stroke-width:0.14890265px;stroke-linecap:butt;stroke-linejoin:miter;stroke-opacity:1" />
    <path
       id="path150"
       d="m 23.968196,278.02428 -0.636551,-2.54625 -1.126239,-2.84006 -0.489654,-3.0849 0.489666,-4.30904 c 0.785924,-3.56535 2.477308,-6.39555 3.452142,-7.27152 l 2.325904,-3.40319 c -2.7535,1.72076 -3.275177,2.70642 -4.945614,5.33735 l -0.734497,0.88141 c 0.04378,-1.88654 0.735403,-3.46097 1.444509,-5.16596 -2.581909,2.28566 -2.821068,3.64484 -3.146458,6.89875 l -0.816201,2.31941 -0.174575,2.00354 -0.207875,-1.65907 0.238687,-2.56031 0.630518,-2.14451 0.856193,-2.04225 -0.734492,0.83243 c -1.017796,1.215 -2.058599,4.16959 -1.816952,5.4318 -0.125731,-1.70656 -1.611851,-4.36294 -2.666414,-5.51409 0.865558,1.57045 0.888384,3.49517 1.44313,5.05381 0.385826,1.07829 1.047449,2.59207 1.077074,2.96105 l 0.934864,2.6442 1.371061,2.30143 1.126233,2.39936 0.636562,1.76278 1.175195,2.30144 v 0 z"
       style="fill:#ffffff;stroke:none;stroke-width:0.14890265px;stroke-linecap:butt;stroke-linejoin:miter;stroke-opacity:1" />
  </g>
</svg>
