<?xml version="1.0" encoding="UTF-8" standalone="no"?>
<svg
   xmlns:dc="http://purl.org/dc/elements/1.1/"
   xmlns:cc="http://creativecommons.org/ns#"
   xmlns:rdf="http://www.w3.org/1999/02/22-rdf-syntax-ns#"
   xmlns:svg="http://www.w3.org/2000/svg"
   xmlns="http://www.w3.org/2000/svg"
   id="svg151"
   version="1.1"
   viewBox="0 0 50 50"
   height="50mm"
   width="50mm">
  <defs
     id="defs145" />
  <metadata
     id="metadata148">
    <rdf:RDF>
      <cc:Work
         rdf:about="">
        <dc:format>image/svg+xml</dc:format>
        <dc:type
           rdf:resource="http://purl.org/dc/dcmitype/StillImage" />
        <dc:title></dc:title>
      </cc:Work>
    </rdf:RDF>
  </metadata>
  <g
     transform="translate(0,-247)"
     id="layer1">
    <path
       id="path60"
       d="m 17.123916,271.63975 c 0.03714,0.61864 0.08639,1.37893 0.109128,1.46991 0.03902,0.15612 -0.273206,1.54165 -0.273206,1.54165 l 0.117086,1.8734 0.409813,1.19039 0.312223,0.78058 0.390291,0.81961 0.117086,0.60495 0.878156,0.91719 0.234172,0.74155 0.448839,1.19039 0.780574,0.70252 0.394858,2.42755 -0.102148,2.56819 0.195146,3.39553 0.02656,1.44434 0.0515,2.34149 1.439631,-3.87506 0.0045,-1.74514 -0.468352,-1.13184 0.663497,-1.40506 0.507378,-1.26844 -0.234172,-3.55165 0.03903,-0.97572 -0.623979,-0.60551 -0.781068,-0.85809 -0.702523,-2.12709 0.01956,-2.28321 -0.214668,-0.74156 0.390292,-0.54641 c 0.338428,-0.73107 0.285613,-1.0874 0.02638,-1.79488 l -0.533726,-0.46881 -0.370779,-0.5464 -0.149841,-1.66405 0.617771,-0.56727 0.683593,-0.11038 1.366021,-0.70253 1.483107,-1.09282 0.468352,-2.06854 -1.756313,-1.09281 -1.717287,0.39028 -1.182771,-0.12 -0.459649,1.02007 -0.78515,0.42416 -0.913342,0.5949 -0.854723,0.46165 c -0.361915,0.0898 -0.443394,0.32058 -0.624472,0.62446 -0.0961,0.3881 -0.03373,0.53538 0.172887,0.84646 l 0.139183,0.70197 c -0.07922,0.77551 0.209329,1.5346 0.261615,2.27008 z"
       style="fill:#ffffff;stroke:none;stroke-width:0.23736821px;stroke-linecap:butt;stroke-linejoin:miter;stroke-opacity:1" />
    <path
       id="path62"
       d="m 21.409337,265.90882 -1.014719,0.62446 0.03903,1.44407 0.604941,0.56593 0.487864,0.83914 0.351293,0.93668 0.0925,1.86288 0.258681,0.54883 0.753839,0.61066 0.942742,1.14154 1.136846,1.00631 1.547943,0.37583 0.717909,-0.13359 0.194428,-0.0949 0.318934,-0.26876 c -0.08451,-0.0819 -0.14653,-0.0292 -0.19939,-0.0137 -0.100479,0.0295 -0.162759,0.12165 -0.211716,0.10653 l 0.250347,-0.25152 0.154398,-0.20791 0.06702,-0.27905 -0.08855,-0.51004 c 0.0036,0.0606 -0.07796,0.13297 -0.08801,0.20363 -0.01112,0.0773 0.04863,0.15261 0.03535,0.20784 -0.03149,0.13142 -0.06379,0.18276 -0.165881,0.26924 l 8.97e-4,-0.40612 -0.108948,-0.20247 -0.04324,0.19852 0.02979,0.15096 -0.02306,0.19655 -0.128686,0.0935 -0.463597,0.0861 -0.317372,-0.35187 0.115265,-0.10425 0.205337,-0.0492 0.168142,-0.21115 0.07419,-0.27027 -0.381877,0.27101 -0.158677,0.0333 -0.339496,0.1163 -0.257569,0.32225 -0.57878,-0.17385 -0.303574,-0.16559 -0.270658,-0.2515 -0.985042,-1.19896 -0.574071,-1.22452 -0.347982,-0.97695 -0.07536,-0.9235 0.06163,-1.17157 z"
       style="fill:#ffffff;stroke:none;stroke-width:0.23736821px;stroke-linecap:butt;stroke-linejoin:miter;stroke-opacity:1" />
    <path
       id="path68"
       d="m 22.892246,268.67986 0.897705,0.66348 0.878183,2.04903 0.511172,1.36822 1.123632,1.00248 1.293514,-0.0338 0.801226,0.52952 0.105773,0.77437 -0.287237,1.27833 -0.918815,1.45885 -0.429326,0.83912 1.229423,-0.78058 1.285098,-1.3883 0.800096,-1.81486 -0.03831,-1.04389 -0.663489,-1.13309 -0.7486,-0.61676 -1.56794,-0.66816 -1.144203,0.0234 -1.722832,-1.96091 0.942293,0.50038 0.89208,0.20213 h 1.014755 l 0.468351,0.89769 0.390292,0.58543 1.442726,0.42032 1.582026,-0.0301 1.907552,-0.50246 0.922071,-0.78549 0.897669,0.66349 0.902038,0.36932 1.244566,-0.21319 -0.780583,-0.58544 c 0,0 -0.636817,-0.55617 -0.819618,-0.62447 -0.596006,-0.22271 -1.18723,-0.1652 -1.170875,-0.15612 l -2.068544,-1.20991 -2.146595,-0.58543 -1.092824,0.19514 -0.546403,-0.5464 -1.990493,-0.039 -0.936694,-0.78059 0.468351,-0.66349 1.170875,-0.31224 2.068544,0.42933 0.97573,0.39028 1.2099,-0.15611 1.170875,-0.89768 0.858644,-1.0928 0.351257,-0.35127 1.092815,-0.23418 0.468351,-0.70251 -1.483106,0.35126 -0.07805,0.23417 -0.273206,0.15612 -1.990484,0.15612 -2.26369,0.66349 -2.18563,0.23418 2.497861,-1.17087 1.092815,-1.01477 -3.746796,0.54642 h -1.014755 l 1.678253,-0.93671 0.585437,-1.09281 -1.717287,0.31223 -2.146604,1.36602 -1.053816,1.20991 -0.741522,1.83436 z"
       style="fill:#ffffff;stroke:none;stroke-width:0.23736821px;stroke-linecap:butt;stroke-linejoin:miter;stroke-opacity:1" />
    <path
       id="path72"
       d="m 20.501736,260.70203 -0.167774,0.75071 -0.330515,0.17593 -0.575345,-0.0253 0.05616,0.74893 -0.198187,0.1883 0.102265,0.19885 -0.134562,0.0914 0.101296,0.34153 -0.07563,0.22463 0.291033,0.24664 0.456895,0.20775 0.216022,0.024 -0.02458,0.43853 -0.0314,0.38198 0.406646,0.30226 1.380025,0.14113 0.03983,-0.72175 1.073554,0.008 1.661287,-0.22884 -1.624146,-0.77745 0.640396,0.13226 0.774088,0.0714 0.793592,-0.41809 -2.002433,-0.7932 1.560691,0.34103 1.641389,-0.25284 -2.412992,-0.82223 0.778923,0.1358 0.593342,-0.1647 -1.357104,-1.29064 -1.47374,-0.6608 -1.330584,0.28947 z"
       style="fill:#ffffff;stroke:none;stroke-width:0.23736821px;stroke-linecap:butt;stroke-linejoin:miter;stroke-opacity:1" />
    <path
       id="path74"
       d="m 20.843251,257.96635 0.253684,-2.86865 3.512625,-3.94194 -0.936695,3.04427 -0.643976,2.57592 -0.819618,1.77583 -0.956216,1.0733 z"
       style="fill:#ffffff;stroke:none;stroke-width:0.23736821px;stroke-linecap:butt;stroke-linejoin:miter;stroke-opacity:1" />
    <path
       id="path76"
       d="m 25.390143,251.19478 -0.624463,3.39554 c 0,0 0,1.67826 0,1.83438 0,0.15611 3.902917,-4.37127 3.902917,-4.37127 l 0.195146,-1.95146 0.546402,-2.18563 z"
       style="fill:#ffffff;stroke:none;stroke-width:0.23736821px;stroke-linecap:butt;stroke-linejoin:miter;stroke-opacity:1" />
    <path
       id="path78"
       d="m 31.47869,250.92158 -1.834364,2.2637 -0.624472,0.5464 -0.195146,1.67825 0.117086,1.36602 v 1.71729 l 1.131849,-1.8734 0.897669,-2.18564 0.468352,-2.77106 z"
       style="fill:#ffffff;stroke:none;stroke-width:0.23736821px;stroke-linecap:butt;stroke-linejoin:miter;stroke-opacity:1" />
    <path
       id="path80"
       d="m 28.083159,254.4342 -1.951458,2.26369 -1.20991,1.01477 -1.502619,1.54165 0.956216,0.48786 0.722054,0.83913 0.390292,0.62447 0.682992,-0.44884 1.561167,-1.44408 z"
       style="fill:#ffffff;stroke:none;stroke-width:0.23736821px;stroke-linecap:butt;stroke-linejoin:miter;stroke-opacity:1" />
    <path
       id="path82"
       d="m 30.4249,258.88353 -0.03903,1.67825 -0.663498,1.71729 2.34175,-2.61496 1.639227,-2.69301 1.366021,-2.45884 z"
       style="fill:#ffffff;stroke:none;stroke-width:0.23736821px;stroke-linecap:butt;stroke-linejoin:miter;stroke-opacity:1" />
    <path
       id="path84"
       d="m 27.263541,261.06916 1.043248,0.12555 0.303574,-0.0552 -0.482957,1.36609 1.352286,-0.84174 0.234584,-2.401 -2.538995,1.86285 z"
       style="fill:#ffffff;stroke:none;stroke-width:0.23736821px;stroke-linecap:butt;stroke-linejoin:miter;stroke-opacity:1" />
    <path
       id="path62-4"
       d="m 22.416672,265.399 1.014719,-0.62446 -0.03902,-1.44408 -0.604942,-0.56592 -0.487873,-0.83914 -0.351293,-0.93669 -0.09249,-1.86287 -0.258682,-0.54883 -0.753839,-0.61066 -0.942733,-1.14154 -1.136846,-1.00631 -1.547943,-0.37583 -0.717918,0.13359 -0.194419,0.0949 -0.318942,0.26875 c 0.08451,0.0819 0.146529,0.0293 0.199389,0.0137 0.100489,-0.0295 0.162759,-0.12165 0.211716,-0.10654 l -0.250338,0.25153 -0.154398,0.20791 -0.06702,0.27905 0.08855,0.51004 c -0.0036,-0.0606 0.07796,-0.13299 0.08801,-0.20364 0.01112,-0.0773 -0.04863,-0.15262 -0.03535,-0.20784 0.03149,-0.13141 0.06379,-0.18276 0.165872,-0.26925 l -8.97e-4,0.40614 0.108948,0.20247 0.04324,-0.19852 -0.02978,-0.15096 0.02306,-0.19655 0.128686,-0.0935 0.463597,-0.0861 0.317381,0.35188 -0.115274,0.10424 -0.205337,0.0492 -0.168133,0.21115 -0.07419,0.27027 0.381876,-0.271 0.158677,-0.0333 0.339496,-0.11629 0.257569,-0.32226 0.57878,0.17386 0.303574,0.16559 0.270659,0.2515 0.985041,1.19896 0.574071,1.22452 0.347982,0.97695 0.07536,0.9235 -0.06163,1.17157 z"
       style="fill:#ffffff;stroke:none;stroke-width:0.23736821px;stroke-linecap:butt;stroke-linejoin:miter;stroke-opacity:1" />
  </g>
</svg>
