<?xml version="1.0" encoding="UTF-8" standalone="no"?>
<svg
   xmlns:dc="http://purl.org/dc/elements/1.1/"
   xmlns:cc="http://creativecommons.org/ns#"
   xmlns:rdf="http://www.w3.org/1999/02/22-rdf-syntax-ns#"
   xmlns:svg="http://www.w3.org/2000/svg"
   xmlns="http://www.w3.org/2000/svg"
   id="svg8"
   version="1.1"
   viewBox="0 0 25 25"
   height="25mm"
   width="25mm">
  <defs
     id="defs2" />
  <metadata
     id="metadata5">
    <rdf:RDF>
      <cc:Work
         rdf:about="">
        <dc:format>image/svg+xml</dc:format>
        <dc:type
           rdf:resource="http://purl.org/dc/dcmitype/StillImage" />
        <dc:title></dc:title>
      </cc:Work>
    </rdf:RDF>
  </metadata>
  <g
     transform="translate(0,-272)"
     id="layer1">
    <path
       id="path47"
       d="m 6.4254596,275.6378 c -0.6698694,0.0208 -1.3993834,0.26485 -2.1059179,0.90508 -2.17166,4.8559 -3.4687801,9.86425 -3.85754709,14.23022 1.32195319,3.68915 4.92164909,1.52675 5.46058539,0.23681 l 1.8116486,-3.58854 c 3.0496044,0.56551 6.7740694,0.36859 9.3495994,-0.38538 0.609975,1.90907 1.552633,2.71562 3.010285,4.27042 3.889201,1.37935 4.41792,0.11289 4.565542,-2.35905 0.202351,-3.38843 -3.097086,-8.82534 -4.219412,-11.46176 -0.680698,-2.1517 -4.003485,-1.97557 -4.691406,-1.39558 l -0.243572,0.78116 c -2.093447,-0.257 -4.490416,0.0374 -6.5724,0.25822 L 8.5407009,276.29828 C 8.0495635,275.95334 7.28672,275.61107 6.4254596,275.6378 Z m 11.4042384,3.33032 a 0.67927456,0.77114951 0 0 1 0.679441,0.77142 0.67927456,0.77114951 0 0 1 -0.679441,0.77078 0.67927456,0.77114951 0 0 1 -0.678858,-0.77078 0.67927456,0.77114951 0 0 1 0.678858,-0.77142 z m -10.8897046,0.12976 1.2260239,0.14922 0.070508,0.0519 0.018062,0.12069 -0.1118813,1.48446 1.4771725,0.0351 0.094985,0.0507 0.0437,0.10899 0.00354,1.12568 -0.063515,0.0999 -0.092074,0.0467 -1.4993156,-0.0805 -0.1450949,1.50523 -0.08158,0.1369 -0.1299445,0.0107 -1.0535416,-0.0454 c -0.09336,-0.0401 -0.097294,0.0389 -0.1287793,-0.19852 l 0.0472,-1.43841 -1.5284512,0.0259 -0.1818058,-0.0557 -0.02564,-0.19723 0.063516,-0.93428 0.065846,-0.18165 0.1812232,-0.0545 1.5051427,-0.0253 0.1194556,-1.57207 0.033214,-0.11872 z m 12.7543806,1.67974 a 0.67927456,0.77114951 0 0 1 0.679441,0.77079 0.67927456,0.77114951 0 0 1 -0.679441,0.77142 0.67927456,0.77114951 0 0 1 -0.678858,-0.77142 0.67927456,0.77114951 0 0 1 0.678858,-0.77079 z m -3.556286,0.26667 a 0.67927456,0.77114951 0 0 1 0.679441,0.77142 0.67927456,0.77114951 0 0 1 -0.679441,0.77078 0.67927456,0.77114951 0 0 1 -0.678858,-0.77078 0.67927456,0.77114951 0 0 1 0.678858,-0.77142 z m 2.011518,1.33458 a 0.67927456,0.77114951 0 0 1 0.679442,0.77143 0.67927456,0.77114951 0 0 1 -0.679442,0.77144 0.67927456,0.77114951 0 0 1 -0.67944,-0.77144 0.67927456,0.77114951 0 0 1 0.67944,-0.77143 z"
       style="fill:#ffffff;stroke:none;stroke-width:0.31481341px;stroke-linecap:butt;stroke-linejoin:miter;stroke-opacity:1" />
  </g>
</svg>
