<?xml version="1.0" encoding="UTF-8" standalone="no"?>
<svg
   xmlns:dc="http://purl.org/dc/elements/1.1/"
   xmlns:cc="http://creativecommons.org/ns#"
   xmlns:rdf="http://www.w3.org/1999/02/22-rdf-syntax-ns#"
   xmlns:svg="http://www.w3.org/2000/svg"
   xmlns="http://www.w3.org/2000/svg"
   id="svg151"
   version="1.1"
   viewBox="0 0 50 50"
   height="50mm"
   width="50mm">
  <defs
     id="defs145" />
  <metadata
     id="metadata148">
    <rdf:RDF>
      <cc:Work
         rdf:about="">
        <dc:format>image/svg+xml</dc:format>
        <dc:type
           rdf:resource="http://purl.org/dc/dcmitype/StillImage" />
        <dc:title></dc:title>
      </cc:Work>
    </rdf:RDF>
  </metadata>
  <g
     transform="translate(0,-247)"
     id="layer1">
    <path
       id="path43"
       d="m 13.076145,267.17225 -0.559307,2.25182 0.220936,2.147 c -2.584904,3.14699 -3.8558963,4.72839 -5.1883507,8.45925 l -0.4511603,3.38371 0.2255788,7.33136 3.8348682,-4.62439 1.127903,-3.83487 c 1.015112,-1.54146 2.030224,-3.08293 3.045335,-4.6244 0.374094,-1.50982 0.18863,-2.92639 -0.338371,-4.28602 l 1.240692,0.67674 0.338371,3.49649 1.917433,0.45116 -0.112789,-5.52671 z"
       style="fill:#ffffff;stroke:none;stroke-width:0.2425268px;stroke-linecap:butt;stroke-linejoin:miter;stroke-opacity:1" />
    <path
       id="path45"
       d="m 19.440155,273.52518 -0.119631,4.50614 3.030678,3.26995 -0.398772,-4.98467 -1.024234,-1.40749 z"
       style="fill:#ffffff;stroke:none;stroke-width:0.2425268px;stroke-linecap:butt;stroke-linejoin:miter;stroke-opacity:1" />
    <path
       id="path47"
       d="m 25.302125,274.3626 -2.592027,2.39264 0.438652,3.7086 1.927795,4.26736 2.087308,-3.98539 0.411287,-4.07031 -2.1135,-2.15338 z"
       style="fill:#ffffff;stroke:none;stroke-width:0.2425268px;stroke-linecap:butt;stroke-linejoin:miter;stroke-opacity:1" />
    <path
       id="path49"
       d="m 28.452437,276.23684 -0.07976,3.42945 2.472396,-2.03374 -0.03987,-3.74847 z"
       style="fill:#ffffff;stroke:none;stroke-width:0.2425268px;stroke-linecap:butt;stroke-linejoin:miter;stroke-opacity:1" />
    <path
       id="path53"
       d="m 24.823598,271.53131 -1.355829,1.55522 -0.319019,1.7546 1.914113,-1.55521 z"
       style="fill:#ffffff;stroke:none;stroke-width:0.2425268px;stroke-linecap:butt;stroke-linejoin:miter;stroke-opacity:1" />
    <path
       id="path55"
       d="m 18.203958,256.21841 0.320422,3.75926 0.836021,2.74075 1.69254,1.86857 -0.141454,0.62301 -0.870001,-0.23814 -0.135798,1.68426 0.651034,0.2893 0.253779,1.61077 2.497758,3.53341 1.95399,-2.43253 2.27301,2.63192 2.153376,-3.86811 v -1.03681 l 0.677916,-1.03681 0.299206,-1.43661 -0.45871,-1.51431 -0.677916,0.91717 0.339545,-0.93127 -0.738318,-1.10247 1.399124,-2.51025 c 0.589906,-1.42977 0.733769,-2.91132 0.913763,-4.42841 l -1.941586,2.81609 -1.582136,3.45799 -0.665405,-0.20706 -0.03787,-1.95966 -1.515339,-5.30369 c -0.749723,1.5531 -1.667599,2.74509 -1.79448,5.34358 l -0.09427,2.708 -1.221682,-0.87365 -0.358896,0.8773 c -0.549974,-1.77178 -1.28787,-3.53809 -2.565835,-4.78411 z"
       style="fill:#ffffff;stroke:none;stroke-width:0.2425268px;stroke-linecap:butt;stroke-linejoin:miter;stroke-opacity:1" />
    <path
       id="path57"
       d="m 27.05673,266.42701 -0.478528,0.79755 -0.03988,1.07669 0.797549,0.83742 0.478528,-1.71472 z"
       style="fill:#ffffff;stroke:none;stroke-width:0.2425268px;stroke-linecap:butt;stroke-linejoin:miter;stroke-opacity:1" />
    <path
       id="path59"
       d="m 23.627277,267.02517 -0.598159,0.67792 0.03987,1.15644 0.837426,0.51841 0.199386,-0.55829 -0.119632,-0.99693 z"
       style="fill:#ffffff;stroke:none;stroke-width:0.2425268px;stroke-linecap:butt;stroke-linejoin:miter;stroke-opacity:1" />
    <path
       id="path61"
       d="m 15.851192,260.80431 -1.63497,2.1135 2.048254,1.89398 2.856659,1.45572 -0.119631,-2.71166 -1.67528,-0.99136 z"
       style="fill:#ffffff;stroke:none;stroke-width:0.2425268px;stroke-linecap:butt;stroke-linejoin:miter;stroke-opacity:1" />
    <path
       id="path63"
       d="m 9.9493452,260.56505 2.5122738,2.67177 0.279141,-2.35276 0.75767,0.63804 1.236199,-2.23313 -2.080465,-1.78197 -1.428744,0.58565 0.31902,-1.31595 -1.2362,-2.79142 -0.9570561,-3.23006 -0.4785294,-0.79755 c 0,0 -1.7074734,2.49155 -2.9641989,4.85762 -1.2163349,2.29002 -1.9818962,4.45537 -2.0603484,4.55343 -0.1595067,0.19939 -0.4386501,1.99387 -0.4386501,1.99387 l 0.079757,1.83436 -0.2392624,2.23313 -0.3987746,4.86504 2.2331307,-1.83436 -2.4325175,2.95092 -1.3159524,4.42639 0.6380371,4.34662 -0.3588963,2.23314 0.5184058,3.15031 0.7975473,2.27301 0.5184058,2.79142 0.1196312,1.35583 0.8773021,-1.59509 0.438651,-0.19939 0.039874,-3.90799 -0.079756,-5.30369 -0.1595095,-1.63497 1.6349702,-3.70859 0.039874,-1.2362 1.1963192,-2.31288 0.6380397,-4.66565 2.0736205,-5.42332 z"
       style="fill:#ffffff;stroke:none;stroke-width:0.2425268px;stroke-linecap:butt;stroke-linejoin:miter;stroke-opacity:1" />
    <path
       id="path65"
       d="m 25.849633,271.88124 0.0282,1.1279 0.93052,1.69186 0.394766,-1.43808 -1.381681,-1.2125 z"
       style="fill:#ffffff;stroke:none;stroke-width:0.2425268px;stroke-linecap:butt;stroke-linejoin:miter;stroke-opacity:1" />
    <path
       id="path43-8"
       d="m 36.908054,266.67999 0.791176,2.32344 -0.114434,2.30098 2.859191,2.77881 1.596022,2.46594 0.733137,3.2145 0.45116,3.38371 -0.225579,7.33137 -3.834868,-4.6244 -1.127902,-3.83487 -3.045334,-4.6244 0.33837,-4.28602 -1.240691,0.67674 -0.338371,3.49649 -1.917434,0.45116 0.112789,-5.52671 z"
       style="fill:#ffffff;stroke:none;stroke-width:0.2425268px;stroke-linecap:butt;stroke-linejoin:miter;stroke-opacity:1" />
    <path
       id="path61-3"
       d="m 34.668761,260.21337 1.437587,2.43777 -2.673209,2.54086 -2.231704,0.80884 0.294154,-1.52615 -0.484696,-1.38289 1.892391,-0.45856 z"
       style="fill:#ffffff;stroke:none;stroke-width:0.2425268px;stroke-linecap:butt;stroke-linejoin:miter;stroke-opacity:1" />
    <path
       id="path63-5"
       d="m 40.373224,260.29838 -2.512273,2.67177 -0.27914,-2.35275 -0.715375,0.90591 -1.278495,-2.50101 0.870025,-1.11757 1.323231,-1.11556 1.315953,1.03681 -0.31902,-1.31595 1.236198,-2.79142 0.957057,-3.23006 0.478529,-0.79755 c 1.756853,3.82927 4.045394,6.4215 5.350408,10.16423 l 0.03303,3.07505 0.239263,2.23313 0.398774,4.86505 -2.233131,-1.83436 2.432518,2.95092 1.315952,4.42639 -0.638037,4.34663 0.358897,2.23313 -0.518406,3.15031 -0.797548,2.27301 -0.518405,2.79142 -0.119632,1.35583 -0.877302,-1.59509 -0.438651,-0.19939 -0.03987,-3.90799 0.07976,-5.30369 0.15951,-1.63497 -1.634971,-3.70859 -0.03987,-1.23619 -1.196319,-2.31289 -0.63804,-4.66566 -2.073621,-5.42332 z"
       style="fill:#ffffff;stroke:none;stroke-width:0.2425268px;stroke-linecap:butt;stroke-linejoin:miter;stroke-opacity:1" />
    <path
       id="path57-6"
       d="m 25.071787,264.1844 -0.638037,0.73772 -0.03988,1.07669 0.77761,0.67791 0.605163,-0.63488 -0.02694,-1.11972 z"
       style="fill:#ffffff;stroke:none;stroke-width:0.2425268px;stroke-linecap:butt;stroke-linejoin:miter;stroke-opacity:1" />
    <path
       id="path57-6-2"
       d="m 25.241969,276.36258 -0.638037,0.73772 -0.03988,1.07669 0.77761,0.67791 0.605163,-0.63488 -0.02694,-1.11972 z"
       style="fill:#ffffff;stroke:none;stroke-width:0.2425268px;stroke-linecap:butt;stroke-linejoin:miter;stroke-opacity:1" />
    <path
       id="path143"
       d="m 25.095927,252.44613 h -2.552151 l -1.076688,-0.15951 v -0.75767 l -0.279141,0.5184 -1.595095,-0.47853 0.558283,-0.71779 0.996936,-0.19938 1.555215,-0.11963 -0.07976,1.51533 0.598162,-1.47546 0.119631,-1.15644 -0.598159,0.47853 -2.233133,0.47852 -0.757668,0.15952 -0.47853,0.75767 -0.03987,-0.99694 -0.199387,2.23313 0.438651,-0.59816 1.595095,0.63804 0.159509,0.79755 0.398773,-0.43865 1.116566,0.31902 1.874236,-0.15952 h 0.558282 0.239265 l 0.03987,-0.67791 z"
       style="fill:#ffffff;stroke:none;stroke-width:0.2425268px;stroke-linecap:butt;stroke-linejoin:miter;stroke-opacity:1" />
    <path
       id="path143-6"
       d="m 25.454822,252.40625 h 2.552151 l 1.076688,-0.1595 v -0.75767 l 0.279141,0.5184 1.595094,-0.47853 -0.558282,-0.71779 -0.996936,-0.19939 -1.555215,-0.11963 0.07976,1.51534 -0.598161,-1.47546 -0.119631,-1.15644 0.598158,0.47853 2.233134,0.47852 0.757668,0.15951 0.47853,0.75768 0.03987,-0.99695 0.199387,2.23314 -0.438651,-0.59816 -1.595095,0.63803 -0.159509,0.79755 -0.398773,-0.43865 -1.116567,0.31902 -1.874235,-0.15951 h -0.558282 -0.239265 l -0.03987,-0.67791 z"
       style="fill:#ffffff;stroke:none;stroke-width:0.2425268px;stroke-linecap:butt;stroke-linejoin:miter;stroke-opacity:1" />
  </g>
</svg>
