<?xml version="1.0" encoding="UTF-8" standalone="no"?>
<svg
   xmlns:dc="http://purl.org/dc/elements/1.1/"
   xmlns:cc="http://creativecommons.org/ns#"
   xmlns:rdf="http://www.w3.org/1999/02/22-rdf-syntax-ns#"
   xmlns:svg="http://www.w3.org/2000/svg"
   xmlns="http://www.w3.org/2000/svg"
   id="svg151"
   version="1.1"
   viewBox="0 0 50 50"
   height="50mm"
   width="50mm">
  <defs
     id="defs145" />
  <metadata
     id="metadata148">
    <rdf:RDF>
      <cc:Work
         rdf:about="">
        <dc:format>image/svg+xml</dc:format>
        <dc:type
           rdf:resource="http://purl.org/dc/dcmitype/StillImage" />
        <dc:title></dc:title>
      </cc:Work>
    </rdf:RDF>
  </metadata>
  <g
     transform="translate(0,-247)"
     id="layer1">
    <path
       id="path178"
       d="m 21.139946,268.17008 c -1.058101,1.34397 -2.303282,2.93104 -2.622057,4.96447 -0.389842,1.26139 0.08323,2.1101 0.186923,3.13544 0.246475,1.65388 0.489284,3.23453 1.412259,4.1948 l 0.257772,0.74635 -0.832221,0.78032 -0.431365,2.10641 -0.929772,2.28982 -0.516129,1.88233 -0.129444,-3.10567 -0.544197,-1.6301 -1.073264,-1.54197 c 0.359615,1.31908 0.677082,3.9449 0.968439,7.37993 0,0 0.108741,4.05942 0.181224,4.34937 0.07248,0.28996 4.313134,-9.67735 4.313134,-9.67735 l 0.686296,-2.13995 c 0.233279,-0.80595 0.759322,-1.60506 0.259723,-2.47552 l -0.283717,-2.92398 -0.127861,-1.80962 -0.0083,-1.61443 0.201361,-0.15034 0.188264,-0.0309 0.197887,0.23091 0.15533,2.68624 0.877918,2.98012 c 0.0091,0.78066 0.182224,1.44653 0.533049,1.988 1.137583,1.29268 0.515762,10.12729 1.723628,12.85131 l 0.698519,-3.79945 2.110627,-4.53012 2.138222,-3.38283 -2.302108,2.02263 -1.795194,3.20763 0.170627,-5.40847 c 0.321316,-1.58658 -0.135993,-2.22331 -0.927673,-3.08853 l -0.340462,-2.17393 0.519828,-3.71091 c 0.06532,-0.74318 -0.764145,-2.20709 -0.960083,-3.10454 -0.232961,-1.06702 -0.193212,-1.40297 -0.101601,-2.07376 0.05091,-0.65491 0.371555,-0.78657 0.672675,-1.11362 0.325457,-0.18505 0.583596,-0.0818 0.928482,-0.9186 l 0.07498,-0.46918 c 0.308244,-0.10724 0.155972,-0.26944 0.664035,0.0413 0.390775,0.42329 1.045379,0.82507 1.582336,0.96025 0.879959,0.28187 0.814125,0.39945 1.316181,0.62315 1.305285,0.58159 2.793709,0.42489 3.841196,0.77891 0.285841,0.0491 0.836444,0.27731 1.056509,0.12903 l 0.267096,0.173 0.254056,0.11736 0.293864,0.11418 0.337838,0.078 -0.15049,-0.16927 -0.231962,-0.10766 -0.27476,-0.21307 -0.157197,-0.1363 0.06565,-0.0779 0.276385,0.0945 0.33068,0.17313 0.267995,0.0758 0.344986,-0.10647 -0.107775,-0.10623 -0.206851,-0.012 -0.246726,-0.10916 -0.476962,-0.18581 0.05407,-0.15534 0.372979,0.0801 0.225789,0.0485 0.313734,0.006 0.246409,-0.0456 0.182757,-0.21731 -0.191405,-0.007 -0.245251,0.0377 -0.216707,-0.0142 -0.236611,-0.0276 -0.472314,-0.055 0.02866,-0.16718 0.346818,-0.0354 0.461317,-0.11471 0.283816,-0.10212 0.235278,-0.22504 0.07198,-0.21779 -0.335087,0.19474 -0.266504,0.0726 -0.398823,0.0761 -0.384518,0.007 -0.398739,-0.007 -0.159104,-0.0901 0.06965,-0.0916 0.139825,-0.1297 0.218682,-0.18931 0.106683,-0.28626 -0.271819,0.0716 -0.334438,0.25221 -0.282358,0.13314 -0.408679,0.25926 -0.409879,0.1461 -0.509321,0.0731 c -0.473889,-0.044 -0.906412,-0.32478 -1.43942,-0.54891 -0.233861,-0.0983 -0.922691,-0.64068 -1.522824,-0.56087 -1.468713,-0.39389 -1.530423,-1.03153 -2.598397,-1.71396 -0.245875,-0.28734 -0.433697,-0.48047 -0.650796,-0.59686 -0.390833,-0.2095 -0.755047,-0.29841 -1.380017,-0.11223 l -0.04466,-0.43132 -0.08763,-0.73035 0.315217,-1.25905 0.510938,-0.80768 0.576406,-0.70345 c 1.325571,-1.77745 5.219554,-3.33361 7.465875,-5.53833 -2.510826,1.03626 -6.360036,1.21233 -8.562775,4.752 1.524116,-2.28593 2.506718,-5.77242 2.827884,-8.56486 -1.752179,2.66151 -3.96355,7.04634 -3.903631,7.28052 0.678399,-2.50594 -0.02333,-4.82369 -0.821206,-7.12833 -0.311677,3.02665 0.688154,6.30702 -1.154137,7.56327 -0.706325,-1.72163 -1.728234,-0.70492 -2.31967,-5.14676 l -2.147852,-2.39534 c 0.62791,2.60784 0.768902,5.05294 3.821783,7.53953 0.446478,0.83721 -0.641049,0.86692 -0.0017,1.27865 0.148299,0.52277 -0.249974,1.26326 -0.09073,1.70732 0.08006,0.20368 0.437813,0.37488 0.343419,0.65609 -0.09062,0.27802 -0.392491,0.41973 -0.313659,0.47423 0.02824,0.0196 0.184539,0.0771 0.309027,0.10555 l 0.161028,0.0495 -0.06623,0.19728 0.174567,0.046 -0.03374,0.0894 0.125996,0.0611 -0.04674,0.27443 0.06648,0.11773 c 0.607665,0.0604 0.719855,-0.12598 1.13944,-0.33054 l -0.01075,0.22803 -0.150339,0.33968 -0.471181,0.31714 -0.613755,-0.3371 c -1.178131,-0.53161 -1.579145,0.30583 -2.414415,0.99738 0,0 -1.366012,0.80051 -2.385113,0.78403 -1.671548,-0.64787 -3.215118,-0.35611 -4.208867,-0.47041 -0.565559,0.0343 -0.873528,-0.0196 -1.510094,-0.42977 l -0.230654,-0.11634 -0.350185,-0.10368 -0.416285,-0.18058 0.03333,0.16916 0.110499,0.0831 0.344002,0.20451 -0.198578,-0.0381 -0.435231,-0.0152 -0.47638,-0.05 -0.335962,-0.0439 -0.228655,-0.0958 -0.4413206,0.0576 0.2186816,0.14514 0.506864,0.12 0.398181,0.085 0.302487,0.0171 -0.225463,0.0939 -0.351084,0.0585 -0.292914,-0.0159 -0.348102,-0.13812 -0.3671466,-0.0272 0.3466266,0.2571 0.517028,0.17514 0.410412,-0.009 0.207276,0.0719 -0.05949,0.13436 -0.232612,0.0398 -0.369879,0.014 -0.342145,-0.10048 -0.3117596,-0.0534 0.2946886,0.26859 0.425133,0.15598 0.296006,0.003 0.244667,-0.0107 0.05349,0.0567 -0.258398,0.14244 -0.215441,0.0672 -0.387858,0.0985 0.297021,0.11161 0.359649,-0.0671 0.344535,-0.0509 0.514771,-0.10912 0.961757,-0.0125 1.242832,0.0287 c 1.064457,0.27753 2.634313,0.95928 3.723015,1.00533 0.988608,0.0418 1.863527,-0.58967 2.771022,-0.96052 0.558252,-0.25543 0.955958,-0.31582 1.305926,-0.33967 l 0.545663,-0.42045 -0.545663,0.42045 c -0.09329,0.49424 -0.06074,0.66812 0.259638,1.0117 -0.118313,0.43288 0.09973,0.69267 -0.02958,1.0567 -0.137701,0.38772 -0.575631,1.09636 -0.886924,1.41612 z"
       style="fill:#ffffff;stroke:none;stroke-width:0.22043417px;stroke-linecap:butt;stroke-linejoin:miter;stroke-opacity:1" />
    <path
       id="path180"
       d="m 25.858751,273.93043 0.19807,-1.15833 c 5.041421,-0.71227 3.597995,1.54768 5.390847,2.32434 l 1.518384,-0.76651 c 1.238975,-4.69591 12.76531,-1.7908 13.242856,1.05179 l 2.102196,0.86988 c 1.377626,5.99937 -1.56788,9.044 -4.494349,12.03326 -2.209122,1.53535 -4.554802,2.23459 -7.103977,2.89959 -3.598502,1.00179 -7.275778,1.68002 -10.928326,2.45164 3.08549,-4.45985 6.976499,-4.39378 11.580731,-6.72853 2.833791,-1.24118 4.101984,-2.49643 5.074263,-5.29173 l -1.087336,-1.59477 c -2.351521,-3.71096 -3.477889,-7.733 -8.194836,-4.37765 -3.095804,2.66076 -3.198047,-3.70552 -7.298523,-1.71298 z"
       style="fill:#ffffff;stroke:none;stroke-width:0.22043417px;stroke-linecap:butt;stroke-linejoin:miter;stroke-opacity:1" />
    <path
       id="path182"
       d="m 17.21308,293.72158 c 0,0 -5.255496,-2.82709 -6.125374,-3.18954 -11.65462975,-5.65077 -11.47941265,-14.41249 -7.2127093,-16.6726 3.6636117,-1.89948 4.0587357,-1.72346 7.9051623,-0.7043 2.245913,1.23266 4.491817,0.12589 6.73773,-0.0206 -2.255419,0.63902 -3.68844,2.37457 -6.971891,1.64289 -1.436054,-0.14365 -2.5102756,-1.01098 -4.4633316,-0.12062 -2.733623,1.42368 -2.7851942,6.09157 -1.2504474,7.90137 2.2240674,3.62675 7.79019,5.43253 9.061199,6.45157 -2.180353,1.37516 -2.132565,1.20845 2.319662,4.71182 z"
       style="fill:#ffffff;stroke:none;stroke-width:0.22043417px;stroke-linecap:butt;stroke-linejoin:miter;stroke-opacity:1" />
    <path
       id="path184"
       d="m 22.722307,262.11614 c -3.41318,-3.07543 -5.258095,-4.14155 -9.351172,-5.58171 -4.0556616,-0.0993 -5.1515866,1.39123 -7.538916,3.98693 -1.487208,2.90543 -1.6622834,5.44094 -0.5799134,7.72014 4.6367158,0.16108 9.0588904,3.0137 13.2655834,4.89305 C 14.637803,272.42272 -3.4262835,272.29076 2.7876528,263.63841 -0.65026245,251.9897 13.876132,247.786 19.822707,257.76676 Z"
       style="fill:#ffffff;stroke:none;stroke-width:0.22043417px;stroke-linecap:butt;stroke-linejoin:miter;stroke-opacity:1" />
    <path
       id="path186"
       d="m 25.96316,262.97359 c 2.526155,-2.06804 4.49275,-3.34469 6.56847,-5.61227 7.579314,-8.27989 20.251479,-4.98604 11.865038,7.14697 -6.44015,7.42818 -8.932288,7.1418 -18.339847,8.26381 2.317246,-0.53514 2.139022,-2.11082 6.072678,-2.7754 1.73994,-0.29395 5.469462,-0.17725 5.469462,-0.17725 6.716426,-3.16305 5.419932,-13.25615 -2.118509,-11.36404 -2.350413,0.65615 -7.35356,3.31383 -9.517292,4.51818 z"
       style="fill:#ffffff;stroke:none;stroke-width:0.22043417px;stroke-linecap:butt;stroke-linejoin:miter;stroke-opacity:1" />
    <path
       id="path205"
       d="m 25.858751,273.93043 c 2.503111,2.04277 1.430538,1.6109 4.78384,5.9037 2.777288,2.43558 0.44567,2.38034 1.510578,3.33385 -1.361638,-0.20041 0.422525,-0.74957 -2.373849,-2.32341 -1.703058,-2.20748 -3.036477,-5.1827 -3.920569,-6.91414 z"
       style="fill:#ffffff;stroke:none;stroke-width:0.22043417px;stroke-linecap:butt;stroke-linejoin:miter;stroke-opacity:1" />
    <path
       id="path205-4"
       d="m 19.543047,272.31443 c -3.278111,3.14803 -3.361058,12.81923 -10.3753886,8.4694 2.4697846,0.0582 2.1898166,1.06659 5.4911396,-2.25785 l 1.408276,-1.74343 c 1.410652,-2.12307 2.531221,-3.27345 3.475973,-4.46812 z"
       style="fill:#ffffff;stroke:none;stroke-width:0.15904722px;stroke-linecap:butt;stroke-linejoin:miter;stroke-opacity:1" />
  </g>
</svg>
