<?xml version="1.0" encoding="UTF-8" standalone="no"?>
<svg
   xmlns:dc="http://purl.org/dc/elements/1.1/"
   xmlns:cc="http://creativecommons.org/ns#"
   xmlns:rdf="http://www.w3.org/1999/02/22-rdf-syntax-ns#"
   xmlns:svg="http://www.w3.org/2000/svg"
   xmlns="http://www.w3.org/2000/svg"
   id="svg151"
   version="1.1"
   viewBox="0 0 50 50"
   height="50mm"
   width="50mm">
  <defs
     id="defs145" />
  <metadata
     id="metadata148">
    <rdf:RDF>
      <cc:Work
         rdf:about="">
        <dc:format>image/svg+xml</dc:format>
        <dc:type
           rdf:resource="http://purl.org/dc/dcmitype/StillImage" />
        <dc:title></dc:title>
      </cc:Work>
    </rdf:RDF>
  </metadata>
  <g
     transform="translate(0,-247)"
     id="layer1">
    <path
       id="path90"
       d="m 10.596164,283.51197 6.408635,-4.14677 1.351952,-0.35645 4.043551,-2.65938 3.84047,-2.02626 2.638849,1.6964 2.544601,2.02627 1.932022,1.13093 0.471216,0.84821 0.0471,0.80107 0.282731,0.8482 1.413671,0.47123 c 1.274197,0.78329 1.919247,1.53005 2.403237,2.87445 l -0.153142,0.73041 -0.176715,0.35341 0.684909,0.49124 1.388478,0.45121 c 2.136372,0.0751 2.718579,-0.44018 3.298558,-2.30902 l -0.895321,0.65972 -0.801081,0.14136 -2.403238,-0.65971 -0.848201,-1.55504 -2.356118,-3.76978 -0.47122,-1.17806 -1.46079,-1.41366 -3.062953,-3.1572 -1.036691,-1.08381 1.225181,-0.32986 1.225176,-0.98956 0.801082,-0.14138 1.837767,1.83778 0.895328,0.75396 0.809875,-0.18171 0.2363,-0.15653 1.35706,-1.46996 c 0.449231,-0.60255 0.803335,-1.26491 1.178062,-1.91447 l 0.848199,-0.8482 0.02487,-0.36515 -0.496081,-0.67155 -0.440365,-0.39428 -0.407836,-0.2183 -0.448238,0.75537 -0.193065,-0.10103 -0.365941,0.50015 0.478442,0.57523 c -0.241232,1.35199 -0.908424,1.69162 -1.813024,2.09576 l -0.584983,0.86486 -1.644054,-1.91013 -0.02129,-0.86613 -0.393742,-0.7032 0.605789,-0.29496 0.37234,0.1822 0.711572,0.54546 0.467557,-0.58532 0.304045,-0.26811 0.571185,-0.31842 -0.364832,-0.65061 0.07653,-0.4638 0.330473,-0.23751 0.214837,-0.58058 -0.02886,-0.65658 -0.489489,-0.66285 -0.780055,-0.58995 -1.010594,-0.30538 -1.293712,0.0779 -0.779668,0.62892 -0.318074,0.65972 0.04882,0.4707 0.22827,0.42331 -0.0085,0.36734 -0.615451,0.40172 -0.853917,-0.0419 -0.405813,-0.15408 -0.713691,0.10104 -2.25993,-0.59937 -0.928706,0.0187 -1.585102,1.58539 -1.043944,0.5582 -0.347746,0.11829 -1.199452,0.49596 -0.584815,0.43664 -0.34432,0.71904 0.459442,0.71863 0.728863,0.36031 0.584902,-0.30394 0.2428,-0.29234 -0.2428,0.29234 0.262116,0.28358 0.811042,-0.72871 0.54644,-1.0367 0.942447,-0.8482 1.305623,-1.32111 1.279805,0.82619 0.694105,0.17315 0.490252,0.32177 -0.565469,1.03669 -1.366547,0.94245 -1.979136,0.47122 -0.942447,0.47122 -0.612589,0.56547 -0.18849,0.51834 -2.120503,1.08382 -2.073382,1.36655 -0.895325,1.17806 -1.083813,0.80107 -0.966008,-0.21205 -0.730395,0.21205 -2.591727,2.78022 -0.471222,0.56547 -0.942449,0.70683 -0.565467,0.23561 c -0.28725,-0.51705 -0.482899,-0.57292 -1.036689,-0.4477 -0.658569,0.48626 -0.9844167,1.11604 -1.3665488,1.81421 l -0.094244,0.1885 c -0.4102106,0.93628 -0.3613564,1.81153 -0.3298589,2.80378 l 0.6431034,-1.04274 z"
       style="fill:#ffffff;stroke:none;stroke-width:0.20264924px;stroke-linecap:butt;stroke-linejoin:miter;stroke-opacity:1" />
    <path
       id="path92"
       d="m 10.973143,265.84109 2.474196,1.36575 1.711796,0.65155 1.822102,0.0796 1.420065,-1.30183 1.666447,-0.96003 2.285432,-0.65971 -3.510613,-1.1545 c -3.42672,-1.06477 -4.756811,-2.14083 -7.398203,-4.33523 l 1.145144,2.25282 1.146913,1.30449 c 0.536122,0.49254 2.123254,1.42278 2.832925,1.63285 l -1.543687,0.27603 2.261873,1.0367 -1.060253,-0.0707 -1.767087,-0.87176 -1.837771,0.0943 -4.2410069,-0.49478 z"
       style="fill:#ffffff;stroke:none;stroke-width:0.20264924px;stroke-linecap:butt;stroke-linejoin:miter;stroke-opacity:1" />
    <path
       id="path94"
       d="m 10.973142,258.25441 h 1.884894 c 2.031733,0.42838 3.61213,1.43655 5.313387,2.5446 l 1.631723,0.92628 3.048336,1.95921 2.42022,-0.10763 -3.554672,-2.82498 c -3.455897,-2.09008 -7.388397,-4.34353 -10.743888,-2.49748 z"
       style="fill:#ffffff;stroke:none;stroke-width:0.20264924px;stroke-linecap:butt;stroke-linejoin:miter;stroke-opacity:1" />
    <path
       id="path96"
       d="m 18.748324,255.47419 2.167626,2.21475 1.649281,1.55503 1.130935,1.41367 1.932015,2.35612 1.366547,0.70684 1.377587,0.44982 1.981899,-0.23324 1.431808,-0.19113 1.322569,0.11006 0.401787,-0.17364 0.955894,0.0244 -0.71683,-0.5586 -1.106418,-0.24372 -2.537308,0.25554 -1.832562,-0.0914 -1.716597,-0.73924 -2.505406,-2.5246 -2.192755,-1.97442 z"
       style="fill:#ffffff;stroke:none;stroke-width:0.20264924px;stroke-linecap:butt;stroke-linejoin:miter;stroke-opacity:1" />
    <path
       id="path98"
       d="m 4.7058759,269.56376 2.1205041,0.18849 3.722662,0.35342 2.214749,-0.0236 -0.989569,1.46079 2.167627,-1.79065 2.63885,-1.36654 -1.717105,-0.13267 -1.958435,-0.57417 -2.214751,-1.08381 -3.6519773,-1.43723 0.2529905,1.8818 4.8375588,1.51182 1.555836,0.58036 -1.737557,-0.20645 -3.0725389,-0.90985 -5.9512696,-1.43818 z"
       style="fill:#ffffff;stroke:none;stroke-width:0.20264924px;stroke-linecap:butt;stroke-linejoin:miter;stroke-opacity:1" />
    <path
       id="path100"
       d="m 18.159295,267.70243 -2.733095,1.88489 -3.322121,2.47392 4.641547,-2.09694 2.191187,-0.63616 -2.709532,1.60217 -1.719966,0.8482 -1.767085,0.94244 -2.473922,1.50791 3.958275,-1.15448 3.439928,-1.53148 1.013129,-0.61259 1.20162,-1.0367 1.951636,-0.73289 0.333203,-0.48313 1.266179,-0.41651 c 0.925256,-0.26695 1.590494,-0.71094 2.182494,-1.28285 l -2.715622,-0.14994 c -1.392083,-0.0491 -2.681262,0.28365 -4.015119,0.61643 z"
       style="fill:#ffffff;stroke:none;stroke-width:0.20264924px;stroke-linecap:butt;stroke-linejoin:miter;stroke-opacity:1" />
    <path
       id="path102"
       d="m 26.860269,265.88103 1.118403,0.0444 2.01358,0.605 0.63511,-0.063 0.966442,-0.13899 0.733439,-0.0341 -0.25439,-0.57804 -0.05111,-0.49098 -1.211248,0.0884 -1.237322,0.0571 1.219963,-0.29891 1.202109,-0.0841 0.14591,-0.29798 0.552232,-0.51063 -0.968197,-0.0499 -3.328128,0.46515 -1.831874,-0.49325 -2.718395,0.24489 2.2269,0.80826 -0.963654,0.53066 -2.179561,-0.35598 -1.399459,0.46649 -1.282841,0.4998 -1.116236,0.66642 c 2.757991,-1.17224 5.024012,-0.0892 7.728335,-1.08085 z"
       style="fill:#ffffff;stroke:none;stroke-width:0.20264924px;stroke-linecap:butt;stroke-linejoin:miter;stroke-opacity:1" />
    <path
       id="path104"
       d="m 14.650325,282.32233 c 0.966783,-0.64533 1.593243,-1.36628 3.065487,-1.89927 1.183027,0.65139 1.897306,1.94265 3.432012,2.09919 l -0.603812,0.16493 0.670452,0.30155 c 4.552195,1.32221 5.964547,-0.28202 9.029859,-2.76561 l 0.266562,-0.69972 0.901044,0.22911 0.66,0.47397 0.304904,1.46274 -1.066259,-0.26656 c -4.846579,4.39684 -10.711732,3.13817 -14.227852,1.13291 l -1.399462,-0.49982 z"
       style="fill:#ffffff;stroke:none;stroke-width:0.20264924px;stroke-linecap:butt;stroke-linejoin:miter;stroke-opacity:1" />
    <path
       id="path106"
       d="m 35.808844,276.89108 2.099191,1.99924 c 2.607578,0.0836 4.506619,-0.37056 6.830706,-1.09958 0.608807,-0.23856 1.256046,-0.20385 1.899271,-0.23325 -1.62927,-0.60239 -3.221536,-0.86844 -4.931435,-0.93296 0.74731,0.54793 1.276621,0.92024 0.399847,1.39946 -0.901964,0.22336 -1.793426,0.25978 -2.765608,0.13328 -1.177324,-0.28069 -2.354648,-0.84413 -3.531972,-1.26619 z"
       style="fill:#ffffff;stroke:none;stroke-width:0.20264924px;stroke-linecap:butt;stroke-linejoin:miter;stroke-opacity:1" />
    <path
       id="path108"
       d="m 36.175369,274.0755 0.711135,-0.25667 0.338465,-0.37642 c 0.728425,0.62067 1.481322,0.54433 2.382416,0.78303 3.470874,0.87224 6.111529,1.81378 9.596195,1.94202 -3.721721,0.19223 -6.37717,-1.00018 -9.729479,-1.34225 -1.056701,-0.0163 -1.891557,-0.19534 -2.898886,-0.48315 z"
       style="fill:#ffffff;stroke:none;stroke-width:0.20264924px;stroke-linecap:butt;stroke-linejoin:miter;stroke-opacity:1" />
    <path
       id="path110"
       d="m 12.005794,280.41901 0.802776,-0.47512 0.937077,-1.02263 c -1.314519,0.19715 -3.039012,0.89939 -4.3266415,0.53551 l 2.1491715,-0.51647 c -3.1097244,-0.39744 -5.2661462,-0.15149 -7.1472479,1.44944 l -0.549787,0.48315 -2.7656035,1.716 1.9325914,-0.76637 c 2.1959226,-1.03376 3.4947945,-1.68112 5.7144652,-1.24951 l -0.4165049,-0.38319 -0.049984,-0.31654 0.6164287,-0.0333 0.949635,0.2499 z"
       style="fill:#ffffff;stroke:none;stroke-width:0.20264924px;stroke-linecap:butt;stroke-linejoin:miter;stroke-opacity:1" />
    <path
       id="path112"
       d="m 7.533214,282.56952 -1.1073748,2.09694 c -0.3763945,0.82604 -0.286082,1.50472 0.7303967,1.97914 l 0.9424465,0.42409 -2.202969,0.0589 c -2.0921453,-1.39707 0.3388376,-3.49405 1.6375006,-4.5591 z"
       style="fill:#ffffff;stroke:none;stroke-width:0.20264924px;stroke-linecap:butt;stroke-linejoin:miter;stroke-opacity:1" />
    <path
       id="path114"
       d="m 12.080518,283.46484 -1.013131,2.0027 c 1.317712,0.98994 3.426222,0.74527 5.324822,1.13093 -2.30114,-0.0707 -6.9910777,0.6549 -6.9034191,-0.21205 l 0.3298559,-0.54191 c 0.6081692,-0.92077 1.4711182,-1.62141 2.2618722,-2.37967 z"
       style="fill:#ffffff;stroke:none;stroke-width:0.20264924px;stroke-linecap:butt;stroke-linejoin:miter;stroke-opacity:1" />
  </g>
</svg>
