<?xml version="1.0" encoding="UTF-8" standalone="no"?>
<svg
   xmlns:dc="http://purl.org/dc/elements/1.1/"
   xmlns:cc="http://creativecommons.org/ns#"
   xmlns:rdf="http://www.w3.org/1999/02/22-rdf-syntax-ns#"
   xmlns:svg="http://www.w3.org/2000/svg"
   xmlns="http://www.w3.org/2000/svg"
   width="50mm"
   height="50mm"
   viewBox="0 0 50 50"
   version="1.1"
   id="svg151">
  <defs
     id="defs145" />
  <metadata
     id="metadata148">
    <rdf:RDF>
      <cc:Work
         rdf:about="">
        <dc:format>image/svg+xml</dc:format>
        <dc:type
           rdf:resource="http://purl.org/dc/dcmitype/StillImage" />
        <dc:title></dc:title>
      </cc:Work>
    </rdf:RDF>
  </metadata>
  <g
     id="layer1"
     transform="translate(0,-247)">
    <path
       style="fill:#ffffff;stroke:none;stroke-width:0.1866966px;stroke-linecap:butt;stroke-linejoin:miter;stroke-opacity:1"
       d="m 3.9299003,293.03801 c 1.0878726,-3.06624 1.4061663,-4.50284 3.569881,-6.70221 1.3171306,-2.44889 1.3238426,-4.72478 4.4405777,-6.25674 l 0.737143,-0.91565 2.78638,-2.02909 2.651671,-2.75385 -1.014233,-1.64685 1.866966,-3.06716 2.80045,0.13335 -0.100525,1.09246 1.300719,0.70782 c 1.90953,-0.47814 3.1866,0.70424 3.60058,3.13384 l -0.01059,0.74931 c 0.701746,2.03016 1.096036,4.16999 1.861186,5.86282 1.559119,-0.75872 2.576897,0.35312 3.323573,1.53638 l 1.363975,3.317 1.32976,2.53675 0.400064,3.2005 -1.866966,0.93348 c -0.762812,-0.0579 -0.668972,-0.23601 -0.757869,-0.36936 l 0.798135,-1.6176 -0.09208,-1.57713 -1.281722,-1.50338 -1.66165,-2.33421 -1.016008,-1.40351 -1.043281,-0.006 -0.946474,-0.38996 c -0.301245,-1.20647 -1.21041,-2.24177 -2.155522,-3.36272 -0.62957,-0.7467 -0.937038,-1.67472 -1.535701,-2.46512 l -0.544434,-0.4781 -1.961053,0.0191 -2.816964,2.34515 c -1.121294,0.64315 -2.3163,1.09116 -3.52167,1.54127 -0.689716,0.896 -1.390325,1.34586 -2.400386,1.73361 l -3.8672859,3.86728 c -0.6401305,1.38461 -1.1218922,2.8225 -1.6002574,4.26736 l -0.4010716,1.53463 -1.0658283,0.33235 z"
       id="path22" />
    <path
       style="fill:#ffffff;stroke:none;stroke-width:0.1866966px;stroke-linecap:butt;stroke-linejoin:miter;stroke-opacity:1"
       d="m 34.437435,288.73619 0.830175,-1.55525 c 0.899597,-2.55802 -0.546381,-4.96463 -1.366883,-7.4777 l 2.933182,3.9791 c 1.631092,2.80874 -1.50543,7.86256 -1.462993,6.98748 0.41014,-0.80895 2.53374,-0.73345 2.53374,-0.73345 l -3.067159,2.00032 1.939933,-0.24019 3.127548,0.17352 c -1.515792,0.21862 -3.689255,0.90421 -4.62412,0.8861 l -2.310326,0.1141 0.97512,-0.75739 0.327478,-0.97924 z"
       id="path24" />
    <path
       style="fill:#ffffff;stroke:none;stroke-width:0.1866966px;stroke-linecap:butt;stroke-linejoin:miter;stroke-opacity:1"
       d="M 3.9299003,293.03801 C 2.6495965,287.96032 2.6114956,282.73372 6.099712,279.31548 l 0.037828,5.32567 c -2.2769579,1.58999 -1.9348335,4.56155 -1.8273528,7.31558 z"
       id="path26" />
    <path
       style="fill:#ffffff;stroke:none;stroke-width:0.1866966px;stroke-linecap:butt;stroke-linejoin:miter;stroke-opacity:1"
       d="m 5.0993963,293.00353 c 1.7359897,-1.49528 3.6413516,-2.27944 5.7496177,-3.03621 -0.814892,1.07571 -1.7107874,1.72694 -2.8824918,2.30277 1.6174931,-0.33424 2.7059238,0.0945 4.1742928,0.67611 z"
       id="path28" />
    <path
       style="fill:#ffffff;stroke:#ffffff;stroke-width:0.1866966px;stroke-linecap:butt;stroke-linejoin:miter;stroke-opacity:1"
       d="m 17.234674,271.20003 -0.353688,0.68139 c 0.629089,0.19515 1.042276,2.16281 2.85358,0.41108 l 1.933643,-1.40023 1.489737,-1.04905 0.102958,-1.99917 -2.872255,0.0168 c -0.587315,-0.40262 -1.176437,-0.789 -1.820421,-0.68161 -0.703339,0.10518 -1.130824,0.46069 -1.666934,0.88694 -0.668812,0.55569 -1.052783,1.34741 -0.948181,1.87739 0.10418,0.52785 0.694425,0.79415 1.281568,1.25644 z"
       id="path30" />
    <path
       style="fill:#ffffff;stroke:none;stroke-width:0.1866966px;stroke-linecap:butt;stroke-linejoin:miter;stroke-opacity:1"
       d="m 16.834612,274.73393 1.466899,5.0008 0.707041,2.96351 -0.330478,0.96503 -0.04316,1.07227 -0.474603,2.55556 -0.935321,4.53469 0.68077,-0.83648 1.526987,-3.83753 0.402356,-0.81598 1.339825,-2.29774 -0.06756,-1.18887 0.863454,-1.7942 1.131467,-2.58715 0.283744,-2.08491 c -0.117144,-0.68655 -0.101495,-0.70919 -0.351419,-2.05962 l 0.734447,-1.32299 0.0614,-0.79813 -0.861524,-0.6021 -1.438199,-0.0729 -0.36209,1.20648 0.510296,3.43553 -0.445611,2.16437 -1.304147,3.9551 -0.399915,-3.92834 -0.6732,-1.11373 -0.466743,-2.86713 -0.204318,-1.42135 -0.950326,-1.75803 -0.353688,0.68138 -0.424316,0.57593 z"
       id="path32" />
    <path
       style="fill:#ffffff;stroke:none;stroke-width:0.1866966px;stroke-linecap:butt;stroke-linejoin:miter;stroke-opacity:1"
       d="m 16.467884,267.23273 c -1.969182,2.04624 -1.441342,3.79542 0.02558,4.28011 -0.854636,0.5542 -1.697724,0.58843 -2.679774,0.672 -6.1120508,-0.26643 -11.7463812,-1.84472 -12.2768454,-6.70701 -0.042471,-2.11367 1.9376089,-3.97858 3.5135942,-4.80387 2.3279905,-1.21907 8.4782722,-1.72677 11.3251682,-1.70585 l -4.246638,2.98248 -0.753095,0.57857 1.279973,0.21544 -1.653425,0.29035 c -7.2688989,1.17341 -3.9134464,4.21581 1.037258,6.31784 0.775306,0.26977 1.500883,0.5147 1.933069,0.61292 -1.045859,-3.18721 -1.110065,-3.86921 -0.22252,-6.0536 1.503242,-2.27809 4.775929,-2.35585 7.671906,-2.2916 4.119431,-0.31797 8.506836,-3.53977 10.085447,-6.99327 -0.4644,2.9201 -1.243309,4.99683 -3.868242,6.05273 1.25657,0.36127 1.837795,1.1216 2.38832,1.82054 -3.176442,-0.74824 -5.737493,0.0568 -8.545066,0.58468 -1.307579,0.17135 -2.622096,-0.0236 -4.492372,0.1855 -1.473783,0.41418 -2.288595,2.77809 -1.131553,3.3475 l 1.225848,0.1886 z"
       id="path36" />
    <path
       style="fill:#ffffff;stroke:none;stroke-width:0.1866966px;stroke-linecap:butt;stroke-linejoin:miter;stroke-opacity:1"
       d="m 17.911467,266.50523 c 4.093162,-4.29872 11.949583,-3.68658 16.146327,-2.38588 2.008501,0.62843 3.762022,-0.0396 5.407776,-1.24553 2.147525,-1.44397 2.652375,-2.18329 3.833237,-4.31794 -1.308316,2.2415 -3.965787,8.84697 -6.349559,8.74971 -2.392335,-0.11481 -4.545273,-0.84169 -7.134775,-1.53604 -2.573724,-0.45932 -4.95683,-0.29489 -6.701628,0.71925 l -1.17209,0.55374 -1.028443,0.022 -1.134934,-0.58782 -1.106282,-0.17815 z"
       id="path38" />
    <path
       style="fill:#ffffff;stroke:none;stroke-width:0.1866966px;stroke-linecap:butt;stroke-linejoin:miter;stroke-opacity:1"
       d="m 22.600827,268.92846 0.01992,1.40593 c 2.794733,-1.03906 5.957419,-0.37929 8.372434,0.1971 l 3.30036,1.36729 c 7.429271,2.60679 12.589221,-2.94784 13.957866,-7.61625 1.279412,-3.13128 -0.512121,-8.22784 -2.738687,-11.37528 0.423869,1.78971 1.125459,4.37755 0.567827,6.16726 -2.59463,7.49282 -7.226733,10.33173 -14.14814,8.42598 -2.713693,-0.55865 -4.184824,-0.99164 -6.785578,-0.0807 -0.923351,0.33758 -1.551367,0.19749 -1.978202,0.31671 -0.769406,0.21488 -0.735372,0.47807 -0.567791,1.19202 z"
       id="path40" />
  </g>
</svg>
