<?xml version="1.0" encoding="UTF-8" standalone="no"?>
<svg
   xmlns:dc="http://purl.org/dc/elements/1.1/"
   xmlns:cc="http://creativecommons.org/ns#"
   xmlns:rdf="http://www.w3.org/1999/02/22-rdf-syntax-ns#"
   xmlns:svg="http://www.w3.org/2000/svg"
   xmlns="http://www.w3.org/2000/svg"
   id="svg8"
   version="1.1"
   viewBox="0 0 25 25"
   height="25mm"
   width="25mm">
  <defs
     id="defs2" />
  <metadata
     id="metadata5">
    <rdf:RDF>
      <cc:Work
         rdf:about="">
        <dc:format>image/svg+xml</dc:format>
        <dc:type
           rdf:resource="http://purl.org/dc/dcmitype/StillImage" />
        <dc:title></dc:title>
      </cc:Work>
    </rdf:RDF>
  </metadata>
  <g
     transform="translate(0,-272)"
     id="layer1">
    <path
       id="path109"
       d="m 8.9547233,275.54415 -7.7766555,-0.0348 -0.71014626,1.06335 0.2195511,15.57916 1.02419476,0.80817 c 5.1161583,2.2e-4 8.5495306,1.7e-4 13.6656886,1.7e-4 l 0.402405,-0.64312 -0.402405,-1.04711 -12.1724011,-0.0735 c -0.4220041,-0.003 -0.7616388,-0.34112 -0.7616388,-0.76498 v -9.71339 c 0,-0.42386 0.3396321,-0.76701 0.7616388,-0.76497 l 15.2312101,0.0735 c 0.422006,0.002 0.761639,0.34112 0.761639,0.76498 l 0.03658,4.57557 0.940545,-0.006 0.788416,0.22795 -0.0097,-7.03256 -0.516624,-0.60925 -10.073891,0.0216 -0.398927,-0.41432 -0.3615804,-1.28898 z"
       style="fill:#ffffff;stroke:none;stroke-width:0.29035115px;stroke-linecap:butt;stroke-linejoin:miter;stroke-opacity:1" />
    <path
       id="path114"
       d="m 21.717559,285.7568 c -0.04872,-0.0128 -0.10259,0.003 -0.135429,0.046 l -0.865911,1.12434 a 3.4756757,3.3432347 9.2995719 0 0 -0.645127,-0.16025 3.4756757,3.3432347 9.2995719 0 0 -0.966814,-0.01 l -0.617518,-1.27405 c -0.01566,-0.0323 -0.04262,-0.0552 -0.07383,-0.066 -0.03115,-0.0112 -0.06651,-0.01 -0.0987,0.007 l -1.558695,0.76231 c -0.06436,0.0314 -0.09105,0.10866 -0.05971,0.17327 l 0.578402,1.19359 a 3.4756757,3.3432347 9.2995719 0 0 -0.800453,1.00937 l -1.248973,-0.18458 c -0.07081,-0.011 -0.136009,0.0383 -0.14642,0.10932 l -0.252379,1.72283 c -0.0104,0.0711 0.03804,0.13659 0.108864,0.14706 l 1.222101,0.1806 a 3.4756757,3.3432347 9.2995719 0 0 0.635121,1.48575 l -0.781188,1.01451 c -0.0438,0.0569 -0.03353,0.13808 0.02309,0.18207 l 1.371017,1.06543 c 0.05663,0.044 0.13748,0.0337 0.181279,-0.0232 l 0.815144,-1.0589 a 3.4756757,3.3432347 9.2995719 0 0 0.700414,0.18111 3.4756757,3.3432347 9.2995719 0 0 1.001968,0.004 l 0.578402,1.19359 c 0.03134,0.0647 0.108163,0.0915 0.172524,0.0599 l 1.558694,-0.76232 c 0.06436,-0.0316 0.09048,-0.10877 0.05914,-0.17335 l -0.547697,-1.12991 a 3.4756757,3.3432347 9.2995719 0 0 0.816773,-1.0661 l 1.201948,0.17761 c 0.07081,0.011 0.136567,-0.0382 0.14698,-0.1092 l 0.252378,-1.72283 c 0.0104,-0.0712 -0.0386,-0.13668 -0.109422,-0.14714 l -1.232178,-0.18209 a 3.4756757,3.3432347 9.2995719 0 0 -0.654652,-1.44613 l 0.810796,-1.05265 c 0.04381,-0.0568 0.03353,-0.13807 -0.02309,-0.18207 l -1.371019,-1.06542 c -0.01416,-0.011 -0.02962,-0.0185 -0.04584,-0.0229 z m -1.918403,3.25686 a 1.1382941,1.104074 9.5530099 0 1 0.965852,1.2583 1.1382941,1.104074 9.5530099 0 1 -1.285855,0.92615 1.1382941,1.104074 9.5530099 0 1 -0.966328,-1.25896 1.1382941,1.104074 9.5530099 0 1 1.286331,-0.92549 z"
       style="fill:#ffffff;fill-opacity:1;stroke:none;stroke-width:0.26275826" />
    <g
       id="text28"
       style="font-style:normal;font-variant:normal;font-weight:bold;font-stretch:normal;font-size:5.81353903px;line-height:1.25;font-family:sans-serif;-inkscape-font-specification:'sans-serif Bold';letter-spacing:0px;word-spacing:0px;fill:#ffffff;fill-opacity:1;stroke:none;stroke-width:0.14533848"
       transform="scale(0.86514552,1.1558749)"
       aria-label="web">
      <path
         id="path30"
         style="font-style:normal;font-variant:normal;font-weight:bold;font-stretch:normal;font-family:sans-serif;-inkscape-font-specification:'sans-serif Bold';fill:#ffffff;stroke-width:0.14533848"
         d="m 10.047706,245.26675 -0.9878476,3.18779 H 7.9754971 l -0.650049,-2.14885 -0.6386945,2.14885 H 5.5881991 l -0.9793315,-3.18779 h 1.0730067 l 0.5450193,2.19711 0.6812741,-2.19711 h 0.9055268 l 0.6472104,2.19711 0.5365034,-2.19711 z" />
      <path
         id="path32"
         style="font-style:normal;font-variant:normal;font-weight:bold;font-stretch:normal;font-family:sans-serif;-inkscape-font-specification:'sans-serif Bold';fill:#ffffff;stroke-width:0.14533848"
         d="m 13.803229,247.04942 h -2.339041 q 0.02271,0.3747 0.283864,0.5734 0.263994,0.19871 0.77495,0.19871 0.323605,0 0.627339,-0.11639 0.303735,-0.11638 0.479731,-0.2498 h 0.113546 v 0.82037 q -0.346315,0.13909 -0.652888,0.20154 -0.306573,0.0625 -0.678435,0.0625 -0.959462,0 -1.470417,-0.43147 -0.510956,-0.43147 -0.510956,-1.22913 0,-0.78914 0.482569,-1.249 0.485408,-0.4627 1.328485,-0.4627 0.777788,0 1.169521,0.39457 0.391732,0.39173 0.391732,1.12978 z m -1.016234,-0.59896 q -0.0085,-0.32076 -0.158964,-0.48257 -0.150448,-0.1618 -0.468376,-0.1618 -0.295218,0 -0.485407,0.15329 -0.190189,0.15328 -0.212899,0.49108 z" />
      <path
         id="path34"
         style="font-style:normal;font-variant:normal;font-weight:bold;font-stretch:normal;font-family:sans-serif;-inkscape-font-specification:'sans-serif Bold';fill:#ffffff;stroke-width:0.14533848"
         d="m 17.851133,246.81665 q 0,0.75224 -0.41728,1.22629 -0.414442,0.47405 -1.036104,0.47405 -0.266833,0 -0.468376,-0.0568 -0.201544,-0.0568 -0.383217,-0.16464 l -0.04258,0.15896 h -0.979331 v -4.41692 h 1.021911 v 1.56125 q 0.235607,-0.18735 0.47973,-0.30373 0.246962,-0.11639 0.567729,-0.11639 0.604631,0 0.931074,0.43715 0.326444,0.43431 0.326444,1.20075 z m -1.053136,0.0199 q 0,-0.4258 -0.144771,-0.65573 -0.14477,-0.22993 -0.516633,-0.22993 -0.14477,0 -0.298057,0.0454 -0.153287,0.0426 -0.29238,0.1249 v 1.60099 q 0.110707,0.0397 0.210059,0.0539 0.09935,0.0142 0.238446,0.0142 0.405926,0 0.604631,-0.23844 0.198705,-0.23845 0.198705,-0.71534 z" />
    </g>
  </g>
</svg>
