<?xml version="1.0" encoding="UTF-8" standalone="no"?>
<svg
   xmlns:dc="http://purl.org/dc/elements/1.1/"
   xmlns:cc="http://creativecommons.org/ns#"
   xmlns:rdf="http://www.w3.org/1999/02/22-rdf-syntax-ns#"
   xmlns:svg="http://www.w3.org/2000/svg"
   xmlns="http://www.w3.org/2000/svg"
   xmlns:sodipodi="http://sodipodi.sourceforge.net/DTD/sodipodi-0.dtd"
   xmlns:inkscape="http://www.inkscape.org/namespaces/inkscape"
   id="svg151"
   version="1.1"
   viewBox="0 0 50 50"
   height="50mm"
   width="50mm"
   sodipodi:docname="logo_svg_9.svg"
   inkscape:version="0.92.4 (5da689c313, 2019-01-14)">
  <sodipodi:namedview
     pagecolor="#ffffff"
     bordercolor="#666666"
     borderopacity="1"
     objecttolerance="10"
     gridtolerance="10"
     guidetolerance="10"
     inkscape:pageopacity="0"
     inkscape:pageshadow="2"
     inkscape:window-width="1600"
     inkscape:window-height="838"
     id="namedview58"
     showgrid="false"
     inkscape:zoom="1.6906875"
     inkscape:cx="-63.13048"
     inkscape:cy="80.503914"
     inkscape:window-x="-8"
     inkscape:window-y="-8"
     inkscape:window-maximized="1"
     inkscape:current-layer="svg151" />
  <defs
     id="defs145" />
  <metadata
     id="metadata148">
    <rdf:RDF>
      <cc:Work
         rdf:about="">
        <dc:format>image/svg+xml</dc:format>
        <dc:type
           rdf:resource="http://purl.org/dc/dcmitype/StillImage" />
        <dc:title />
      </cc:Work>
    </rdf:RDF>
  </metadata>
  <path
     style="fill:#ffffff;stroke:none;stroke-width:0.52633148px;stroke-linecap:butt;stroke-linejoin:miter;stroke-opacity:1"
     d="M 71.716797 58.105469 L 57.03125 67.652344 L 64.619141 78.667969 L 64.373047 84.052734 L 46.994141 97.269531 L 54.582031 113.91602 L 67.800781 119.30078 L 75.144531 126.88867 L 70.982422 132.0293 L 74.898438 136.43555 L 73.429688 147.69531 L 77.835938 150.87695 L 81.507812 148.67383 L 83.710938 149.16406 L 93.746094 148.68555 L 103.7832 149.16406 L 105.98633 148.67383 L 109.6582 150.87695 L 114.0625 147.69531 L 112.59375 136.43555 L 116.51172 132.0293 L 112.34961 126.88867 L 119.69336 119.30078 L 132.91211 113.91602 L 140.5 97.269531 L 123.11914 84.052734 L 122.875 78.667969 L 130.46289 67.652344 L 115.77734 58.105469 L 101.33398 66.427734 L 93.746094 71.568359 L 86.158203 66.427734 L 71.716797 58.105469 z M 121.15625 96.867188 L 125.26367 97.419922 L 126.98242 100.07812 L 108.18359 106.2793 L 104.30859 106.48828 L 121.15625 96.867188 z M 68.650391 96.869141 L 85.496094 106.49219 L 81.621094 106.2832 L 62.822266 100.08008 L 64.542969 97.421875 L 68.650391 96.869141 z M 94.638672 108.73438 L 96.009766 109.72266 L 99.761719 120.98242 L 94.914062 125.98633 L 89.128906 120.35547 L 93.507812 109.56641 L 94.638672 108.73438 z M 102.31641 129.82617 L 107.79102 131.07812 L 108.25977 132.64062 L 103.25586 137.80273 L 101.22266 137.48828 L 100.91016 131.39062 L 102.31641 129.82617 z M 85.375 129.89453 L 86.783203 131.45898 L 86.470703 137.55859 L 84.4375 137.87109 L 79.433594 132.71094 L 79.902344 131.14648 L 85.375 129.89453 z "
     transform="scale(0.26458333)"
     id="path4441" />
  <path
     inkscape:connector-curvature="0"
     style="fill:#ffffff;stroke:none;stroke-width:0.13925853px;stroke-linecap:butt;stroke-linejoin:miter;stroke-opacity:1"
     d="m 37.458827,25.0885 -4.047748,-3.23819 -0.06477,-1.06861 2.007684,-2.88199 0.518112,-0.19431 1.869411,-0.19016 0.526854,0.19016 0.192743,-0.37102 -0.580302,-0.0998 -0.110833,-1.20027 0.487932,-0.18457 -0.216213,-0.28157 -0.582874,0.25906 -1.564421,-0.19116 -3.606454,-2.26334 -1.629342,-1.30181 -0.647639,-9.84412 1.683862,-1.23051 11.59275,-0.19429 0.009,1.5226 -5.190093,1.97465 -2.75252,0.24575 -0.932777,0.72171 0.317569,3.11266 2.461033,1.87816 -0.168892,-1.40426 1.593696,-0.86248 4.080129,3.36774 0.687944,1.07108 1.532618,9.34075 -1.313864,0.98662 z"
     id="path4460-6" />
  <path
     inkscape:connector-curvature="0"
     style="fill:#ffffff;stroke:none;stroke-width:0.25163537px;stroke-linecap:butt;stroke-linejoin:miter;stroke-opacity:1"
     d="m 20.602855,14.09442 2.730753,1.8205 2.730752,-2.64801 -2.068752,2.89626 0.827501,0.662 4.385752,-2.64801 0.413752,-0.49649 -0.413752,-3.31001 -2.1515,-1.8205 L 26.478109,6.64691 28.21586,3.5024 28.381361,1.59916 25.40236,3.5024 l -3.889254,3.64101 -1.241249,3.06175 -0.331001,3.47551 z"
     id="path4477" />
  <path
     inkscape:connector-curvature="0"
     style="fill:#ffffff;stroke:none;stroke-width:0.25163537px;stroke-linecap:butt;stroke-linejoin:miter;stroke-opacity:1"
     d="m 34.091118,31.72017 1.571464,-0.91807 2.944226,2.71452 3.014564,2.63069 -4.305147,-1.90921 z"
     id="path4496" />
  <path
     inkscape:connector-curvature="0"
     style="fill:#ffffff;stroke:none;stroke-width:0.25163537px;stroke-linecap:butt;stroke-linejoin:miter;stroke-opacity:1"
     d="m 30.532863,33.83031 2.192878,3.22725 2.482501,3.43413 -0.04138,-3.1445 -0.703374,-2.02739 -3.351379,-2.11012 z"
     id="path4498" />
  <path
     inkscape:connector-curvature="0"
     style="fill:#ffffff;stroke:none;stroke-width:0.25163537px;stroke-linecap:butt;stroke-linejoin:miter;stroke-opacity:1"
     d="m 32.105115,32.42355 2.648002,1.57225 4.261627,2.56525 1.075749,0.78614 -5.627006,-2.02739 -3.351379,-2.11012 z"
     id="path4500" />
  <path
     inkscape:connector-curvature="0"
     style="fill:#ffffff;stroke:none;stroke-width:0.25163537px;stroke-linecap:butt;stroke-linejoin:miter;stroke-opacity:1"
     d="m 21.306232,40.45031 1.324,-0.12413 4.634004,-0.0414 0.951624,0.0828 0.331002,1.07575 -0.57925,0.8275 -2.027376,1.24125 0.04137,1.36538 -0.206872,1.11712 -5.83388,3.02038 2.854876,-3.02038 1.117126,-0.8275 -0.124125,-1.57225 -1.57225,-0.70338 -1.241253,-1.19988 z"
     id="path4502" />
  <path
     inkscape:connector-curvature="0"
     style="fill:#ffffff;stroke:none;stroke-width:0.25163537px;stroke-linecap:butt;stroke-linejoin:miter;stroke-opacity:1"
     d="M 15.449606,31.86807 13.878144,30.94999 10.933913,33.66451 7.9193514,36.29521 12.224499,34.386 Z"
     id="path4496-2" />
  <path
     inkscape:connector-curvature="0"
     style="fill:#ffffff;stroke:none;stroke-width:0.25163537px;stroke-linecap:butt;stroke-linejoin:miter;stroke-opacity:1"
     d="m 19.007859,33.97821 -2.192877,3.22725 -2.482501,3.43413 0.04138,-3.1445 0.703374,-2.02739 3.351378,-2.11012 z"
     id="path4498-9" />
  <path
     inkscape:connector-curvature="0"
     style="fill:#ffffff;stroke:none;stroke-width:0.25163537px;stroke-linecap:butt;stroke-linejoin:miter;stroke-opacity:1"
     d="M 17.435608,32.57145 14.787606,34.1437 10.52598,36.70895 9.4502279,37.49509 15.077237,35.4677 18.428615,33.35758 Z"
     id="path4500-0" />
  <path
     inkscape:connector-curvature="0"
     style="fill:#ffffff;stroke:none;stroke-width:0.25163537px;stroke-linecap:butt;stroke-linejoin:miter;stroke-opacity:1"
     d="M 11.615407,26.9208 9.2748814,27.62295 5.2374766,30.19753 0.61493951,33.12319 7.8705666,32.06996 12.376079,30.43158 13.253775,29.43686 Z"
     id="path4559" />
  <path
     inkscape:connector-curvature="0"
     style="fill:#ffffff;stroke:none;stroke-width:0.25163537px;stroke-linecap:butt;stroke-linejoin:miter;stroke-opacity:1"
     d="m 38.167031,26.63975 2.340522,0.70217 4.037407,2.57457 4.622537,2.92566 -7.255627,-1.05324 -4.505512,-1.63836 -0.877697,-0.99473 z"
     id="path4559-1" />
  <path
     inkscape:connector-curvature="0"
     style="fill:#ffffff;stroke:none;stroke-width:0.13925853px;stroke-linecap:butt;stroke-linejoin:miter;stroke-opacity:1"
     d="m 12.012732,25.15584 4.04775,-3.23819 0.06477,-1.0686 -2.007682,-2.882 -0.518111,-0.1943 -1.869414,-0.19016 -0.526854,0.19016 -0.19274,-0.37103 0.580301,-0.0998 0.110833,-1.20027 -0.487931,-0.18458 0.216212,-0.28156 0.582874,0.25906 1.564419,-0.19116 3.606457,-2.26335 1.629342,-1.3018 0.647638,-9.84413 -1.683863,-1.2305 -11.592748,-0.19429 -0.00894,1.52259 5.190093,1.97466 2.752519,0.24575 0.932778,0.72171 -0.31757,3.11266 -2.461032,1.87816 0.168891,-1.40426 -1.593698,-0.86248 -4.0801298,3.36772 -0.687941,1.07109 -1.5326179,9.34076 1.313864,0.98662 z"
     id="path4460-6-3" />
</svg>
