<?xml version="1.0" encoding="UTF-8" standalone="no"?>
<svg
   xmlns:dc="http://purl.org/dc/elements/1.1/"
   xmlns:cc="http://creativecommons.org/ns#"
   xmlns:rdf="http://www.w3.org/1999/02/22-rdf-syntax-ns#"
   xmlns:svg="http://www.w3.org/2000/svg"
   xmlns="http://www.w3.org/2000/svg"
   id="svg8"
   version="1.1"
   viewBox="0 0 25 25"
   height="25mm"
   width="25mm">
  <defs
     id="defs2" />
  <metadata
     id="metadata5">
    <rdf:RDF>
      <cc:Work
         rdf:about="">
        <dc:format>image/svg+xml</dc:format>
        <dc:type
           rdf:resource="http://purl.org/dc/dcmitype/StillImage" />
        <dc:title></dc:title>
      </cc:Work>
    </rdf:RDF>
  </metadata>
  <g
     transform="translate(0,-272)"
     id="layer1">
    <path
       id="path12"
       d="m 19.359647,275.6925 -7.873776,0.1364 -5.826675,0.22802 -5.09784147,1.63788 -0.0657141,1.65978 5.52797217,-1.47758 13.3818354,-0.22702 5.097841,1.22867 -0.272813,-1.82109 z m 0.11052,2.43143 -1.761345,0.0169 0.10355,0.0149 1.997319,7.76724 1.350131,-0.75073 2.850609,-0.74875 c 0.39234,-1.71168 0.428541,-3.36388 0.476927,-5.0182 l -0.108527,-0.0587 z m -1.877838,0.018 -0.772643,0.008 0.311647,1.51044 0.552598,0.009 0.492857,0.79355 z m -0.911041,0.009 -8.7270665,0.0836 -0.5735075,2.25122 1.0335073,-0.94589 5.1496177,0.0647 3.17719,0.0498 -0.247923,-1.46563 z m -9.0695783,0.0866 -0.8503043,0.008 -0.00897,0.10952 -2.0769717,8.57972 0.6023814,0.17921 z m -1.022555,0.0101 -0.5237243,0.005 -5.58671647,1.51542 -0.007966,0.20311 c -0.002703,2.08449 0.39039835,4.11076 0.77363727,6.14629 l 1.9186605,0.36939 1.3202618,0.3913 2.0869288,-8.61356 z m 11.6314423,2.38762 -0.471948,0.35347 -0.309654,0.16628 1.12511,5.46026 1.019568,-0.56653 z m -1.469612,0.12844 -7.7572823,0.0319 -0.3534632,0.0647 -0.3225977,1.22268 0.1612983,1.12611 0.5794814,0.1613 h 6.3404405 c 0,0 1.351901,0.0326 1.770305,0.16129 0.09539,0.0294 0.18136,0.0975 0.258876,0.18221 l -0.472944,-2.79087 z m -9.683908,0.95486 -1.4038977,5.51005 1.3670584,0.85628 1.545283,1.35212 1.078313,1.43277 0.6919923,1.07731 0.57052,0.94689 1.894764,0.0946 1.84996,-0.26883 0.479913,-2.33286 1.094244,-1.70559 1.738444,-1.73844 -0.230996,-1.36806 -0.509784,1.27148 c 0,0 -1.190174,0.83678 -1.254547,0.99766 -0.06437,0.16088 -0.579482,0.12844 -0.579482,0.12844 l -3.44403,0.25788 -2.4463668,-0.0319 -0.9976633,-0.32261 -0.3216025,-1.02952 0.2250219,-0.0319 0.8692221,-0.45103 0.1284413,0.4829 0.8373613,0.19316 5.535938,-0.12844 0.772641,-0.70793 0.418182,-1.06238 -0.321601,-0.67606 -1.127102,0.0319 -7.0802256,0.1613 -0.9976634,-0.70792 z m 16.863701,3.05671 -1.838012,0.49385 -2.44537,1.03053 -1.577145,1.02952 -1.835024,1.7703 -0.932944,2.02719 -0.401256,1.55823 0.726841,-0.10554 c 0.752753,-4.18214 4.356952,-5.85402 8.055983,-6.96374 0.09388,-0.28222 0.175073,-0.56178 0.246927,-0.84034 z m -0.566537,1.12113 -0.788573,0.24194 -1.7026,0.73979 -1.228659,0.63723 -1.182858,0.78558 -0.967794,0.88715 -0.534676,0.77363 -0.693983,1.16096 -0.432122,1.32026 0.82143,-0.72086 2.172556,-1.56023 3.105501,-3.00991 z m -22.0601146,0.53965 c 0.025472,0.13616 0.0516,0.27193 0.076667,0.40823 4.1097474,0.71248 6.7559893,2.30001 8.6942096,6.00788 l 0.529698,0.0269 -0.483897,-0.78658 -1.6100016,-2.31693 -2.0919073,-1.7703 -1.2226853,-0.57949 -2.1725574,-0.59541 z m 0.3325542,0.59043 0.5665379,0.68901 3.9259354,3.17022 3.508749,1.64087 -0.5874468,-1.06238 -0.6830311,-0.93295 -0.2608659,-0.34151 -0.3305631,-0.29572 -1.3650669,-1.0813 -1.5482709,-0.80749 -1.365066,-0.50082 -1.2406077,-0.37537 z"
       style="fill:#ffffff;stroke:none;stroke-width:0.50978416px;stroke-linecap:butt;stroke-linejoin:miter;stroke-opacity:1" />
  </g>
</svg>
