<?xml version="1.0" encoding="UTF-8" standalone="no"?>
<svg
   xmlns:dc="http://purl.org/dc/elements/1.1/"
   xmlns:cc="http://creativecommons.org/ns#"
   xmlns:rdf="http://www.w3.org/1999/02/22-rdf-syntax-ns#"
   xmlns:svg="http://www.w3.org/2000/svg"
   xmlns="http://www.w3.org/2000/svg"
   id="svg151"
   version="1.1"
   viewBox="0 0 50 50"
   height="50mm"
   width="50mm">
  <defs
     id="defs145" />
  <metadata
     id="metadata148">
    <rdf:RDF>
      <cc:Work
         rdf:about="">
        <dc:format>image/svg+xml</dc:format>
        <dc:type
           rdf:resource="http://purl.org/dc/dcmitype/StillImage" />
        <dc:title></dc:title>
      </cc:Work>
    </rdf:RDF>
  </metadata>
  <g
     transform="translate(0,-247)"
     id="layer1">
    <g
       transform="matrix(-0.05180202,0.55215695,-0.55215695,-0.05180202,160.53828,260.88288)"
       id="g4859">
      <path
         style="fill:#ffffff;stroke:none;stroke-width:0.26458332px;stroke-linecap:butt;stroke-linejoin:miter;stroke-opacity:1"
         d="m 41.593282,258.26917 c 0.0414,0.68957 0.0963,1.53703 0.12164,1.63844 0.0435,0.17402 -0.30453,1.71841 -0.30453,1.71841 l 0.13051,2.08819 0.4568,1.32687 0.34802,0.87008 0.43504,0.91358 0.13051,0.67431 0.97884,1.02235 0.26102,0.82657 0.5003,1.32688 0.87007,0.78306 0.44013,2.70588 -0.11386,2.86264 0.21752,3.78484 0.0296,1.60994 0.0574,2.60995 1.60469,-4.31935 0.005,-1.94523 -0.52205,-1.26161 0.73957,-1.56615 0.56555,-1.41387 -0.26102,-3.95886 0.0435,-1.08759 -0.69552,-0.67494 -0.87062,-0.95647 -0.78307,-2.37097 0.0218,-2.54499 -0.23928,-0.82658 0.43504,-0.60905 c 0.37723,-0.81489 0.31836,-1.21208 0.0294,-2.00067 l -0.59492,-0.52256 -0.41329,-0.60905 -0.16702,-1.85484 0.6886,-0.63231 0.76197,-0.12304 1.52264,-0.78307 1.65315,-1.21812 0.52205,-2.3057 -1.95768,-1.21811 -1.91418,0.43503 -1.31838,-0.13376 -0.51235,1.13702 -0.87517,0.47279 -1.01806,0.66311 -0.95272,0.51458 c -0.40341,0.10012 -0.49423,0.35734 -0.69607,0.69606 -0.10712,0.4326 -0.0376,0.59676 0.19271,0.94351 l 0.15514,0.78245 c -0.0883,0.86443 0.23333,1.71055 0.29161,2.53035 z"
         id="path60" />
      <path
         style="fill:#ffffff;stroke:none;stroke-width:0.26458332px;stroke-linecap:butt;stroke-linejoin:miter;stroke-opacity:1"
         d="m 46.370042,251.88117 -1.13106,0.69606 0.0435,1.60964 0.6743,0.63081 0.5438,0.93535 0.39157,1.04408 0.1031,2.07646 0.28834,0.61176 0.84027,0.68067 1.05083,1.27242 1.26719,1.12169 1.72542,0.41892 0.80022,-0.14891 0.21672,-0.10572 0.3555,-0.29957 c -0.0942,-0.0913 -0.16333,-0.0326 -0.22225,-0.0153 -0.112,0.0329 -0.18142,0.1356 -0.23599,0.11875 l 0.27905,-0.28036 0.1721,-0.23175 0.0747,-0.31104 -0.0987,-0.56852 c 0.004,0.0675 -0.0869,0.14822 -0.0981,0.22698 -0.0124,0.0862 0.0542,0.17011 0.0394,0.23167 -0.0351,0.14648 -0.0711,0.20371 -0.1849,0.30012 l 0.001,-0.4527 -0.12144,-0.22568 -0.0482,0.22128 0.0332,0.16827 -0.0257,0.21908 -0.14344,0.10421 -0.51675,0.096 -0.35376,-0.39222 0.12848,-0.1162 0.22888,-0.0548 0.18742,-0.23535 0.0827,-0.30126 -0.42566,0.30208 -0.17687,0.0371 -0.37842,0.12963 -0.2871,0.3592 -0.64514,-0.19379 -0.33838,-0.18457 -0.30169,-0.28034 -1.09798,-1.33642 -0.63989,-1.36492 -0.38788,-1.08896 -0.084,-1.02938 0.0687,-1.3059 z"
         id="path62" />
      <path
         style="fill:#ffffff;stroke:none;stroke-width:0.26458332px;stroke-linecap:butt;stroke-linejoin:miter;stroke-opacity:1"
         d="m 48.022972,254.96992 1.00063,0.73955 0.97887,2.28396 0.56978,1.52509 1.25246,1.11742 1.44182,-0.0377 0.89309,0.59023 0.1179,0.86317 -0.32017,1.42489 -1.02416,1.62611 -0.47855,0.93534 1.37038,-0.87008 1.43244,-1.54748 0.89183,-2.02294 -0.0427,-1.16358 -0.73956,-1.26299 -0.83443,-0.68749 -1.74771,-0.74475 -1.27539,0.0261 -1.92036,-2.18575 1.05033,0.55776 0.99436,0.22531 h 1.1311 l 0.52205,1.0006 0.43504,0.65256 1.60814,0.46852 1.76341,-0.0335 2.12626,-0.56007 1.02779,-0.87556 1.00059,0.73957 1.00546,0.41167 1.38726,-0.23765 -0.87008,-0.65256 c 0,0 -0.70983,-0.61993 -0.91359,-0.69607 -0.66434,-0.24824 -1.32335,-0.18414 -1.30512,-0.17401 l -2.30571,-1.34863 -2.39271,-0.65256 -1.21812,0.21752 -0.60905,-0.60905 -2.21871,-0.0435 -1.04409,-0.87009 0.52205,-0.73956 1.30512,-0.34803 2.30571,0.47854 1.0876,0.43504 1.34862,-0.17402 1.30512,-1.00059 0.95709,-1.21811 0.39153,-0.39153 1.21811,-0.26103 0.52205,-0.78307 -1.65315,0.39154 -0.087,0.26102 -0.30453,0.17402 -2.2187,0.17401 -2.52323,0.73957 -2.43622,0.26103 2.78425,-1.30512 1.21811,-1.13111 -4.17638,0.60906 h -1.1311 l 1.87067,-1.0441 0.65256,-1.21811 -1.91418,0.34803 -2.39272,1.52264 -1.17464,1.34863 -0.82654,2.04468 z"
         id="path68" />
      <path
         style="fill:#ffffff;stroke:none;stroke-width:0.26458332px;stroke-linecap:butt;stroke-linejoin:miter;stroke-opacity:1"
         d="m 45.358382,246.07741 -0.18701,0.83678 -0.36841,0.1961 -0.64131,-0.0282 0.0626,0.83479 -0.22091,0.20989 0.11399,0.22165 -0.14999,0.10191 0.11291,0.38068 -0.0843,0.25039 0.3244,0.27491 0.50928,0.23157 0.24079,0.0268 -0.0274,0.48881 -0.035,0.42577 0.45327,0.33692 1.53825,0.15731 0.0444,-0.8045 1.19664,0.009 1.85176,-0.25508 -1.81036,-0.86659 0.71382,0.14743 0.86284,0.0796 0.88458,-0.46602 -2.23202,-0.88414 1.73963,0.38012 1.82958,-0.28182 -2.68965,-0.91651 0.86823,0.15137 0.66137,-0.18358 -1.5127,-1.43861 -1.64271,-0.73657 -1.48314,0.32266 z"
         id="path72" />
      <path
         style="fill:#ffffff;stroke:none;stroke-width:0.26458332px;stroke-linecap:butt;stroke-linejoin:miter;stroke-opacity:1"
         d="m 45.739052,243.02807 0.28277,-3.19755 3.91536,-4.3939 -1.04409,3.39331 -0.71781,2.87126 -0.91359,1.97943 -1.06585,1.19636 z"
         id="path74" />
      <path
         style="fill:#ffffff;stroke:none;stroke-width:0.26458332px;stroke-linecap:butt;stroke-linejoin:miter;stroke-opacity:1"
         d="m 50.807262,235.48012 -0.69606,3.78485 c 0,0 0,1.87067 0,2.04469 0,0.17401 4.3504,-4.87245 4.3504,-4.87245 l 0.21752,-2.1752 0.60905,-2.43622 z"
         id="path76" />
      <path
         style="fill:#ffffff;stroke:none;stroke-width:0.26458332px;stroke-linecap:butt;stroke-linejoin:miter;stroke-opacity:1"
         d="m 57.593882,235.17559 -2.04468,2.52324 -0.69607,0.60905 -0.21752,1.87067 0.13051,1.52264 v 1.91418 l 1.26162,-2.08819 1.00059,-2.43623 0.52205,-3.08878 z"
         id="path78" />
      <path
         style="fill:#ffffff;stroke:none;stroke-width:0.26458332px;stroke-linecap:butt;stroke-linejoin:miter;stroke-opacity:1"
         d="m 53.809042,239.09095 -2.1752,2.52323 -1.34863,1.13111 -1.6749,1.71841 1.06585,0.5438 0.80484,0.93533 0.43504,0.69607 0.7613,-0.5003 1.74016,-1.60965 z"
         id="path80" />
      <path
         style="fill:#ffffff;stroke:none;stroke-width:0.26458332px;stroke-linecap:butt;stroke-linejoin:miter;stroke-opacity:1"
         d="m 56.419272,244.05041 -0.0435,1.87067 -0.73957,1.91418 2.61024,-2.91477 1.82717,-3.00178 1.52264,-2.74075 z"
         id="path82" />
      <path
         style="fill:#ffffff;stroke:none;stroke-width:0.26458332px;stroke-linecap:butt;stroke-linejoin:miter;stroke-opacity:1"
         d="m 52.895452,246.48663 1.16286,0.13994 0.33838,-0.0615 -0.53833,1.52271 1.50733,-0.93824 0.26148,-2.67629 -2.8301,2.07644 z"
         id="path84" />
      <path
         style="fill:#ffffff;stroke:none;stroke-width:0.26458332px;stroke-linecap:butt;stroke-linejoin:miter;stroke-opacity:1"
         d="m 47.492872,251.3129 1.13106,-0.69606 -0.0435,-1.60964 -0.6743,-0.63081 -0.5438,-0.93535 -0.39157,-1.04408 -0.1031,-2.07646 -0.28834,-0.61176 -0.84027,-0.68067 -1.05083,-1.27242 -1.26719,-1.12169 -1.72542,-0.41892 -0.80022,0.14891 -0.21672,0.10572 -0.3555,0.29957 c 0.0942,0.0913 0.16333,0.0326 0.22225,0.0153 0.112,-0.0329 0.18142,-0.1356 0.23599,-0.11875 l -0.27905,0.28036 -0.1721,0.23175 -0.0747,0.31104 0.0987,0.56852 c -0.004,-0.0675 0.0869,-0.14823 0.0981,-0.22698 0.0124,-0.0862 -0.0542,-0.17012 -0.0394,-0.23167 0.0351,-0.14648 0.0711,-0.20372 0.1849,-0.30012 l -10e-4,0.4527 0.12144,0.22568 0.0482,-0.22128 -0.0332,-0.16827 0.0257,-0.21908 0.14343,-0.10421 0.51675,-0.096 0.35377,0.39222 -0.12849,0.11619 -0.22887,0.0548 -0.18742,0.23536 -0.0827,0.30126 0.42566,-0.30208 0.17687,-0.0371 0.37842,-0.12963 0.2871,-0.3592 0.64514,0.19379 0.33838,0.18457 0.30169,0.28034 1.09798,1.33642 0.63989,1.36492 0.38788,1.08896 0.084,1.02938 -0.0687,1.3059 z"
         id="path62-4" />
    </g>
    <g
       transform="matrix(0.05180202,-0.55215695,0.55215695,0.05180202,-135.84743,326.0425)"
       id="g4846">
      <path
         style="fill:#ffffff;stroke:none;stroke-width:0.26458332px;stroke-linecap:butt;stroke-linejoin:miter;stroke-opacity:1"
         d="m 127.45864,295.85631 c 0.0414,0.68957 0.0963,1.53703 0.12164,1.63844 0.0435,0.17402 -0.30453,1.71841 -0.30453,1.71841 l 0.13051,2.08819 0.4568,1.32687 0.34802,0.87008 0.43504,0.91358 0.13051,0.67431 0.97884,1.02235 0.26102,0.82657 0.5003,1.32688 0.87007,0.78306 0.44013,2.70588 -0.11386,2.86264 0.21752,3.78484 0.0296,1.60994 0.0574,2.60995 1.60469,-4.31935 0.005,-1.94523 -0.52205,-1.26161 0.73957,-1.56615 0.56555,-1.41387 -0.26102,-3.95886 0.0435,-1.08759 -0.69552,-0.67494 -0.87062,-0.95647 -0.78307,-2.37097 0.0218,-2.54499 -0.23928,-0.82658 0.43504,-0.60905 c 0.37723,-0.81489 0.31836,-1.21208 0.0294,-2.00067 l -0.59492,-0.52256 -0.41329,-0.60905 -0.16702,-1.85484 0.6886,-0.63231 0.76197,-0.12304 1.52264,-0.78307 1.65315,-1.21812 0.52205,-2.3057 -1.95768,-1.21811 -1.91418,0.43503 -1.31838,-0.13376 -0.51235,1.13702 -0.87517,0.47279 -1.01806,0.66311 -0.95272,0.51458 c -0.40341,0.10012 -0.49423,0.35734 -0.69607,0.69606 -0.10712,0.4326 -0.0376,0.59676 0.19271,0.94351 l 0.15514,0.78245 c -0.0883,0.86443 0.23333,1.71055 0.29161,2.53035 z"
         id="path60-0" />
      <path
         style="fill:#ffffff;stroke:none;stroke-width:0.26458332px;stroke-linecap:butt;stroke-linejoin:miter;stroke-opacity:1"
         d="m 132.2354,289.46831 -1.13106,0.69606 0.0435,1.60964 0.6743,0.63081 0.5438,0.93535 0.39157,1.04408 0.1031,2.07646 0.28834,0.61176 0.84027,0.68067 1.05083,1.27242 1.26719,1.12169 1.72542,0.41892 0.80022,-0.14891 0.21672,-0.10572 0.3555,-0.29957 c -0.0942,-0.0913 -0.16333,-0.0326 -0.22225,-0.0153 -0.112,0.0329 -0.18142,0.1356 -0.23599,0.11875 l 0.27905,-0.28036 0.1721,-0.23175 0.0747,-0.31104 -0.0987,-0.56852 c 0.004,0.0675 -0.0869,0.14822 -0.0981,0.22698 -0.0124,0.0862 0.0542,0.17011 0.0394,0.23167 -0.0351,0.14648 -0.0711,0.20371 -0.1849,0.30012 l 10e-4,-0.4527 -0.12144,-0.22568 -0.0482,0.22128 0.0332,0.16827 -0.0257,0.21908 -0.14344,0.10421 -0.51675,0.096 -0.35376,-0.39222 0.12848,-0.1162 0.22888,-0.0548 0.18742,-0.23535 0.0827,-0.30126 -0.42566,0.30208 -0.17687,0.0371 -0.37842,0.12963 -0.2871,0.3592 -0.64514,-0.19379 -0.33838,-0.18457 -0.30169,-0.28034 -1.09798,-1.33642 -0.63989,-1.36492 -0.38788,-1.08896 -0.084,-1.02938 0.0687,-1.3059 z"
         id="path62-6" />
      <path
         style="fill:#ffffff;stroke:none;stroke-width:0.26458332px;stroke-linecap:butt;stroke-linejoin:miter;stroke-opacity:1"
         d="m 133.88833,292.55706 1.00063,0.73955 0.97887,2.28396 0.56978,1.52509 1.25246,1.11742 1.44182,-0.0377 0.89309,0.59023 0.1179,0.86317 -0.32017,1.42489 -1.02416,1.62611 -0.47855,0.93534 1.37038,-0.87008 1.43244,-1.54748 0.89183,-2.02294 -0.0427,-1.16358 -0.73956,-1.26299 -0.83443,-0.68749 -1.74771,-0.74475 -1.27539,0.0261 -1.92036,-2.18575 1.05033,0.55776 0.99436,0.22531 h 1.1311 l 0.52205,1.0006 0.43504,0.65256 1.60814,0.46852 1.76341,-0.0335 2.12626,-0.56007 1.02779,-0.87556 1.00059,0.73957 1.00546,0.41167 1.38726,-0.23765 -0.87008,-0.65256 c 0,0 -0.70983,-0.61993 -0.91359,-0.69607 -0.66434,-0.24824 -1.32335,-0.18414 -1.30512,-0.17401 l -2.30571,-1.34863 -2.39271,-0.65256 -1.21812,0.21752 -0.60905,-0.60905 -2.21871,-0.0435 -1.04409,-0.87009 0.52205,-0.73956 1.30512,-0.34803 2.30571,0.47854 1.0876,0.43504 1.34862,-0.17402 1.30512,-1.00059 0.95709,-1.21811 0.39153,-0.39153 1.21811,-0.26103 0.52205,-0.78307 -1.65315,0.39154 -0.087,0.26102 -0.30453,0.17402 -2.2187,0.17401 -2.52323,0.73957 -2.43622,0.26103 2.78425,-1.30512 1.21811,-1.13111 -4.17638,0.60906 h -1.1311 l 1.87067,-1.0441 0.65256,-1.21811 -1.91418,0.34803 -2.39272,1.52264 -1.17464,1.34863 -0.82654,2.04468 z"
         id="path68-97" />
      <path
         style="fill:#ffffff;stroke:none;stroke-width:0.26458332px;stroke-linecap:butt;stroke-linejoin:miter;stroke-opacity:1"
         d="m 131.22374,283.66455 -0.18701,0.83678 -0.36841,0.1961 -0.64131,-0.0282 0.0626,0.83479 -0.22091,0.20989 0.11399,0.22165 -0.14999,0.10191 0.11291,0.38068 -0.0843,0.25039 0.3244,0.27491 0.50928,0.23157 0.24079,0.0268 -0.0274,0.48881 -0.035,0.42577 0.45327,0.33692 1.53825,0.15731 0.0444,-0.8045 1.19664,0.009 1.85176,-0.25508 -1.81036,-0.86659 0.71382,0.14743 0.86284,0.0796 0.88458,-0.46602 -2.23202,-0.88414 1.73963,0.38012 1.82958,-0.28182 -2.68965,-0.91651 0.86823,0.15137 0.66137,-0.18358 -1.5127,-1.43861 -1.64271,-0.73657 -1.48314,0.32266 z"
         id="path72-6" />
      <path
         style="fill:#ffffff;stroke:none;stroke-width:0.26458332px;stroke-linecap:butt;stroke-linejoin:miter;stroke-opacity:1"
         d="m 131.60441,280.61521 0.28277,-3.19755 3.91536,-4.3939 -1.04409,3.39331 -0.71781,2.87126 -0.91359,1.97943 -1.06585,1.19636 z"
         id="path74-0" />
      <path
         style="fill:#ffffff;stroke:none;stroke-width:0.26458332px;stroke-linecap:butt;stroke-linejoin:miter;stroke-opacity:1"
         d="m 136.67262,273.06726 -0.69606,3.78485 c 0,0 0,1.87067 0,2.04469 0,0.17401 4.3504,-4.87245 4.3504,-4.87245 l 0.21752,-2.1752 0.60905,-2.43622 z"
         id="path76-89" />
      <path
         style="fill:#ffffff;stroke:none;stroke-width:0.26458332px;stroke-linecap:butt;stroke-linejoin:miter;stroke-opacity:1"
         d="m 143.45924,272.76273 -2.04468,2.52324 -0.69607,0.60905 -0.21752,1.87067 0.13051,1.52264 v 1.91418 l 1.26162,-2.08819 1.00059,-2.43623 0.52205,-3.08878 z"
         id="path78-7" />
      <path
         style="fill:#ffffff;stroke:none;stroke-width:0.26458332px;stroke-linecap:butt;stroke-linejoin:miter;stroke-opacity:1"
         d="m 139.6744,276.67809 -2.1752,2.52323 -1.34863,1.13111 -1.6749,1.71841 1.06585,0.5438 0.80484,0.93533 0.43504,0.69607 0.7613,-0.5003 1.74016,-1.60965 z"
         id="path80-6" />
      <path
         style="fill:#ffffff;stroke:none;stroke-width:0.26458332px;stroke-linecap:butt;stroke-linejoin:miter;stroke-opacity:1"
         d="m 142.28463,281.63755 -0.0435,1.87067 -0.73957,1.91418 2.61024,-2.91477 1.82717,-3.00178 1.52264,-2.74075 z"
         id="path82-9" />
      <path
         style="fill:#ffffff;stroke:none;stroke-width:0.26458332px;stroke-linecap:butt;stroke-linejoin:miter;stroke-opacity:1"
         d="m 138.76081,284.07377 1.16286,0.13994 0.33838,-0.0615 -0.53833,1.52271 1.50733,-0.93824 0.26148,-2.67629 -2.8301,2.07644 z"
         id="path84-7" />
      <path
         style="fill:#ffffff;stroke:none;stroke-width:0.26458332px;stroke-linecap:butt;stroke-linejoin:miter;stroke-opacity:1"
         d="m 133.35823,288.90004 1.13106,-0.69606 -0.0435,-1.60964 -0.6743,-0.63081 -0.5438,-0.93535 -0.39157,-1.04408 -0.1031,-2.07646 -0.28834,-0.61176 -0.84027,-0.68067 -1.05083,-1.27242 -1.26719,-1.12169 -1.72542,-0.41892 -0.80022,0.14891 -0.21672,0.10572 -0.3555,0.29957 c 0.0942,0.0913 0.16333,0.0326 0.22225,0.0153 0.112,-0.0329 0.18142,-0.1356 0.23599,-0.11875 l -0.27905,0.28036 -0.1721,0.23175 -0.0747,0.31104 0.0987,0.56852 c -0.004,-0.0675 0.0869,-0.14823 0.0981,-0.22698 0.0124,-0.0862 -0.0542,-0.17012 -0.0394,-0.23167 0.0351,-0.14648 0.0711,-0.20372 0.1849,-0.30012 l -0.001,0.4527 0.12144,0.22568 0.0482,-0.22128 -0.0332,-0.16827 0.0257,-0.21908 0.14343,-0.10421 0.51675,-0.096 0.35377,0.39222 -0.12849,0.11619 -0.22887,0.0548 -0.18742,0.23536 -0.0827,0.30126 0.42566,-0.30208 0.17687,-0.0371 0.37842,-0.12963 0.2871,-0.3592 0.64514,0.19379 0.33838,0.18457 0.30169,0.28034 1.09798,1.33642 0.63989,1.36492 0.38788,1.08896 0.084,1.02938 -0.0687,1.3059 z"
         id="path62-4-3" />
    </g>
  </g>
</svg>
