<?xml version="1.0" encoding="UTF-8" standalone="no"?>
<svg
   xmlns:dc="http://purl.org/dc/elements/1.1/"
   xmlns:cc="http://creativecommons.org/ns#"
   xmlns:rdf="http://www.w3.org/1999/02/22-rdf-syntax-ns#"
   xmlns:svg="http://www.w3.org/2000/svg"
   xmlns="http://www.w3.org/2000/svg"
   id="svg8"
   version="1.1"
   viewBox="0 0 25 25"
   height="25mm"
   width="25mm">
  <defs
     id="defs2" />
  <metadata
     id="metadata5">
    <rdf:RDF>
      <cc:Work
         rdf:about="">
        <dc:format>image/svg+xml</dc:format>
        <dc:type
           rdf:resource="http://purl.org/dc/dcmitype/StillImage" />
        <dc:title></dc:title>
      </cc:Work>
    </rdf:RDF>
  </metadata>
  <g
     transform="translate(0,-272)"
     id="layer1">
    <path
       id="path46"
       d="m 9.6938137,281.38253 -0.042644,0.31811 0.013935,0.29666 -0.1832278,0.93942 c 0.090477,0.31791 0.5887091,0.365 0.9183871,0.51807 l 0.228302,-0.22895 0.351513,-0.17871 0.671352,0.0404 0.491413,-0.3392 v -0.23548 l -0.832284,-0.864 -0.721909,-0.40762 z"
       style="fill:#ffffff;stroke:none;stroke-width:0.18649366px;stroke-linecap:butt;stroke-linejoin:miter;stroke-opacity:1" />
    <path
       id="path48"
       d="m 11.236233,282.81898 0.167878,0.26158 0.807284,0.62411 -0.0515,0.18666 0.353843,0.16983 0.786756,0.83257 0.372269,-0.0237 0.718959,0.77477 0.724351,0.39986 0.665004,0.60095 -0.164839,-0.82419 -0.423871,-0.76533 -0.576935,-0.77709 -0.591567,-0.79627 -0.03782,0.44197 -0.124165,0.24833 -0.470968,-0.69468 -0.115933,-0.33 -0.155988,0.0346 -0.263806,-0.258 c -0.392101,-0.32282 -0.773208,-0.55947 -1.242176,-0.73 l -0.235484,-0.0706 z"
       style="fill:#ffffff;stroke:none;stroke-width:0.18649366px;stroke-linecap:butt;stroke-linejoin:miter;stroke-opacity:1" />
    <path
       id="path50"
       d="m 9.8351039,282.39511 -0.3532255,0.54161 -0.1553538,0.30865 -0.2331944,0.63329 -0.133648,0.11293 0.057231,0.19896 -0.041325,0.52408 -0.047096,0.44742 -0.5887094,-0.0471 -0.5533872,0.51806 -0.1177419,0.54161 -0.1412902,0.32968 -0.1295161,0.11774 0.3649998,0.0824 0.5887096,-0.32969 0.4474193,-0.2708 0.3885484,-0.35323 0.2590322,0.11775 c 0,0 0.3061287,-0.4592 0.3414512,-0.51807 0.03532,-0.0589 0.3457821,-0.62866 0.3767741,-0.73 l 0.194519,-0.37082 -0.04443,-0.11991 c 0.05803,-0.19344 0.07362,-0.50883 0.07362,-0.53362 0,-0.0471 -0.105968,-0.80065 -0.105968,-0.80065 l -0.129516,-0.45919 -0.129516,-0.16484 z"
       style="fill:#ffffff;stroke:none;stroke-width:0.18649366px;stroke-linecap:butt;stroke-linejoin:miter;stroke-opacity:1" />
    <path
       id="path54"
       d="m 11.124379,281.85939 c -0.123353,-0.16107 -0.235113,-0.45881 -0.281055,-0.62025 -0.05878,-0.20655 -0.02857,-0.27249 0.02202,-0.42765 l 0.111854,-0.2296 0.05887,-0.18839 -0.09419,-0.29435 -0.10008,-0.30613 -0.200174,0.024 -0.111836,-0.0711 -0.365007,-0.0588 -0.2806416,0.0573 -0.2433092,-0.0102 -0.00592,0.36501 -0.082419,0.2708 0.00592,0.17661 0.1007235,0.22334 0.044258,0.17601 0.029252,0.29546 -0.038795,0.14116 0.1765775,0.18839 0.5887098,0.20016 z"
       style="fill:#ffffff;stroke:none;stroke-width:0.18649366px;stroke-linecap:butt;stroke-linejoin:miter;stroke-opacity:1" />
    <path
       id="path56"
       d="m 10.841796,279.79302 0.123631,-0.0353 0.163812,-6.1e-4 0.165863,0.13013 v 0 l 0.288468,0.17072 0.382969,0.13141 0.199853,-0.15497 0.682904,0.25314 0.482742,-0.0353 0.494516,0.0589 c 0.196062,0.0613 0.507686,0.25498 0.529839,0.61815 -0.05697,0.50137 -0.394428,0.80836 -0.87129,0.65933 -0.316766,-0.12804 -0.503182,-0.33266 -0.718227,-0.58282 l -0.247258,-0.10597 -0.250575,-0.17396 -0.397003,-0.17926 -0.341451,-0.11185 -0.494518,-0.0412 -0.398078,-0.20278 z"
       style="fill:#ffffff;stroke:none;stroke-width:0.18649366px;stroke-linecap:butt;stroke-linejoin:miter;stroke-opacity:1" />
    <path
       id="path60"
       d="m 9.7350225,280.24044 -0.094194,-0.5063 c -0.076948,-0.0616 -0.1249484,-0.0481 -0.2178213,-0.0471 l -0.2649193,0.30613 c 0,0 -0.2316168,0.16685 -0.2649193,0.20016 -0.2119359,0.21194 -0.3650001,0.20015 -0.3650001,0.20015 l -0.317903,0.20016 -0.3296775,0.15307 c -0.3481418,0.20183 -0.6674877,0.8185 -0.6711287,0.98902 l -0.1766131,0.40033 -0.4709676,0.41209 -0.3179033,0.24726 h 0.4238711 l 0.3885482,-0.0942 0.2354839,0.0824 0.023549,-0.22371 0.1059677,-0.14129 0.3767741,0.0118 H 8.021879 c 0.094132,-0.6728 -0.067568,-1.16947 0.8654032,-1.63073 v 0 l 0.3169459,-0.23372 0.3482609,-0.19601 z"
       style="fill:#ffffff;stroke:none;stroke-width:0.18649366px;stroke-linecap:butt;stroke-linejoin:miter;stroke-opacity:1" />
    <path
       id="path62"
       d="m 5.6670403,286.6456 c -0.1863345,0.7177 -0.5937803,1.04316 -1.1303223,1.50709 0,0 -0.3649999,0.97726 -0.306129,0.97726 0.058871,0 1.0243548,-0.44741 1.1067739,-0.49451 0.082419,-0.0471 0.9654838,-0.74178 0.9654838,-0.74178 l 0.6819721,0.71204 0.5048593,0.2775 0.436477,0.10762 c 0.3084692,-0.0464 0.3308126,-0.081 0.4011529,-0.36345 L 8.292286,288.37532 8.1749438,288.0585 c 1.1858021,0.28895 2.3815492,0.49839 3.5879582,0.67128 1.48396,-0.0682 2.601129,-0.2361 3.71204,-1.09515 l 0.513049,0.35383 -0.152382,0.27507 -0.08668,0.29386 c -0.01524,0.36038 0.05231,0.30659 0.381288,0.28936 0.11313,-0.0768 0.274038,-0.14439 0.367573,-0.21138 1.025622,-0.73456 0.899565,-0.90404 1.593551,-0.99196 l 0.546058,0.0237 1.185769,0.60212 c 0.222656,0.0856 0.418646,0.0865 0.648272,0.0654 -0.232491,-0.15257 -0.320972,-0.29879 -0.407565,-0.44878 -0.133896,-0.23192 -0.20594,-0.42675 -0.37986,-0.61942 -0.221525,-0.24541 -0.629549,-0.50079 -0.990661,-0.85334 l -0.215485,-0.33254 c -0.525329,-0.63371 -1.394856,-0.92959 -2.107818,-1.32502 l -1.158308,-0.28672 c 0.06571,0.21699 0.331229,0.51724 0.396936,0.73422 0.526663,0.11506 0.7304,0.21522 0.970674,0.65836 -0.101939,0.47131 -0.402027,0.55928 -0.798264,0.78446 l -1.024355,0.0118 c -1.525141,0.87606 -3.063619,0.61914 -4.520314,0.2877 l -1.4374267,-0.84105 -0.3061292,0.55338 -1.0949995,-0.0353 c -0.1552152,-0.54064 -0.4388169,-0.89044 -0.8124194,-1.2834 l -0.9337882,0.18946 c 0.2563729,-0.28961 0.2448711,-0.51105 0.2458828,-0.87779 l -0.7167141,-0.76436 -1.0179248,-0.45012 c 0.5793162,0.87193 0.589408,1.4622 0.4915768,2.44442 l -0.070645,0.75355 0.2590322,0.54161 z"
       style="fill:#ffffff;stroke:none;stroke-width:0.18649366px;stroke-linecap:butt;stroke-linejoin:miter;stroke-opacity:1" />
    <path
       id="path64"
       d="m 10.529782,279.74592 0.03041,-0.11459 0.141017,0.046 c 0.116365,-0.0216 0.09712,-0.0306 0.147325,-0.13734 l 0.06542,-0.0221 v 0 l -0.02276,-0.0584 0.06059,-0.016 0.01764,-0.0763 0.09108,-0.0247 0.09081,-0.0652 -0.114792,-0.0912 -0.01924,-0.0995 c 0.0129,-0.0966 0.09239,-0.13688 0.09784,-0.27431 0.118796,-0.0601 0.05494,-0.19798 -0.08894,-0.34159 -0.05735,-0.0673 -0.131594,-0.12938 -0.266838,-0.17324 -0.129352,-0.0421 -0.260207,-0.0408 -0.394411,-0.0443 -0.16534,-0.004 -0.282345,0.0586 -0.4243701,0.1315 -0.1340682,0.0849 -0.1718225,0.16118 -0.215788,0.30376 l -0.016064,0.2027 c 0.052047,0.22867 -0.1358635,0.26456 -0.2920897,0.29775 l 0.1364909,0.0493 0.1376616,-0.0347 c -0.019708,0.15051 -0.086031,0.16351 -0.1734663,0.18677 0.1827147,0.0426 0.1905844,0.006 0.2412228,-0.0948 0.043765,0.17896 -0.054485,0.21422 -0.159491,0.30607 0.1700632,-0.0245 0.2783068,-0.0584 0.3529809,-0.21594 0.038239,0.11216 0.00493,0.18131 -0.02171,0.28227 L 9.811533,279.84 l 0.276693,-2e-5 0.432702,0.0206 z"
       style="fill:#ffffff;stroke:none;stroke-width:0.18649366px;stroke-linecap:butt;stroke-linejoin:miter;stroke-opacity:1" />
    <path
       id="path66"
       d="m 13.332038,280.25221 -0.07064,-0.27081 0.129517,-0.18839 0.05887,0.0589 -0.04689,0.16377 v 0 l 0.02497,-0.0833 0.120722,-0.0666 0.07493,-0.0541 0.133209,0.0249 0.02081,0.0708 -0.08742,0.0166 -0.0666,0.0291 v 0.0957 l 0.05828,0.004 0.04995,-0.0417 0.08326,0.0125 0.0333,0.0666 -0.03746,0.0749 0.03746,0.0541 0.02497,0.18316 -0.208141,0.13321 -0.278908,-0.0583 z"
       style="fill:#ffffff;stroke:none;stroke-width:0.18649366px;stroke-linecap:butt;stroke-linejoin:miter;stroke-opacity:1" />
    <path
       id="path68"
       d="m 16.593491,291.41414 c 0.983778,-1.41499 2.458862,-2.16661 3.87795,-3.07952 3.536356,-1.28895 5.980255,-0.12393 2.574306,2.16114 -0.968438,0.76954 -1.927844,0.85517 -3.108387,1.01258 3.846038,-1.7594 2.447611,-2.66955 -0.565162,-1.27161 -1.400773,0.57439 -1.963519,1.12901 -3.014193,1.57774 z"
       style="fill:#ffffff;stroke:none;stroke-width:0.18649366px;stroke-linecap:butt;stroke-linejoin:miter;stroke-opacity:1" />
    <path
       id="path70"
       d="m 7.1034917,291.63786 c -2.7473754,-0.47349 -3.8133545,-3.02147 -5.7693538,-2.90823 -0.89959605,0.20756 -0.87320315,1.30427 -0.1883871,1.88387 0.8920699,0.78262 1.6786864,0.88774 2.8022576,1.01258 l 0.4709677,0.0707 c -0.7602717,-0.15797 -2.0048534,-0.54018 -2.5196771,-1.1892 -0.8507494,-1.32395 1.3760222,0.12307 2.4019351,0.57694 l 0.9890321,0.40032 c 0.079149,0.0314 0.3612934,0.0981 0.4120968,0.12951 l 0.4356451,0.0471 z"
       style="fill:#ffffff;stroke:none;stroke-width:0.18649366px;stroke-linecap:butt;stroke-linejoin:miter;stroke-opacity:1" />
    <path
       id="path72"
       d="m 5.2431695,291.69673 c 0.7227708,-0.73214 0.6023027,-1.1343 1.5541933,-1.4129 0.6970564,-0.30931 1.3545346,-0.32969 2.0958061,-0.32969 2.5005581,0.15366 -0.9809336,1.45753 -1.5541934,1.57775 1.7382869,-0.88692 0.6961934,-1.26282 -0.6829031,-0.87129 -0.6088094,0.17671 -0.9712768,0.60788 -1.4129029,1.03613 z"
       style="fill:#ffffff;stroke:none;stroke-width:0.18649366px;stroke-linecap:butt;stroke-linejoin:miter;stroke-opacity:1" />
    <path
       id="path74"
       d="m 19.93736,291.50834 c -1.428654,-0.75282 -2.589881,-1.11823 -4.21516,-1.64839 -3.63764,-0.69185 -2.9475,0.72732 -1.01258,1.55419 1.071282,0.40542 0.736102,0.36727 1.810081,0.35229 -0.865436,-0.13635 -1.362092,-0.69074 -1.651201,-0.9881 -0.784333,-0.74087 1.726901,-0.0926 2.502087,0.0235 l 1.337034,0.31396 z"
       style="fill:#ffffff;stroke:none;stroke-width:0.18649366px;stroke-linecap:butt;stroke-linejoin:miter;stroke-opacity:1" />
    <path
       id="path76"
       d="m 11.377526,282.12433 c 0.395949,-0.26214 0.518824,-0.41037 0.561834,-0.85121 0.01583,-0.31077 -0.372088,-0.13779 -0.455867,0.0623 l -0.172932,0.31341 c 0.02476,-0.30799 0.131888,-0.43721 0.33777,-0.64309 l 0.133679,-0.0769 c 0.540989,-0.0508 0.400678,0.50788 0.144569,0.84202 -0.163477,0.21329 -0.386023,0.25671 -0.549053,0.35349 z"
       style="fill:#ffffff;stroke:none;stroke-width:0.18649366px;stroke-linecap:butt;stroke-linejoin:miter;stroke-opacity:1" />
    <path
       id="path76-6"
       d="m 11.530587,280.43468 c 0.464396,-0.0991 0.632981,-0.19213 0.834271,-0.58668 0.128418,-0.28343 -0.245868,-0.14953 -0.397022,0.006 l -0.384505,0.28142 c 0.288774,-0.29818 0.341552,-0.52645 0.608476,-0.64274 l 0.15256,-0.0227 c 0.522085,0.1506 0.187118,0.61926 -0.173471,0.83655 -0.23017,0.13871 -0.453176,0.0977 -0.640307,0.12814 z"
       style="fill:#ffffff;stroke:none;stroke-width:0.18649366px;stroke-linecap:butt;stroke-linejoin:miter;stroke-opacity:1" />
    <path
       id="path76-3"
       d="m 9.5981405,282.47279 c -0.3959498,-0.26214 -0.5188242,-0.41037 -0.5618346,-0.85121 -0.015831,-0.31077 0.3720882,-0.13779 0.4558676,0.0623 l 0.1729313,0.31341 c -0.024762,-0.30798 -0.1318881,-0.43721 -0.3377701,-0.64309 l -0.1336784,-0.0769 c -0.5409891,-0.0508 -0.400678,0.50788 -0.1445692,0.84202 0.163477,0.21329 0.3860225,0.25671 0.5490534,0.35349 z"
       style="fill:#ffffff;stroke:none;stroke-width:0.18649366px;stroke-linecap:butt;stroke-linejoin:miter;stroke-opacity:1" />
    <path
       id="path76-3-4"
       d="m 8.6453188,280.84814 c -0.3959501,-0.26213 -0.5188245,-0.41036 -0.5618349,-0.8512 -0.0167,-0.30772 0.244914,0.16455 0.3705047,0.21831 l 0.2582945,0.1574 c -0.252319,-0.32618 -0.1457389,-0.64854 -0.4479004,-0.76417 -0.5791996,-0.0126 -0.5419049,0.6697 -0.1681176,0.88617 0.2325514,0.13468 0.3860225,0.25671 0.5490537,0.35349 z"
       style="fill:#ffffff;stroke:none;stroke-width:0.18649366px;stroke-linecap:butt;stroke-linejoin:miter;stroke-opacity:1" />
    <path
       id="path123"
       d="m 11.115133,278.81235 0.110604,0.0918 c 0.265322,-0.17913 0.415633,-0.39574 0.412118,-0.65356 0.02148,-0.2751 -0.100205,-0.37041 -0.328866,-0.47872 l -0.262257,-0.0624 c 0.268984,-0.0146 0.462346,-0.0109 0.645235,0.26225 0.04577,0.15942 0.03574,0.31927 0.0333,0.48289 -0.05937,0.24569 -0.189173,0.3082 -0.391304,0.43709 l -0.145698,0.0666 z"
       style="fill:#ffffff;stroke:none;stroke-width:0.18649366px;stroke-linecap:butt;stroke-linejoin:miter;stroke-opacity:1" />
  </g>
</svg>
