<?xml version="1.0" encoding="UTF-8" standalone="no"?>
<svg
   xmlns:dc="http://purl.org/dc/elements/1.1/"
   xmlns:cc="http://creativecommons.org/ns#"
   xmlns:rdf="http://www.w3.org/1999/02/22-rdf-syntax-ns#"
   xmlns:svg="http://www.w3.org/2000/svg"
   xmlns="http://www.w3.org/2000/svg"
   id="svg151"
   version="1.1"
   viewBox="0 0 50 50"
   height="50mm"
   width="50mm">
  <defs
     id="defs145" />
  <metadata
     id="metadata148">
    <rdf:RDF>
      <cc:Work
         rdf:about="">
        <dc:format>image/svg+xml</dc:format>
        <dc:type
           rdf:resource="http://purl.org/dc/dcmitype/StillImage" />
        <dc:title></dc:title>
      </cc:Work>
    </rdf:RDF>
  </metadata>
  <g
     transform="translate(0,-247)"
     id="layer1">
    <path
       id="path64"
       d="m 9.0424167,286.85784 c 0.8432052,-2.92088 1.6191963,-4.2376 3.4700593,-6.44439 l 0.283268,-0.92063 -0.0354,-1.06227 1.833282,-1.32384 2.486584,-1.33181 2.124535,-0.63736 2.407787,-0.84982 0.672771,0.24787 c -0.561605,2.33669 0.486252,3.91258 2.053708,5.38213 v 0.77899 l 0.778994,0.3541 0.708177,0.35482 1.841258,1.84053 1.416352,2.47862 0.37179,0.83209 0.194746,0.93834 -0.846257,3.23982 1.284789,-0.0809 2.655652,0.0708 1.334771,-0.0964 1.091557,-1.79413 -2.356967,0.70915 2.675169,-3.21991 -3.442784,2.10003 0.677287,-3.56375 -0.134288,-2.28652 -1.561026,5.07195 -0.02083,-1.62838 -0.772826,-1.63773 -0.442609,-0.84981 -1.504874,-4.0543 -0.973742,-1.2039 -0.920625,0.0397 -0.426534,-1.98197 c -0.109173,-1.00265 -0.206776,-2.13538 -0.405342,-3.22743 0.643185,-1.14103 0.132409,-2.07825 -0.230159,-3.16908 l 0.454485,-0.8338 0.55467,-0.79501 c 0.705742,-1.04226 0.747065,-1.81171 1.079967,-2.99204 l 1.114907,0.90205 1.591353,1.14363 0.515936,0.23819 -0.402834,2.27237 -0.09878,1.39502 -0.719994,1.05967 -0.578266,0.23551 -0.605158,-0.006 -0.463511,0.1477 -0.145814,0.37191 0.178484,0.0585 0.152105,-0.19772 0.225896,0.0702 0.244827,0.11609 -0.690465,0.5841 -0.509863,0.66414 -0.07976,0.58407 0.09017,0.4007 0.134516,-0.31705 0.177386,-0.49271 0.424785,-0.45225 0.357612,-0.19947 0.15834,0.0642 -0.125213,0.19812 -0.38124,0.62804 -0.342727,0.74521 -0.08856,0.39161 0.322053,-0.30225 0.426999,-0.62243 0.387653,-0.5748 0.296031,-0.25027 0.192736,0.10302 -0.109241,0.24608 -0.347292,0.62787 -0.505795,0.57298 -0.140221,0.31872 0.290113,-0.1715 0.641947,-0.48551 0.419056,-0.59913 0.272411,-0.29968 0.253014,0.16087 0.02409,0.38088 -0.196529,0.39957 -0.222119,0.35758 -0.109367,0.31869 0.372694,-0.19199 0.252308,-0.33952 0.162807,-0.40174 c 0.04957,-0.15501 0.04444,-0.44396 0.104765,-0.60027 0.265411,-0.68746 0.660879,-1.24506 0.742621,-1.85308 0.306523,-0.80288 0.611059,-1.18495 0.992698,-2.46342 0.422505,-1.18281 0.421602,-1.87452 0.501789,-3.13597 -0.342855,-0.27199 -0.871383,-0.76933 -1.349577,-1.04132 -0.937506,-1.2248 -2.458739,-1.8186 -3.065581,-2.86001 l -0.81497,-0.6793 c -0.866101,-0.47576 -1.176059,-0.52112 -2.000593,0.0354 l -0.460369,-0.0915 c -0.50918,-0.39373 0.08464,-0.9085 -0.176303,-1.23773 0.469143,0.12569 1.960645,0.24088 2.30783,0.12066 -1.007437,-0.26282 -1.508568,-1.70002 -1.75994,-2.47372 l -1.557729,-0.35439 1.195356,-3.11655 -1.134931,0.5608 -1.140652,0.76793 -1.0443,1.36293 0.722387,-1.40053 0.61713,-1.89194 -2.196811,2.16821 c -0.209227,0.33683 -0.79787,1.01304 -0.919844,1.70086 -0.181618,1.02412 0.168611,2.1349 0.289967,2.68099 l 0.307174,0.38291 0.500544,0.1672 0.157958,0.57491 0.424061,0.2892 0.377935,0.22809 0.516196,0.11044 0.06714,0.38202 -0.881541,0.85729 0.159341,1.32783 c 0.04265,0.50374 0.105975,0.64873 0.509181,0.89116 l 0.340626,0.1357 -0.08309,0.78185 0.06894,0.83472 -0.835644,0.75582 -1.835195,1.11079 c -1.583661,1.11185 -2.504839,1.1511 -4.148893,2.32386 -1.712016,1.09691 -2.795865,2.48816 -4.131344,3.96118 -0.287526,0.31712 -0.856847,0.63804 -1.14456,0.96064 l -0.141639,0.70816 c -1.262674,2.40765 -2.2061711,4.6025 -2.620245,6.44441 l -0.8498134,3.89496 -0.1943158,-1.75005 -0.4073013,-1.5207 -0.67938,-1.88887 -0.046803,1.8312 0.3717914,2.21305 0.6019426,1.39865 -3.5408706,-1.98291 0.9223752,1.76788 1.5385285,0.79926 -0.4159699,0.63801 -3.4612853,1.04391 3.5939875,-0.33638 2.2838681,-0.0885 1.2038932,-0.14163 0.5665457,-2.12454 0.5311317,-0.95603 z"
       style="fill:#ffffff;stroke:none;stroke-width:0.21534972px;stroke-linecap:butt;stroke-linejoin:miter;stroke-opacity:1" />
    <path
       id="path69"
       d="m 25.117992,259.66392 c 0.2072,-0.0188 -0.01392,0.8752 0.367411,0.70749 3.27882,-1.4419 6.498641,-1.5843 10.476269,1.65378 7.1893,5.72602 -1.890395,10.43368 -5.249086,15.41392 2.246534,-1.69764 3.700317,-2.34308 5.811855,-4.19617 0.585802,-0.5141 1.869322,-2.18424 2.449492,-2.70602 -2.075089,3.4823 -4.881796,5.75863 -8.190527,7.96445 l 4.249053,-1.84126 -3.115979,2.33698 c 4.195482,-1.82007 5.630025,-2.55424 8.356478,-6.0903 4.372363,-5.14771 1.237061,-11.14208 -3.232151,-13.86436 -4.596085,-2.20331 -7.609511,-1.11775 -11.922815,0.62149 z"
       style="fill:#ffffff;stroke:none;stroke-width:0.21534972px;stroke-linecap:butt;stroke-linejoin:miter;stroke-opacity:1" />
    <path
       id="path71"
       d="m 25.259638,258.88491 3.080558,-1.16849 c 2.198,-0.62071 4.314714,-0.40595 6.550625,-0.24787 2.339785,0.55347 3.808227,1.83801 5.559181,3.36385 4.917413,5.57669 2.760711,10.26458 -0.160904,13.61372 -1.671523,2.00922 -4.620934,4.12858 -6.133695,5.3593 10.291077,-2.24407 17.373893,-10.94498 13.62422,-19.46875 -3.66195,-9.10184 -15.280751,-7.76711 -22.519985,-3.36383 l -1.664214,0.0708 -2.018042,1.06196 2.224411,1.57696 z"
       style="fill:#ffffff;stroke:none;stroke-width:0.21534972px;stroke-linecap:butt;stroke-linejoin:miter;stroke-opacity:1" />
    <path
       id="path73"
       d="m 22.249884,263.80675 -0.618197,0.075 c -0.7271,0.0483 -0.846428,0.48159 -1.152235,0.88093 l -1.302191,1.04077 -0.680697,0.74738 -0.34192,-0.67291 -0.507895,-0.72573 -0.220385,-0.94532 -0.06984,-0.79289 0.573448,-0.62708 0.510385,-0.26185 0.56574,-0.1417 0.218464,-0.46431 -0.147874,-0.56483 -0.139334,0.28409 0.01562,0.23316 -0.166537,0.20436 -0.472399,0.0455 -0.264548,-0.203 -0.114975,-0.32591 -0.120818,-0.33496 0.06259,-0.23178 3.59e-4,-0.28476 0.25203,-0.29885 0.232082,-0.18729 0.309549,-0.19534 -0.518068,0.0127 -0.546783,0.45671 -0.163476,0.65467 -0.122593,-0.0542 -0.102595,-0.28136 0.04598,-0.27683 0.11902,-0.24006 0.234645,-0.14904 0.126914,-0.13801 0.0389,-0.25688 -0.55358,0.26566 -0.257515,0.39409 -0.04265,0.38274 0.06935,0.34031 -0.168067,0.0509 -0.113284,-0.47046 0.05453,-0.31856 0.130552,-0.17112 0.08471,-0.31142 -0.46023,0.35951 -0.09525,0.31913 0.03598,0.34153 0.09588,0.4016 -0.161596,0.0562 -0.264947,-0.24166 0.05046,-0.29063 -0.07805,-0.29991 -0.221248,0.59567 0.126557,0.33637 0.357066,0.39467 -0.06706,0.61208 -0.107299,0.71979 c 0.408685,1.31589 0.07325,3.52125 0.653431,4.74928 l 0.919307,0.76248 0.725879,-0.15934 0.691791,-0.49691 c 0.983908,-0.5477 1.923188,-1.52006 2.531959,-2.4255 l -2.44e-4,2e-5 z"
       style="fill:#ffffff;stroke:none;stroke-width:0.21534972px;stroke-linecap:butt;stroke-linejoin:miter;stroke-opacity:1" />
  </g>
</svg>
