<?xml version="1.0" encoding="UTF-8" standalone="no"?>
<svg
   xmlns:dc="http://purl.org/dc/elements/1.1/"
   xmlns:cc="http://creativecommons.org/ns#"
   xmlns:rdf="http://www.w3.org/1999/02/22-rdf-syntax-ns#"
   xmlns:svg="http://www.w3.org/2000/svg"
   xmlns="http://www.w3.org/2000/svg"
   id="svg45"
   version="1.1"
   viewBox="0 0 100 100"
   height="100mm"
   width="100mm">
  <defs
     id="defs39" />
  <metadata
     id="metadata42">
    <rdf:RDF>
      <cc:Work
         rdf:about="">
        <dc:format>image/svg+xml</dc:format>
        <dc:type
           rdf:resource="http://purl.org/dc/dcmitype/StillImage" />
        <dc:title></dc:title>
      </cc:Work>
    </rdf:RDF>
  </metadata>
  <g
     transform="translate(0,-197)"
     id="layer1">
    <rect
       ry="11.49259"
       y="209.36249"
       x="9.1140232"
       height="78.577248"
       width="84.189903"
       id="rect47"
       style="fill:#999999;stroke:none;stroke-width:0.26458332" />
    <rect
       ry="11.49259"
       y="207.77501"
       x="7.5265222"
       height="78.577248"
       width="84.189903"
       id="rect47-8"
       style="fill:#ffffff;stroke:none;stroke-width:0.26458332" />
    <ellipse
       cx="49.038063"
       cy="246.46353"
       rx="35.05294"
       ry="33.374241"
       id="path27"
       style="fill:#000000;stroke:none;stroke-width:0.25512972" />
    <path
       id="path15"
       d="m 32.606882,235.93841 c 0.329691,-11.96897 -0.102379,-14.62242 9.621702,-4.00904 v 2.67269 z"
       style="fill:#ffffff;stroke:none;stroke-width:0.26458332px;stroke-linecap:butt;stroke-linejoin:miter;stroke-opacity:1" />
    <path
       id="path17"
       d="m 56.798707,235.91941 c 11.52649,-18.16626 9.733187,-13.17037 8.819896,1.87089 z"
       style="fill:#ffffff;stroke:none;stroke-width:0.26458332px;stroke-linecap:butt;stroke-linejoin:miter;stroke-opacity:1" />
    <path
       id="path19"
       d="m 44.099472,254.595 -3.474503,9.38096 -1.33635,13.75874 v 1.5635 c 8.463426,1.42359 20.072944,-0.45162 20.072944,-0.45162 0,0 1.460836,-12.50763 -4.036771,-24.87697 z"
       style="fill:#ffffff;stroke:none;stroke-width:0.28618756px;stroke-linecap:butt;stroke-linejoin:miter;stroke-opacity:1" />
    <path
       id="path21"
       d="m 42.429037,260.04999 c -7.737143,3.38274 -9.691549,0.43979 -18.64205,-3.14042 -1.5368,-0.0891 -1.737252,1.09135 -0.801808,2.93997 7.417337,3.74688 9.643025,4.81085 17.37252,4.81085 z"
       style="fill:#ffffff;stroke:none;stroke-width:0.26458332px;stroke-linecap:butt;stroke-linejoin:miter;stroke-opacity:1" />
    <rect
       ry="13.096207"
       y="231.48457"
       x="29.199196"
       height="26.192413"
       width="42.495853"
       id="rect25"
       style="fill:#ffffff;stroke:none;stroke-width:0.2796095" />
  </g>
</svg>
