<?xml version="1.0" encoding="UTF-8" standalone="no"?>
<!-- Created with Inkscape (http://www.inkscape.org/) -->

<svg
   xmlns:dc="http://purl.org/dc/elements/1.1/"
   xmlns:cc="http://creativecommons.org/ns#"
   xmlns:rdf="http://www.w3.org/1999/02/22-rdf-syntax-ns#"
   xmlns:svg="http://www.w3.org/2000/svg"
   xmlns="http://www.w3.org/2000/svg"
   xmlns:sodipodi="http://sodipodi.sourceforge.net/DTD/sodipodi-0.dtd"
   xmlns:inkscape="http://www.inkscape.org/namespaces/inkscape"
   width="200mm"
   height="100mm"
   viewBox="0 0 200 100"
   version="1.1"
   id="svg8"
   inkscape:version="0.92.4 (5da689c313, 2019-01-14)"
   sodipodi:docname="drawing.svg">
  <defs
     id="defs2" />
  <sodipodi:namedview
     id="base"
     pagecolor="#ffffff"
     bordercolor="#666666"
     borderopacity="1.0"
     inkscape:pageopacity="0.0"
     inkscape:pageshadow="2"
     inkscape:zoom="0.98994949"
     inkscape:cx="408.07788"
     inkscape:cy="200.96418"
     inkscape:document-units="mm"
     inkscape:current-layer="layer1"
     showgrid="false"
     inkscape:window-width="1600"
     inkscape:window-height="838"
     inkscape:window-x="-8"
     inkscape:window-y="-8"
     inkscape:window-maximized="1" />
  <metadata
     id="metadata5">
    <rdf:RDF>
      <cc:Work
         rdf:about="">
        <dc:format>image/svg+xml</dc:format>
        <dc:type
           rdf:resource="http://purl.org/dc/dcmitype/StillImage" />
        <dc:title></dc:title>
      </cc:Work>
    </rdf:RDF>
  </metadata>
  <g
     inkscape:label="Layer 1"
     inkscape:groupmode="layer"
     id="layer1"
     transform="translate(0,-197)">
    <path
       style="fill:#1a1a1a;stroke:#00ccff;stroke-width:0.21666804px;stroke-linecap:butt;stroke-linejoin:miter;stroke-opacity:1"
       d="m 49.047383,241.35923 -6.414469,-1.43698 -7.226171,-0.41701 -4.871027,-1.80447 -10.792597,-12.01616 c -7.547714,-23.73865 -23.7910897,3.33701 -11.7413987,10.40055 l 0.9468873,-1.41364 -1.4642656,-3.17161 -0.6937675,-2.48346 0.8553463,-5.45234 c 2.1124891,-2.2509 2.1367498,-3.66536 5.0997992,-2.22147 l 0.256411,7.53441 3.301586,7.41005 10.918183,9.91424 8.057814,0.9912 17.973769,1.34828 z"
       id="path22"
       inkscape:connector-curvature="0"
       sodipodi:nodetypes="ccccccccccccccccc" />
    <path
       style="fill:#1a1a1a;stroke:#00ccff;stroke-width:0.21666804px;stroke-linecap:butt;stroke-linejoin:miter;stroke-opacity:1"
       d="m 127.29192,243.85947 c 8.56058,-4.34112 15.05561,-11.28443 3.90291,-18.34514 l -10.04873,-2.35412 -3.67558,0.30206 6.51952,-0.60378 4.00609,-1.20156 c 1.68186,0.81197 5.47648,1.44195 8.35296,1.10446 2.38506,-0.27984 4.99325,-1.11773 6.28641,-1.739 l 1.34181,-1.28523 0.65158,-1.42382 c -2.17815,-0.55165 -5.35981,-0.10407 -7.49461,0.16521 -9.95479,-3.09661 -18.62531,-2.40896 -26.18778,4.68166 -5.90261,7.3511 3.545,7.75883 8.36541,6.39477 l 5.0208,0.38422 1.44722,4.6875 3.39635,-0.78927 -3.39635,0.78927 -8.37395,0.40774 -4.68047,3.57513 c -6.25148,-9.94265 -13.310262,-10.42754 -16.485393,-1.11074 l -1.423207,9.89566 6.1672,-0.20195 z"
       id="path20"
       inkscape:connector-curvature="0"
       sodipodi:nodetypes="ccccccscccccccccccccccc" />
    <path
       style="fill:#1a1a1a;stroke:#00ccff;stroke-width:0.18891676px;stroke-linecap:butt;stroke-linejoin:miter;stroke-opacity:1"
       d="m 91.78681,253.32411 3.7177,-6.99422 12.02782,-5.49547 7.43538,0.49959 5.24849,2.33141 4.81113,4.16324 3.93638,8.49299 -3.2803,4.82935 1.09343,4.99586 10.05963,0.83265 6.34195,-4.16322 -0.43739,-8.15995 c -4.89009,-0.0314 -7.54414,-2.48707 -9.62224,-5.662 0,0 -1.53082,-5.82851 -1.53082,-6.49462 2.28188,-11.12314 8.29562,-14.86141 22.08746,-16.48641 8.33347,1.51794 13.36633,3.91056 10.49701,8.9926 l -6.12326,4.82934 -6.12327,0.16652 -1.85562,-1.8252 1.81008,-1.79297 3.17392,0.68525 3.52286,-2.50952 -1.97048,-2.74954 0.69585,1.05981 -3.60178,0.0913 -3.66797,-2.61962 1.23709,1.00091 c -1.81028,2.20414 -4.37799,2.82211 -6.99801,3.33058 -3.39618,1.41598 -4.24644,3.28809 -4.15507,5.32893 l 2.84295,5.82854 10.05963,5.82852 c 7.29678,5.87168 6.47431,12.81536 1.09345,18.31822 l -11.80912,7.66033 -10.9344,0.83265 -8.52881,-5.82851 -12.24653,-7.3273 -10.49701,-1.66529 -9.184878,-5.1624 z"
       id="path14"
       inkscape:connector-curvature="0"
       sodipodi:nodetypes="ccccccccccccccccccccccccccccccccccccccc" />
    <path
       style="fill:#1a1a1a;stroke:#00ccff;stroke-width:0.21666804px;stroke-linecap:butt;stroke-linejoin:miter;stroke-opacity:1"
       d="M 53.069714,275.66784 C 37.005687,289.6404 13.214236,283.46359 7.8726458,269.69465 l -2.7173261,-8.76933 -0.9859908,-8.30571 3.1209083,-8.25434 c 3.0497408,-7.64594 7.9336758,-9.28626 13.2324018,-13.33039 2.342814,-1.78809 6.323662,-3.81835 6.692277,-8.27858 -0.724255,-5.85214 -6.675632,-4.76984 -9.725197,-2.82733 l -1.660401,4.03904 -7.5903987,3.8371 -4.0323987,-1.41366 -3.4797237,-3.06766 2.412324,-0.97139 4.5067999,1.21171 5.0997992,-2.22147 2.6092,-4.54394 c 6.306118,-3.8206 13.426631,-3.63564 17.789996,-0.50487 7.098064,9.53595 7.216979,15.59193 -2.6092,21.40694 -7.097553,3.32773 -13.568344,6.52123 -14.231999,12.92497 0.530945,1.78813 1.333192,8.6089 1.333192,8.6089 1.778234,6.2517 3.503788,8.11756 8.783393,10.75691 1.51492,0.75733 6.00653,-1.99013 7.766727,-0.83099 7.966735,1.34361 1.864948,-6.77731 -0.09332,-11.4665 l 1.186,-10.50152 5.811398,0.30292 12.162376,1.04536 1.476623,7.73959 z"
       id="path18"
       inkscape:connector-curvature="0"
       sodipodi:nodetypes="cccccscccccccccccccssccccccc" />
    <path
       style="fill:#1a1a1a;stroke:#00ccff;stroke-width:0.21114187px;stroke-linecap:butt;stroke-linejoin:miter;stroke-opacity:1"
       d="m 86.253448,259.1149 5.824721,-4.74845 c 9.497951,-3.73108 18.154641,-5.4367 30.043241,-4.60007 23.29884,2.67101 22.55783,8.98801 14.71506,17.21313 l 0.9197,1.03873 7.05096,1.18711 c 7.422,1.79239 14.85836,3.22036 27.09008,0.97432 5.64713,-1.03696 9.47404,-1.86911 12.80239,-5.42208 9.28616,-11.73924 7.6733,-14.64884 3.74167,-18.33099 -0.0167,-0.38484 2.3892,0.40509 0.30066,-0.13127 -1.959,-0.50309 -3.06663,-1.80963 -3.91877,-2.4523 l 2.13649,-1.16222 -2.13649,1.16222 c -5.89767,0.48755 -6.82945,0.24961 -12.20431,-0.64957 l 1.61842,-0.99491 -3.68771,1.84814 -7.46745,1.18014 -3.8665,-1.47021 5.21159,-2.5968 5.21159,-1.48388 c 35.68038,-6.94528 26.61989,17.7551 25.16131,20.25926 -10.50647,20.19976 -36.03977,17.6679 -61.02927,16.09605 l -15.94132,-2.67099 c -4.49301,-4.61648 -6.45853,-7.41575 1.83939,-12.90986 l -5.60254,4.19733 c -10.38436,4.18193 -18.143314,4.04446 -27.812922,-0.63599 z"
       id="path12"
       inkscape:connector-curvature="0"
       sodipodi:nodetypes="ccccccsccsccccccccccccccccc" />
    <path
       style="fill:#1a1a1a;stroke:#00ccff;stroke-width:0.21666804px;stroke-linecap:butt;stroke-linejoin:miter;stroke-opacity:1"
       d="m 67.208674,215.45184 c -6.110242,0.0807 -11.697892,3.43074 -16.750361,11.21519 -6.063771,11.69768 -1.094662,9.84535 -1.41093,14.6922 l 0.368593,3.8074 3.837507,3.37419 -2.904948,3.50841 -0.0124,4.6564 2.729638,3.48157 1.690713,1.99526 2.111784,1.04697 c -4.071511,-1.00535 -7.425544,-11.03932 -12.412273,-10.48489 -27.437474,-0.7641 -6.504517,14.69622 -12.673186,22.20968 l -6.010444,2.42328 -6.072654,1.61501 C 16.666997,274.14653 0.79145691,260.70542 0.79145691,260.70542 c 0,0 -0.49230969,4.47906 0.47108679,9.30563 1.1424579,5.72368 -0.1254016,11.60524 -0.1254016,11.60524 l 10.1247519,7.36354 17.942821,-0.69911 13.729399,-3.63455 c 3.308799,-5.37111 5.020606,-8.93624 0.980999,-14.52991 l 2.260104,2.67513 c 8.349903,5.33092 14.213561,6.68851 14.11902,-2.05521 l 2.824793,-1.38115 -2.824793,1.38115 0.328389,3.67508 1.000563,2.52288 c 3.712495,7.42205 -3.679647,8.2538 -10.223446,6.9707 l -2.08885,1.03335 0.747173,1.96533 c 10.194484,3.19221 19.772417,-2.46424 20.798054,-8.42527 1.055504,-2.14959 -1.070191,-2.62027 -0.61684,-5.57947 l 0.960287,-5.30853 -1.122678,-6.68707 1.145587,-2.5038 c -3.182656,2.80248 0.366317,6.6642 -0.02291,9.19087 -0.399375,2.59257 -0.0056,5.27685 0.581499,6.2678 1.482512,2.50212 3.099685,2.42886 4.431077,2.38211 2.978251,-0.10454 -0.612149,0.3663 -1.210065,0.70276 -5.252557,2.95569 -2.309609,8.05167 -1.629955,8.10429 l 4.19321,1.85631 3.522245,-0.14282 c 0,0 9.224779,-2.99854 -1.845057,-4.28404 2.871881,-2.98137 8.536309,-3.16791 7.918149,-5.39385 -0.275185,-0.99087 -1.411184,-3.64326 -4.008348,-5.49272 -0.934984,-0.6658 -3.401325,-0.52443 -4.199545,-1.15189 0,-0.5712 1.295974,-2.38443 1.295974,-2.38443 l 1.816705,-1.41017 1.743706,-8.375 -1.743706,8.375 4.053692,5.12318 c 0,0 8.828772,4.57258 9.901949,7.30521 1.073191,2.73263 -6.938898,3.67471 -6.938898,3.67471 l -3.142898,1.91854 c 1.624103,2.33778 8.014038,0.97226 12.088368,1.09597 9.456681,-1.55932 2.837771,-7.43464 2.515761,-8.56806 1.04389,-1.23483 -1.239809,-7.96919 -7.585877,-9.02124 -2.780782,-0.461 -6.704115,-4.16017 -4.134272,-7.4559 -2.569843,3.29573 0.599988,5.00687 4.134272,7.4559 6.888499,1.10242 7.077347,8.18561 12.046467,3.45526 l 2.58879,-8.47717 c -2.70209,5.59802 -2.89366,11.7051 -0.68052,17.08031 l 9.18305,3.63688 h 19.24894 c 8.47475,-4.01241 11.10841,-7.253 16.07069,-16.77086 4.14127,-11.36501 5.57991,-34.44745 -7.19445,-34.63348 -2.09036,-0.0304 -4.56126,0.55226 -7.46322,1.89966 l -3.00215,2.0207 -3.00215,3.53614 2.22707,2.00196 4.3019,-1.60721 2.12436,-2.5166 -0.93238,1.35494 c 3.09618,1.22443 3.63288,1.54833 7.03026,0.88443 0.49089,0.87513 1.12888,2.65428 2.25735,3.33933 0.0356,0.0216 0.0487,0.0277 0.0797,0.0461 -0.13727,-0.036 -0.25554,-0.0217 -0.25271,0.13237 0.0228,1.24073 0.52705,3.7038 -0.98878,5.11677 -2.24352,2.09125 -2.36117,3.97483 -3.35575,7.46078 -0.29279,1.02624 -0.90381,4.12904 -1.36579,5.00316 -2.48601,0.49887 -6.18349,3.15993 -9.18305,8.18354 -5.97057,-0.0487 -6.98561,3.39148 -10.24249,5.25344 l -4.06156,-1.61655 -0.52973,-1.41431 c 4.51786,-11.20008 10.55726,-16.86193 -2.8641,-20.49902 -6.68181,-1.1115 -12.26068,-4.26506 -17.577227,0.56054 l -3.134487,5.45224 3.134487,-5.45224 c 1.878975,-3.5406 -1.915563,-5.27313 -1.915563,-5.27313 l 0.661516,-4.81219 -1.997248,-3.55115 -2.509042,-1.28171 c -0.37057,-5.99447 -0.03803,-3.84583 -5.982344,-10.57962 C 78.003301,220.18747 73.713015,215.366 67.208565,215.45186 Z"
       id="path10"
       inkscape:connector-curvature="0"
       sodipodi:nodetypes="cccccccccccccccscccccccccccccccccccssssccccssccccccsccccsccccccccscccccccccccccccccccccccccccsc" />
    <path
       style="fill:#00ccff;stroke:#00ccff;stroke-width:0.26458332px;stroke-linecap:butt;stroke-linejoin:miter;stroke-opacity:1"
       d="m 61.515624,250.13095 0.944941,-1.5119 1.322917,-1.13393 3.496278,-0.18899 3.68527,1.98437 0.850445,1.41742 -2.267858,-1.13393 -3.874254,-0.56697 z"
       id="path21"
       inkscape:connector-curvature="0" />
    <path
       style="fill:#00ccff;stroke:#00ccff;stroke-width:0.26458332px;stroke-linecap:butt;stroke-linejoin:miter;stroke-opacity:1"
       d="m 84.477676,246.2567 1.6064,-2.83482 1.795388,-0.28349 3.779761,-0.56696 1.795388,1.03943 -2.740329,-1.70089 -2.740327,-0.0945 -2.55134,0.85044 z"
       id="path23"
       inkscape:connector-curvature="0" />
    <path
       style="fill:#00ccff;stroke:#00ccff;stroke-width:0.26458332px;stroke-linecap:butt;stroke-linejoin:miter;stroke-opacity:1"
       d="m 70.492558,239.07515 -4.724701,-0.85045 -1.606399,1.70089 1.417409,-0.37797 4.346726,0.37797 z"
       id="path25"
       inkscape:connector-curvature="0" />
    <path
       style="fill:#00ccff;stroke:#00ccff;stroke-width:0.26458332px;stroke-linecap:butt;stroke-linejoin:miter;stroke-opacity:1"
       d="m 80.792409,235.29539 -0.661458,1.41741 -0.283483,1.03943 1.228423,-1.6064 2.456847,-0.47247 v -0.47247 z"
       id="path27"
       inkscape:connector-curvature="0" />
    <path
       style="fill:#00ccff;stroke:#00ccff;stroke-width:0.26458332px;stroke-linecap:butt;stroke-linejoin:miter;stroke-opacity:1"
       d="m 66.145832,232.17708 -1.322916,1.41741 2.173364,-0.18899 z"
       id="path29"
       inkscape:connector-curvature="0" />
    <path
       style="fill:#00ccff;stroke:#00ccff;stroke-width:0.26458332px;stroke-linecap:butt;stroke-linejoin:miter;stroke-opacity:1"
       d="m 74.650297,229.90923 -0.472471,1.88988 2.267857,-1.22843 z"
       id="path31"
       inkscape:connector-curvature="0" />
  </g>
</svg>
