<?xml version="1.0" encoding="UTF-8" standalone="no"?>
<svg
   xmlns:dc="http://purl.org/dc/elements/1.1/"
   xmlns:cc="http://creativecommons.org/ns#"
   xmlns:rdf="http://www.w3.org/1999/02/22-rdf-syntax-ns#"
   xmlns:svg="http://www.w3.org/2000/svg"
   xmlns="http://www.w3.org/2000/svg"
   id="svg45"
   version="1.1"
   viewBox="0 0 100 100"
   height="100mm"
   width="100mm">
  <defs
     id="defs39" />
  <metadata
     id="metadata42">
    <rdf:RDF>
      <cc:Work
         rdf:about="">
        <dc:format>image/svg+xml</dc:format>
        <dc:type
           rdf:resource="http://purl.org/dc/dcmitype/StillImage" />
        <dc:title></dc:title>
      </cc:Work>
    </rdf:RDF>
  </metadata>
  <g
     transform="translate(0,-197)"
     id="layer1">
    <rect
       ry="11.49259"
       y="209.36249"
       x="9.1140232"
       height="78.577248"
       width="84.189903"
       id="rect47"
       style="fill:#999999;stroke:none;stroke-width:0.26458332" />
    <rect
       ry="11.49259"
       y="207.77501"
       x="7.5265222"
       height="78.577248"
       width="84.189903"
       id="rect47-8"
       style="fill:#ffffff;stroke:none;stroke-width:0.26458332" />
    <rect
       ry="0.13363336"
       y="213.84525"
       x="62.933037"
       height="20.221727"
       width="35.529762"
       id="rect169"
       style="fill:#b3b3b3;stroke:none;stroke-width:0.25462049" />
    <rect
       ry="0.13363336"
       y="212.61681"
       x="59.814735"
       height="20.221727"
       width="37.041664"
       id="rect169-3"
       style="fill:#ffffff;stroke:none;stroke-width:0.25998151" />
    <text
       transform="scale(1.024554,0.97603447)"
       id="text17"
       y="232.62196"
       x="63.331142"
       style="font-style:normal;font-weight:normal;font-size:16.4318428px;line-height:1.25;font-family:sans-serif;letter-spacing:0px;word-spacing:0px;fill:#ff6600;fill-opacity:1;stroke:none;stroke-width:0.41079602"
       xml:space="preserve"><tspan
         style="font-style:normal;font-variant:normal;font-weight:bold;font-stretch:normal;font-family:Aharoni;-inkscape-font-specification:'Aharoni Bold';fill:#ff6600;stroke-width:0.41079602"
         y="232.62196"
         x="63.331142"
         id="tspan15">Svg</tspan></text>
    <text
       transform="scale(1.0202877,0.98011572)"
       id="text17-6"
       y="286.07874"
       x="18.630703"
       style="font-style:normal;font-weight:normal;font-size:13.26506042px;line-height:1.25;font-family:sans-serif;letter-spacing:0px;word-spacing:0px;fill:#28220b;fill-opacity:1;stroke:none;stroke-width:0.33162647;"
       xml:space="preserve"><tspan
         style="font-style:normal;font-variant:normal;font-weight:bold;font-stretch:normal;font-family:Aharoni;-inkscape-font-specification:'Aharoni Bold';fill:#28220b;stroke-width:0.33162647;"
         y="286.07874"
         x="18.630703"
         id="tspan15-2">SVGDemo</tspan></text>
    <path
       id="path19"
       d="m 20.410714,249.5242 -0.377976,2.68563 55.940476,-0.14921 0.377976,-2.68562 z"
       style="fill:#000000;stroke:none;stroke-width:0.2350885px;stroke-linecap:butt;stroke-linejoin:miter;stroke-opacity:1" />
    <path
       id="path19-4"
       d="m 20.788691,233.78348 -0.377976,4.15774 C 45.719423,255.61 51.33243,252.2955 76.540179,238.31919 l 0.188988,-3.96875 C 51.427623,251.49613 41.10966,249.70711 20.788691,233.78348 Z"
       style="fill:#000000;stroke:none;stroke-width:0.26458332px;stroke-linecap:butt;stroke-linejoin:miter;stroke-opacity:1" />
    <rect
       ry="0.25433448"
       y="244.3857"
       x="43.240471"
       height="11.150297"
       width="11.150298"
       id="rect36"
       style="fill:#ff0000;stroke:none;stroke-width:0.5118857" />
    <path
       d="m 25.513392,252.20982 a 5.4806547,5.1026788 0 0 1 -5.450399,5.1026 5.4806547,5.1026788 0 0 1 -5.510576,-5.04626 5.4806547,5.1026788 0 0 1 5.389558,-5.15832 5.4806547,5.1026788 0 0 1 5.570081,4.98932 l -5.479318,0.11266 z"
       id="path44"
       style="fill:#ff0000;stroke:none;stroke-width:0.34557077" />
    <path
       d="m 81.453868,252.06062 a 5.4806547,5.1026788 0 0 1 -5.450399,5.1026 5.4806547,5.1026788 0 0 1 -5.510576,-5.04626 5.4806547,5.1026788 0 0 1 5.389558,-5.15832 5.4806547,5.1026788 0 0 1 5.570081,4.98932 l -5.479319,0.11266 z"
       id="path44-8"
       style="fill:#ff0000;stroke:none;stroke-width:0.34557077" />
  </g>
</svg>
