<?xml version="1.0" encoding="UTF-8" standalone="no"?>
<svg
   xmlns:dc="http://purl.org/dc/elements/1.1/"
   xmlns:cc="http://creativecommons.org/ns#"
   xmlns:rdf="http://www.w3.org/1999/02/22-rdf-syntax-ns#"
   xmlns:svg="http://www.w3.org/2000/svg"
   xmlns="http://www.w3.org/2000/svg"
   id="svg8"
   version="1.1"
   viewBox="0 0 25 25"
   height="25mm"
   width="25mm">
  <defs
     id="defs2" />
  <metadata
     id="metadata5">
    <rdf:RDF>
      <cc:Work
         rdf:about="">
        <dc:format>image/svg+xml</dc:format>
        <dc:type
           rdf:resource="http://purl.org/dc/dcmitype/StillImage" />
        <dc:title></dc:title>
      </cc:Work>
    </rdf:RDF>
  </metadata>
  <path
     style="fill:#000000;fill-opacity:1;stroke:none;stroke-width:0.18943462"
     d="m 1.9581001,12.177339 c -4.152e-4,0.0019 0.00149,0.0042 0.00567,0.0066 l 5.2449654,2.96982 c 0.00846,0.0047 0.023027,0.0075 0.032717,0.0063 l 1.8185303,-0.227708 c 0.1152513,-0.682962 0.6636664,-1.209343 1.3496887,-1.295461 0.858841,-0.107629 1.642469,0.502723 1.750226,1.363215 0.08123,0.651674 -0.250914,1.284963 -0.83258,1.587446 l 0.800347,6.391754 c 0.0012,0.0096 0.0059,0.01033 0.01078,0.002 l 3.033507,-5.179499 c 0.0049,-0.0084 0.008,-0.02277 0.0068,-0.03231 l -0.220216,-1.758694 c -0.532388,-0.211037 -0.907702,-0.696049 -0.978988,-1.265134 -0.107738,-0.860494 0.501205,-1.645218 1.360068,-1.752672 0.69622,-0.08702 0.984306,-0.13484 1.257249,0.512912 l 6.475462,-0.810829 c 0.0096,-0.0012 0.01052,-0.0059 0.0021,-0.01062 l -4.863732,-2.534793 c -0.0084,-0.0047 -0.02303,-0.0075 -0.03271,-0.0063 l -2.131115,0.266849 c -0.245932,0.419007 -0.671796,0.700142 -1.153194,0.761286 -0.858983,0.107647 -1.642698,-0.502919 -1.750271,-1.3635784 -0.08122,-0.6541806 0.254057,-1.2893399 0.83938,-1.5901474 L 13.179473,1.8020278 c -0.0012,-0.00962 -0.0063,-0.010683 -0.01119,-0.00233 l -3.033509,5.1794929 c -0.0049,0.00837 -0.0077,0.022721 -0.0065,0.032267 l 0.241705,1.9303092 c 0.637806,0.1495968 1.115643,0.680714 1.19814,1.3316858 0.107738,0.860495 -0.501205,1.645219 -1.360068,1.752672 -0.5926173,0.07377 -1.1757308,-0.19634 -1.5036824,-0.696524 L 1.966239,12.173323 c -0.00488,6.11e-4 -0.00773,0.0021 -0.0081,0.0039 z m 10.4031989,0.518044 c -0.03836,-0.306333 0.170725,-0.584711 0.466948,-0.621698 0.296081,-0.03696 0.567117,0.181231 0.605452,0.487417 0.03834,0.306183 -0.170526,0.584471 -0.466579,0.621651 -0.296197,0.0372 -0.567466,-0.181037 -0.605821,-0.48737 z"
     id="rect1154" />
  <path
     style="fill:#ffffff;fill-opacity:1;stroke:none;stroke-width:0.18943462px;stroke-linecap:butt;stroke-linejoin:miter;stroke-opacity:1"
     d="M 11.664004,18.978115 C 6.777492,20.042039 2.9260995,14.967986 1.9581001,12.177339 1.2925533,18.33309 5.7682843,23.668848 12.16346,22.858133 Z"
     id="path1258" />
  <path
     style="fill:#ffffff;fill-opacity:1;stroke:none;stroke-width:0.18943462px;stroke-linecap:butt;stroke-linejoin:miter;stroke-opacity:1"
     d="m 19.101449,13.268489 c 1.061409,4.811177 -4.102327,8.625331 -6.937989,9.589644 6.244562,0.632779 11.676223,-3.797576 10.877429,-10.096333 z"
     id="path1258-3" />
  <path
     style="fill:#ffffff;fill-opacity:1;stroke:none;stroke-width:0.18943462px;stroke-linecap:butt;stroke-linejoin:miter;stroke-opacity:1"
     d="M 5.8975383,11.670649 C 4.8361308,6.8594724 10.32112,2.7838265 13.156783,1.8195135 6.912219,1.1867349 1.1593064,5.8785816 1.9581001,12.177339 Z"
     id="path1258-3-3" />
  <path
     style="fill:#ffffff;fill-opacity:1;stroke:none;stroke-width:0.18943462px;stroke-linecap:butt;stroke-linejoin:miter;stroke-opacity:1"
     d="M 13.699311,5.9891593 C 18.585824,4.9252346 22.072889,9.971154 23.040889,12.7618 23.706435,6.6060489 19.551958,1.0087984 13.156783,1.8195135 Z"
     id="path1258-3-9" />
</svg>
